/* XPM */
static char *acute[] = {
/* width height num_colors chars_per_pixel */
"    20    20       47            1",
/* colors */
". c #000000",
"# c #0b0b0b",
"a c #0e0e0e",
"b c #101010",
"c c #141414",
"d c #252525",
"e c #303030",
"f c #353535",
"g c #444444",
"h c #525252",
"i c #565656",
"j c #595959",
"k c #696969",
"l c #6a6a6a",
"m c #707070",
"n c #717171",
"o c #737373",
"p c #747474",
"q c #777777",
"r c #7b7b7b",
"s c #868686",
"t c #8b8b8b",
"u c #929292",
"v c #939393",
"w c #959595",
"x c #a4a4a4",
"y c #bdbdbd",
"z c #bebebe",
"A c #c2c2c2",
"B c #c5c5c5",
"C c #d0d0d0",
"D c #d3d3d3",
"E c #d4d4d4",
"F c #d6d6d6",
"G c #e1e1e1",
"H c #e2e2e2",
"I c #e5e5e5",
"J c #e8e8e8",
"K c #e9e9e9",
"L c #eaeaea",
"M c #ececec",
"N c #f6f6f6",
"O c #fafafa",
"P c #fcfcfc",
"Q c #fdfdfd",
"R c #fefefe",
"S c #ffffff",
/* pixels */
"RRSRRRRRRRRRRRRRSSSS",
"RSSSRRRRRRRRRRRRSSSS",
"SRSSSRRRRRRRRRRRSSSS",
"SSSSSRRRRRRRRRRRSSSS",
"SSSSSRRRRRJARRRRSSSS",
"RRSRRRRRROihRRRRSSSS",
"RRSSSRRRRvmNRRRRSSSS",
"RRRRRRRRRxPRRRRRSSSS",
"RRRRRRRRMuuEGRRRSSSS",
"RRSRRRRLeyF#sRRRSSSS",
"RRRRRRRioRRcBRRRSSSS",
"RRRRRRK.CREaNRRRSSSS",
"SRSSRRzbRRwgMLRRSSSS",
"RRSRSRDdRPfptHRRSSSS",
"RRRRRRRkrlnjqRRRSSSS",
"RSSRRRRRIORLQRRRSSSS",
"RRSSRRRRRRRRRRRRSSSS",
"RRRRRRRRRRRRRRRRSSSS",
"RSRSRRRRRRRRRRRRSSSS",
"RRSSRRRRRRRRRRRRSSSS"
};
