/* XPM */
static char *approx[] = {
/* width height num_colors chars_per_pixel */
"    20    20       48            1",
/* colors */
". c #141414",
"# c #161616",
"a c #171717",
"b c #181818",
"c c #272727",
"d c #2d2d2d",
"e c #444444",
"f c #4a4a4a",
"g c #505050",
"h c #525252",
"i c #535353",
"j c #555555",
"k c #575757",
"l c #5b5b5b",
"m c #606060",
"n c #626262",
"o c #636363",
"p c #666666",
"q c #6d6d6d",
"r c #737373",
"s c #7b7b7b",
"t c #818181",
"u c #848484",
"v c #8b8b8b",
"w c #919191",
"x c #979797",
"y c #aaaaaa",
"z c #adadad",
"A c #aeaeae",
"B c #b4b4b4",
"C c #bababa",
"D c #bdbdbd",
"E c #c0c0c0",
"F c #c1c1c1",
"G c #d7d7d7",
"H c #dddddd",
"I c #dfdfdf",
"J c #e0e0e0",
"K c #e3e3e3",
"L c #e5e5e5",
"M c #e6e6e6",
"N c #e7e7e7",
"O c #ebebeb",
"P c #f7f7f7",
"Q c #f8f8f8",
"R c #fdfdfd",
"S c #fefefe",
"T c #ffffff",
/* pixels */
"TTTTTTTTTTTTTTTTSSSS",
"TTTTTTTTTTTTTTTTSSSS",
"TTTTTTTTTTTTTTTTSSSS",
"TTTTTTTTTTTTTTTTSSSS",
"TTTTTTTTTTTTTTTTSSSS",
"TTSTTTTTTTTTTTTTSSSS",
"TTTTTQtkrNTTTTzTSSSS",
"STSTTumAwawTTNiTSSSS",
"TTTTTnRTTMjdfbDTSSSS",
"TTSSTHLEHTSGCIJTSSSS",
"TTTTTF.eclOTTSoTSSSS",
"TTSSShLTTv#xBptTSSSS",
"TTTTTyTTTTKqgsPTSSSS",
"TTSTTTTTTTTTTTTTSSSS",
"STSSTTTTTTTTTTTTSSSS",
"TTSTTTTTTTTTTTTTSSSS",
"TTTTTTTTTTTTTTTTSSSS",
"STSTTTTTTTTTTTTTSSSS",
"TTSTTTTTTTTTTTTTSSSS",
"TTTTTTTTTTTTTTTTSSSS"
};
