/* XPM */
static char *approxeq[]={
"20 20 11 1",
"b c #000000",
"c c #111111",
"e c #222222",
"i c #555555",
"a c #666666",
"h c #777777",
"f c #999999",
"g c #cccccc",
"d c #dddddd",
"# c #eeeeee",
". c #ffffff",
"....................",
"....................",
"....................",
"....................",
"....................",
"....#abcad.....e....",
"....aa##fcag.#aa....",
"....c#...#hebch.....",
"....................",
"....#abcad.....e....",
"....aa##fehg.#hi....",
"....c#...#aebch#....",
"....................",
"....................",
"....................",
"....cbbbbbbbbbbh....",
"....................",
"....................",
"....................",
"...................."};
