/* XPM */
static char *backprime[]={
"20 20 14 1",
"c c #000000",
"h c #111111",
"g c #222222",
"a c #333333",
"b c #444444",
"# c #555555",
"k c #666666",
"f c #888888",
"e c #aaaaaa",
"d c #bbbbbb",
"j c #cccccc",
"l c #dddddd",
"i c #eeeeee",
". c #ffffff",
"....................",
"....................",
"....................",
"....................",
"....................",
"........#a..........",
"........bcd.........",
"........ecf.........",
".........g#.........",
".........fh.........",
".........ihj........",
"..........kf........",
"..........lk........",
"...........k........",
"...........e........",
"....................",
"....................",
"....................",
"....................",
"...................."};
