/* XPM */
static char *bar[] = {
/* width height num_colors chars_per_pixel */
"    20    20       42            1",
/* colors */
". c #000000",
"# c #0c0c0c",
"a c #0d0d0d",
"b c #0e0e0e",
"c c #151515",
"d c #262626",
"e c #343434",
"f c #373737",
"g c #424242",
"h c #5a5a5a",
"i c #5b5b5b",
"j c #626262",
"k c #6a6a6a",
"l c #6e6e6e",
"m c #727272",
"n c #808080",
"o c #818181",
"p c #858585",
"q c #8e8e8e",
"r c #969696",
"s c #989898",
"t c #b6b6b6",
"u c #bcbcbc",
"v c #bdbdbd",
"w c #bebebe",
"x c #c3c3c3",
"y c #cecece",
"z c #cfcfcf",
"A c #d0d0d0",
"B c #d5d5d5",
"C c #d9d9d9",
"D c #dfdfdf",
"E c #e4e4e4",
"F c #ebebeb",
"G c #ececec",
"H c #eeeeee",
"I c #f5f5f5",
"J c #f8f8f8",
"K c #fcfcfc",
"L c #fdfdfd",
"M c #fefefe",
"N c #ffffff",
/* pixels */
"MMNMMMMMMMMMMMMMNNNN",
"MNNNMMMMMMMMMMMMNNNN",
"NMNNNMMMMMMMMMMMNNNN",
"NNNNNMMMMMMMMMMMNNNN",
"NNNNNMMMLLMMLMMMNNNN",
"MMNMMMMvoooouMMMNNNN",
"MMNNNMMLLMLLMMMMNNNN",
"MMMMMMMMHssCEMMMNNNN",
"MMMMMMMFetz#pMMMNNNN",
"MMNMMMMilLMcxMMMNNNN",
"MMMMMMF.yMBaIMMMNNNN",
"MMMMMMwbLMrgGGMMNNNN",
"NMNNMMAdMKfmqDMMNNNN",
"MMNMNMLjnkkhmLMMNNNN",
"MMMMMMMLDJLEKMMMNNNN",
"MNNMMMMMMMMMMMMMNNNN",
"MMNNMMMMMMMMMMMMNNNN",
"MMMMMMMMMMMMMMMMNNNN",
"MNMNMMMMMMMMMMMMNNNN",
"MMNNMMMMMMMMMMMMNNNN"
};
