/* XPM */
static char *barwedge[]={
"20 20 12 1",
"a c #000000",
"# c #222222",
"b c #333333",
"j c #444444",
"h c #555555",
"d c #666666",
"i c #777777",
"e c #bbbbbb",
"c c #cccccc",
"f c #dddddd",
"g c #eeeeee",
". c #ffffff",
"....................",
"....................",
"....................",
"....................",
".....#aaaaaaab......",
"....................",
"....................",
"....................",
"........c#..........",
"........dde.........",
".......fdgh.........",
".......df.ie........",
"......fd..gj........",
"......de...dc.......",
".....gh....fd.......",
".....ie.....df......",
".....h......fh......",
"....................",
"....................",
"...................."};
