/* XPM */
static char *because[]={
"20 20 7 1",
"a c #111111",
"b c #333333",
"# c #444444",
"d c #555555",
"c c #666666",
"e c #777777",
". c #ffffff",
"....................",
"....................",
"....................",
"....................",
"....................",
"....................",
"....#a.......bb.....",
"....ca.......db.....",
"....................",
"....................",
"....................",
"....................",
"....................",
".........be.........",
".........ab.........",
"....................",
"....................",
"....................",
"....................",
"...................."};
