/* XPM */
static char *bigsqcup[]={
"20 20 8 1",
"c c #000000",
"# c #333333",
"e c #444444",
"f c #666666",
"a c #777777",
"b c #888888",
"d c #bbbbbb",
". c #ffffff",
"....................",
"...#..........ab....",
"...cd.........ee....",
"...cd.........ee....",
"...cd.........ee....",
"...cd.........ee....",
"...cd.........ee....",
"...cd.........ee....",
"...cd.........ee....",
"...cd.........ee....",
"...cd.........ee....",
"...cd.........ee....",
"...cd.........ee....",
"...cd.........ee....",
"...cd.........ee....",
"...cd.........ee....",
"...cd.........ee....",
"...cd.........ee....",
"...ccccccccccccf....",
"...................."};
