/* XPM */
static char *bigwedge[]={
"20 20 16 1",
"e c #000000",
"n c #111111",
"c c #222222",
"l c #333333",
"h c #444444",
"d c #555555",
"a c #666666",
"g c #777777",
"k c #888888",
"b c #999999",
"m c #aaaaaa",
"i c #bbbbbb",
"# c #cccccc",
"j c #dddddd",
"f c #eeeeee",
". c #ffffff",
"....................",
".........#a.........",
".........bc.........",
".........de#........",
"........fecg........",
"........bcbc........",
"........hgfei.......",
".......je#.da.......",
".......kl..mn.......",
".......lk...nm......",
"......jej...aa......",
"......gl....mnf.....",
"......ck.....nb.....",
".....#ef.....gd.....",
".....gd......#ef....",
".....cb.......cb....",
"....ief.......gh....",
"....ad........#ej...",
"....nb.........lg...",
"....lf.........gd..."};
