/* XPM */
static char *blacktriangle[]={
"20 20 13 1",
"c c #000000",
"g c #111111",
"j c #222222",
"a c #444444",
"b c #666666",
"h c #777777",
"k c #888888",
"i c #999999",
"d c #bbbbbb",
"# c #cccccc",
"e c #dddddd",
"f c #eeeeee",
". c #ffffff",
"....................",
"....................",
"....................",
"....................",
"....................",
".........#a.........",
".........bcd........",
"........eccb........",
"........bccce.......",
".......fgcccb.......",
".......hcccccf......",
"......fgccccch......",
"......iccccccgf.....",
"......jccccccck.....",
".....kccccccccj.....",
"....................",
"....................",
"....................",
"....................",
"...................."};
