/* XPM */
static char *blacktriangleright[]={
"20 20 11 1",
"c c #000000",
"b c #111111",
"h c #222222",
"f c #444444",
"d c #666666",
"i c #777777",
"g c #999999",
"e c #bbbbbb",
"a c #dddddd",
"# c #eeeeee",
". c #ffffff",
"....................",
"....................",
"....................",
"....................",
"....................",
"....#a..............",
"....bcda............",
"....ccccde..........",
"....ccccccfe........",
"....ccccccccfg......",
"....cccccccccch.....",
"....cccccccccda.....",
"....ccccccbda.......",
"....ccccbi#.........",
"....cchi#...........",
"....fg..............",
"....................",
"....................",
"....................",
"...................."};
