/* XPM */
static char *boxdot[]={
"20 20 6 1",
"# c #000000",
"a c #111111",
"b c #222222",
"d c #333333",
"c c #444444",
". c #ffffff",
"....................",
"....................",
"....................",
"....................",
"....###########a....",
"....#..........#....",
"....#..........#....",
"....#..........#....",
"....#..........#....",
"....#....bc....#....",
"....#....dc....#....",
"....#..........#....",
"....#..........#....",
"....#..........#....",
"....#..........#....",
"....###########a....",
"....................",
"....................",
"....................",
"...................."};
