/* XPM */
static char *boxslash[] = {
/* width height num_colors chars_per_pixel */
"     9    10       10            1",
/* colors */
". c #ffffff s background",
"# c #000000",
"a c #dddddd",
"b c #cccccc",
"c c #aaaaaa",
"d c #888888",
"e c #777777",
"f c #555555",
"g c #333333",
"h c #222222",
/* pixels */
".........",
"ffffffffd",
"f......ef",
"f.....eaf",
"f....ea.f",
"f...ea..f",
"f..ea...f",
"f.ea....f",
"fea.....f",
"#gfffffff"
};
