/* XPM */
static char *check[] = {
/* width height num_colors chars_per_pixel */
"    20    20       49            1",
/* colors */
". c #060606",
"# c #0a0a0a",
"a c #141414",
"b c #181818",
"c c #1c1c1c",
"d c #262626",
"e c #2a2a2a",
"f c #2e2e2e",
"g c #545454",
"h c #595959",
"i c #5b5b5b",
"j c #626262",
"k c #636363",
"l c #6a6a6a",
"m c #717171",
"n c #727272",
"o c #7b7b7b",
"p c #7d7d7d",
"q c #818181",
"r c #999999",
"s c #9a9a9a",
"t c #9f9f9f",
"u c #a2a2a2",
"v c #a4a4a4",
"w c #a6a6a6",
"x c #a8a8a8",
"y c #afafaf",
"z c #b6b6b6",
"A c #b9b9b9",
"B c #bcbcbc",
"C c #bebebe",
"D c #c0c0c0",
"E c #cbcbcb",
"F c #cfcfcf",
"G c #d0d0d0",
"H c #d8d8d8",
"I c #e1e1e1",
"J c #e3e3e3",
"K c #e6e6e6",
"L c #e8e8e8",
"M c #eaeaea",
"N c #ebebeb",
"O c #f2f2f2",
"P c #f4f4f4",
"Q c #f9f9f9",
"R c #fcfcfc",
"S c #fdfdfd",
"T c #fefefe",
"U c #ffffff",
/* pixels */
"TTUTTTTTTTTTTTTTUUUU",
"TUUUTTTTTTTTTTTTUUUU",
"UTUUUTTTTTTTTTTTUUUU",
"UUUUUTTTTTTTTTTTUUUU",
"UUUUUTTTTTTTTTTTUUUU",
"TTUTTTTQkHrwTTTTUUUU",
"TTUUUTTTNguRTTTTUUUU",
"TTTTTTTTTTTTTTTTUUUU",
"TTTTTTTTsilhtTTTUUUU",
"TTUTTTTxfPTavTTTUUUU",
"TTTTTTScyTM#JTTTUUUU",
"TTTTTTE.LTzdRTTTUUUU",
"UTUUTTCeTTnjBFTTUUUU",
"TTUTUTOcKAbpmRTTUUUU",
"TTTTTTTGoxIqDTTTUUUU",
"TUUTTTTTTTTTTTTTUUUU",
"TTUUTTTTTTTTTTTTUUUU",
"TTTTTTTTTTTTTTTTUUUU",
"TUTUTTTTTTTTTTTTUUUU",
"TTUUTTTTTTTTTTTTUUUU"
};
