/* XPM */
static char *circeq[]={
"20 20 11 1",
"f c #000000",
"a c #111111",
"b c #222222",
"e c #444444",
"g c #777777",
"i c #888888",
"# c #999999",
"h c #aaaaaa",
"c c #cccccc",
"d c #dddddd",
". c #ffffff",
"....................",
"....................",
"....................",
"....................",
"....................",
"........#abc........",
"........bdce........",
"........f..a........",
"........gfbh........",
"....................",
"....................",
"....bffffffffffi....",
"....................",
"....................",
"....................",
"....affffffffffi....",
"....................",
"....................",
"....................",
"...................."};
