/* XPM */
static char *circledS[]={
"20 20 15 1",
"c c #000000",
"f c #111111",
"b c #222222",
"d c #333333",
"k c #444444",
"i c #555555",
"a c #666666",
"e c #777777",
"m c #888888",
"h c #999999",
"l c #bbbbbb",
"g c #cccccc",
"# c #dddddd",
"j c #eeeeee",
". c #ffffff",
"....................",
"....................",
"......#abccde#......",
".....efe#..gebh.....",
"....aij......jda....",
"...ek..jkce.e.jdh...",
"..#f#..ae.gec..#bj..",
"..ee...fj..lc...em..",
"..dl...cj...b...lk..",
"..c....kkmg......c..",
"..c....gifcbg....c..",
"..fj......gik...jf..",
"..ih...d...jc...ha..",
"..lk...k...gk...dl..",
"...ke..idccij..ea...",
"...jde........edj...",
"....jkbh#..gmbe.....",
"......labccde#......",
"....................",
"...................."};
