/* XPM */
static char *circlearrowright[]={
"20 20 16 1",
"l c #000000",
"m c #111111",
"k c #222222",
"e c #333333",
"f c #444444",
"i c #555555",
"j c #666666",
"d c #777777",
"b c #888888",
"g c #999999",
"h c #aaaaaa",
"n c #bbbbbb",
"a c #cccccc",
"# c #dddddd",
"c c #eeeeee",
". c #ffffff",
"....................",
"....................",
"....................",
"......#.............",
"......abc...........",
"......#def..gc......",
".....hd#g...cia.....",
"....#e.d.....cfc....",
"....jg.c......gd....",
"....k#........#k....",
"....l..........l....",
"....m.........cm....",
"....ih........hi....",
"....hj........en....",
".....fg......jj.....",
".....ceja..hfj......",
".......bellin.......",
"....................",
"....................",
"...................."};
