/* XPM */
static char *complement[]={
"20 20 12 1",
"c c #000000",
"b c #111111",
"d c #222222",
"j c #333333",
"f c #555555",
"a c #666666",
"e c #777777",
"h c #bbbbbb",
"g c #cccccc",
"i c #dddddd",
"# c #eeeeee",
". c #ffffff",
"....................",
"....................",
"....................",
"......#abcde........",
"......fce#ace.......",
"......cg...hc.......",
"......c.....c.......",
"......c....#b.......",
"......c....#i.......",
"......c.............",
"......c.............",
"......c.............",
"......c.............",
"......c....ge.......",
"......c.....c.......",
"......c.....c.......",
"......bai.gfd.......",
"......gjccbai.......",
"....................",
"...................."};
