/* XPM */
static char *cong[] = {
/* width height num_colors chars_per_pixel */
"    20    20       42            1",
/* colors */
". c #1e1e1e",
"# c #252525",
"a c #2c2c2c",
"b c #303030",
"c c #323232",
"d c #414141",
"e c #505050",
"f c #565656",
"g c #666666",
"h c #6b6b6b",
"i c #6e6e6e",
"j c #6f6f6f",
"k c #787878",
"l c #828282",
"m c #8a8a8a",
"n c #8e8e8e",
"o c #909090",
"p c #acacac",
"q c #b4b4b4",
"r c #bababa",
"s c #bdbdbd",
"t c #c0c0c0",
"u c #c4c4c4",
"v c #c6c6c6",
"w c #c8c8c8",
"x c #d3d3d3",
"y c #d6d6d6",
"z c #dbdbdb",
"A c #dfdfdf",
"B c #e0e0e0",
"C c #e2e2e2",
"D c #ebebeb",
"E c #ededed",
"F c #f0f0f0",
"G c #f1f1f1",
"H c #f7f7f7",
"I c #f8f8f8",
"J c #fbfbfb",
"K c #fcfcfc",
"L c #fdfdfd",
"M c #fefefe",
"N c #ffffff",
/* pixels */
"MMNMMMMMMMMMMMMMNNNN",
"MNNNMMMMMMMMMMMMNNNN",
"NMNNNMMMMMMMMMMMNNNN",
"NNNNNMMMMMMMMMMMNNNN",
"NNNNNMHAGMMMMMFMNNNN",
"MMNMMBc#.pMMMKiMNNNN",
"MMNNNhrMydoJMpnMNNNN",
"MMMMMgMMMFfaebEMNNNN",
"MMMMMzMMMMLwqIMMNNNN",
"MMNMMmllllllllvMNNNN",
"MMMMMuttttttttCMNNNN",
"MMMMMMMMMMMMMMMMNNNN",
"NMNNMkjjjjjjjjsMNNNN",
"MMNMNyxxxxxxxxDMNNNN",
"MMMMMMMMMMMMMMMMNNNN",
"MNNMMMMMMMMMMMMMNNNN",
"MMNNMMMMMMMMMMMMNNNN",
"MMMMMMMMMMMMMMMMNNNN",
"MNMNMMMMMMMMMMMMNNNN",
"MMNNMMMMMMMMMMMMNNNN"
};
