/* XPM */
static char *curlyeqsucc[]={
"20 20 15 1",
"e c #000000",
"# c #111111",
"m c #222222",
"d c #444444",
"b c #555555",
"h c #666666",
"i c #777777",
"k c #888888",
"j c #999999",
"c c #aaaaaa",
"l c #bbbbbb",
"f c #cccccc",
"g c #dddddd",
"a c #eeeeee",
". c #ffffff",
"....................",
"....................",
"....................",
"....................",
"......#a............",
"......bc............",
"......ada...........",
"....ef.fdg..........",
"....hi..gdhjf.......",
"....adf...fidee.....",
".....abhg...........",
".......fhdbiiik.....",
".......lhdijl.......",
".....abia...........",
".....bf.............",
"....ii..............",
"....mf..............",
"....................",
"....................",
"...................."};
