/* XPM */
static char *curlyveeuparrow[] = {
/* width height num_colors chars_per_pixel */
"    10    13       10            1",
/* colors */
". c #ffffff s background",
"# c #000000",
"a c #dddddd",
"b c #cccccc",
"c c #aaaaaa",
"d c #888888",
"e c #777777",
"f c #555555",
"g c #333333",
"h c #222222",
/* pixels */
"ecca..ccea",
"de.....cf.",
"cbd...aec.",
"b.ea..f.b.",
"..ae.bd...",
"...f.f....",
"...ccf....",
"...agd....",
"....#c....",
"....ga....",
"....f.....",
"....f.....",
"....f....."
};
