/* XPM */
static char *curvearrowleft[]={
"20 20 16 1",
"c c #000000",
"l c #111111",
"b c #222222",
"d c #333333",
"m c #444444",
"i c #555555",
"n c #666666",
"a c #777777",
"e c #888888",
"g c #999999",
"k c #aaaaaa",
"h c #bbbbbb",
"j c #cccccc",
"# c #dddddd",
"f c #eeeeee",
". c #ffffff",
"....................",
"....................",
"....................",
"....................",
"....................",
"....................",
"........#abccdef....",
".......gde#..hibj...",
"......kif......glj..",
".....fmf........eb..",
"..j..ekf#........bg.",
"..jnjika#........gi.",
"....alg..........hc.",
"....fi............b.",
"....................",
"....................",
"....................",
"....................",
"....................",
"...................."};
