/* XPM */
static char *dagger[] = {
/* width height num_colors chars_per_pixel */
"    20    20       24            1",
/* colors */
". c #1e1e1e",
"# c #2d2d2d",
"a c #383838",
"b c #4d4d4d",
"c c #656565",
"d c #696969",
"e c #7d7d7d",
"f c #858585",
"g c #8f8f8f",
"h c #949494",
"i c #a2a2a2",
"j c #a7a7a7",
"k c #afafaf",
"l c #b6b6b6",
"m c #bbbbbb",
"n c #bebebe",
"o c #cbcbcb",
"p c #cccccc",
"q c #cdcdcd",
"r c #e1e1e1",
"s c #e6e6e6",
"t c #f5f5f5",
"u c #fefefe",
"v c #ffffff",
/* pixels */
"vuvuvuuuuuuuuuuuvvvv",
"uuvuuuuuuuuuuuuuvvvv",
"vvvuvuuuuuuuuuuuvvvv",
"vvvvvuuvufluuvuuvvvv",
"vvvvvuuuuciuuuuuvvvv",
"vuvuvuuuudjuuuuuvvvv",
"uvvvuuurnhpktuuuvvvv",
"uuvvuuuh#ab.ouuuvvvv",
"vvvvvuuuuemuuuuuvvvv",
"vvvvvuuuuciuuuuuvvvv",
"uvvuvuuuuciuuuuuvvvv",
"uvvuuuuuuciuuuuuvvvv",
"vvvvvuuuuciuuuuuvvvv",
"vvvuvuuuuciuuuuuvvvv",
"vvvvvuuuuciuuuuuvvvv",
"vvvvvuuuugquuuuuvvvv",
"uuvuvuuuulsuuuuuvvvv",
"vvvvuuuuuuuuuuuuvvvv",
"vvvvvuuuuuuuuuuuvvvv",
"vvvvvuuuuuuuuuuuvvvv"
};
