/* XPM */
static char *ddag[]={
"20 20 15 1",
"k c #000000",
"# c #111111",
"h c #222222",
"e c #333333",
"b c #555555",
"m c #666666",
"g c #777777",
"d c #888888",
"f c #999999",
"j c #aaaaaa",
"i c #bbbbbb",
"c c #cccccc",
"l c #dddddd",
"a c #eeeeee",
". c #ffffff",
"....................",
"....................",
".........#a.........",
".........bc.........",
".........da.........",
".......#efghb.......",
".........f..........",
".........gi.........",
".........#..........",
".........j..........",
".........kl.........",
".........bi.........",
".........dl.........",
".......#egg#m.......",
".........fa.........",
".........gl.........",
".........h..........",
".........e..........",
"....................",
"...................."};
