/* XPM */
static char *ddagger[] = {
/* width height num_colors chars_per_pixel */
"    20    20       37            1",
/* colors */
". c #050505",
"# c #151515",
"a c #2a2a2a",
"b c #2c2c2c",
"c c #313131",
"d c #3a3a3a",
"e c #494949",
"f c #595959",
"g c #656565",
"h c #6c6c6c",
"i c #797979",
"j c #858585",
"k c #878787",
"l c #888888",
"m c #8c8c8c",
"n c #8d8d8d",
"o c #9e9e9e",
"p c #a2a2a2",
"q c #aaaaaa",
"r c #ababab",
"s c #b6b6b6",
"t c #c0c0c0",
"u c #c5c5c5",
"v c #cbcbcb",
"w c #cccccc",
"x c #d1d1d1",
"y c #d6d6d6",
"z c #d9d9d9",
"A c #e3e3e3",
"B c #e9e9e9",
"C c #ededed",
"D c #f2f2f2",
"E c #f3f3f3",
"F c #f9f9f9",
"G c #fdfdfd",
"H c #fefefe",
"I c #ffffff",
/* pixels */
"IHIHIHHHHHHHHHHHIIII",
"HHIHHHHHHHHHHHHHIIII",
"IIIHIHHHHHHHHHHHIIII",
"IIIIIHHIHjsHHIHHIIII",
"IIIIIHHHHgpHHHHHIIII",
"IHIHIHHFDluCHHHHIIII",
"HIIIHHHk#ad.uHHHIIII",
"HHIIHHHEAnvzGHHHIIII",
"IIIIIHHHHgpHHHHHIIII",
"IIIIIHHHHhqHHHHHIIII",
"HIIHIHHHHhqHHHHHIIII",
"HIIHHHHHHgpHHHHHIIII",
"IIIIIHHBymtyEHHHIIII",
"IIIHIHHocefbxHHHIIII",
"IIIIIHHHHisHHHHHIIII",
"IIIIIHHHHgpHHHHHIIII",
"HHIHIHHHHrwHHHHHIIII",
"IIIIHHHHHHHHHHHHIIII",
"IIIIIHHHHHHHHHHHIIII",
"IIIIIHHHHHHHHHHHIIII"
};
