/* XPM */
static char *ddot[] = {
/* width height num_colors chars_per_pixel */
"    20    20       51            1",
/* colors */
". c #020202",
"# c #040404",
"a c #070707",
"b c #0b0b0b",
"c c #171717",
"d c #181818",
"e c #222222",
"f c #252525",
"g c #2e2e2e",
"h c #303030",
"i c #444444",
"j c #484848",
"k c #555555",
"l c #5f5f5f",
"m c #666666",
"n c #676767",
"o c #696969",
"p c #737373",
"q c #7b7b7b",
"r c #7c7c7c",
"s c #8b8b8b",
"t c #8c8c8c",
"u c #a6a6a6",
"v c #a8a8a8",
"w c #b0b0b0",
"x c #b3b3b3",
"y c #b4b4b4",
"z c #b7b7b7",
"A c #bdbdbd",
"B c #bebebe",
"C c #c0c0c0",
"D c #c1c1c1",
"E c #cacaca",
"F c #d3d3d3",
"G c #d6d6d6",
"H c #e0e0e0",
"I c #e4e4e4",
"J c #e5e5e5",
"K c #ededed",
"L c #efefef",
"M c #f0f0f0",
"N c #f1f1f1",
"O c #f3f3f3",
"P c #f4f4f4",
"Q c #f6f6f6",
"R c #f7f7f7",
"S c #fafafa",
"T c #fbfbfb",
"U c #fdfdfd",
"V c #fefefe",
"W c #ffffff",
/* pixels */
"WWWWWWWWWWWWWWWWVVVV",
"WWVWWWWWWWWWWWWWVVVV",
"WWWWWWWWWWWWWWWWVVVV",
"WWWWWWWWWWWWWWWWVVVV",
"WWWWWWWWMVSOWWWWVVVV",
"WWVVWWWG.EtcWWWWVVVV",
"WWVWWWWQyUNzWWWWVVVV",
"WVWWWWWWWWWWWWWWVVVV",
"WWWVWWWWIrqxCWWWVVVV",
"WWVWWWWIgDPenWWWVVVV",
"WWVWWWWlnWVhuWWWVVVV",
"VWVWWWKbAWL#HWWWVVVV",
"WWVWWWFaPWwfRFWWVVVV",
"WWVWVWJdQWjkvBWWVVVV",
"WWWWWWWsomsipTWWVVVV",
"WVVWWWWWOSWQTWWWVVVV",
"VVVVVWWWWWWWWWWWVVVV",
"WWWVWWWWWWWWWWWWVVVV",
"WWWVVWWWWWWWWWWWVVVV",
"WWWWWWWWWWWWWWWWVVVV"
};
