/* XPM */
static char *delta[] = {
/* width height num_colors chars_per_pixel */
"    20    20       45            1",
/* colors */
". c #000000",
"# c #060606",
"a c #080808",
"b c #0a0a0a",
"c c #121212",
"d c #1f1f1f",
"e c #232323",
"f c #2c2c2c",
"g c #464646",
"h c #494949",
"i c #505050",
"j c #525252",
"k c #565656",
"l c #5b5b5b",
"m c #626262",
"n c #666666",
"o c #787878",
"p c #7c7c7c",
"q c #7d7d7d",
"r c #868686",
"s c #898989",
"t c #8a8a8a",
"u c #8b8b8b",
"v c #8d8d8d",
"w c #919191",
"x c #9f9f9f",
"y c #b7b7b7",
"z c #b9b9b9",
"A c #c3c3c3",
"B c #cdcdcd",
"C c #cfcfcf",
"D c #d1d1d1",
"E c #d7d7d7",
"F c #eaeaea",
"G c #eeeeee",
"H c #f1f1f1",
"I c #f2f2f2",
"J c #f6f6f6",
"K c #f7f7f7",
"L c #f9f9f9",
"M c #fbfbfb",
"N c #fcfcfc",
"O c #fdfdfd",
"P c #fefefe",
"Q c #ffffff",
/* pixels */
"QPQPQPPPPPPPPPPPQQQQ",
"PPQPPPPPPPPPPPPPQQQQ",
"QQQPQPPPPPPPPPPPQQQQ",
"QQQQQPPQPPPPPQPPQQQQ",
"QQQQQPPPPEkjwPPPQQQQ",
"QPQPQPPPPlLAuPPPQQQQ",
"PQQQPPPPPiDPPPPPQQQQ",
"PPQQPPPPPxgNPPPPQQQQ",
"QQQQQPPPNt#sPPPPQQQQ",
"QQQQQPPIhwqcKPPPQQQQ",
"PQQPQPPrmPC.IPPPQQQQ",
"PQQPPPOeyPFbIPPPQQQQ",
"QQQQQPMaGPBfOPPPQQQQ",
"QQQPQPOdFPnvPPPPQQQQ",
"QQQQQPPzlopOPPPPQQQQ",
"QQQQQPPPJHPPPPPPQQQQ",
"PPQPQPPPPPPPPPPPQQQQ",
"QQQQPPPPPPPPPPPPQQQQ",
"QQQQQPPPPPPPPPPPQQQQ",
"QQQQQPPPPPPPPPPPQQQQ"
};
