/* XPM */
static char *diagdown[]={
"20 20 7 1",
"# c #444444",
"c c #555555",
"d c #666666",
"e c #999999",
"a c #cccccc",
"b c #eeeeee",
". c #ffffff",
"....................",
"....................",
"....................",
"..#a................",
"..b#a...............",
"...b#b..............",
"....bcb.............",
".....a#b............",
"......a#b...........",
".......a#b..........",
"........a#b.........",
".........a#b........",
"..........a#b.......",
"...........ad.......",
"............ed......",
".............ed.....",
"..............ed....",
"...............ed...",
"....................",
"...................."};
