/* XPM */
static char *div[] = {
/* width height num_colors chars_per_pixel */
"    20    20       20            1",
/* colors */
". c #060606",
"# c #232323",
"a c #323232",
"b c #3c3c3c",
"c c #4c4c4c",
"d c #6a6a6a",
"e c #a0a0a0",
"f c #a6a6a6",
"g c #b5b5b5",
"h c #bdbdbd",
"i c #c9c9c9",
"j c #cccccc",
"k c #dcdcdc",
"l c #ededed",
"m c #efefef",
"n c #f0f0f0",
"o c #f3f3f3",
"p c #f6f6f6",
"q c #fefefe",
"r c #ffffff",
/* pixels */
"rqrqrqqqqqqqqqqqrrrr",
"qqrqqqqqqqqqqqqqrrrr",
"rrrqrqqqqqqqqqqqrrrr",
"rrrrrqqrqqqqqrqqrrrr",
"rrrrrqqqqqqqqqqqrrrr",
"rqrqrqqqqikqqqqqrrrr",
"qrrrqqqql.aqqqqqrrrr",
"qqrrqqqqpbdqqqqqrrrr",
"rrrrrqqqqqqqqqqqrrrr",
"rrrrrfeeeeeeeehqrrrr",
"qrrqrgeeeeeeeejqrrrr",
"qrrqqqqqqqqqqqqqrrrr",
"rrrrrqqqn#cqqqqqrrrr",
"rrrqrqqql.aqqqqqrrrr",
"rrrrrqqqqmoqqqqqrrrr",
"rrrrrqqqqqqqqqqqrrrr",
"qqrqrqqqqqqqqqqqrrrr",
"rrrrqqqqqqqqqqqqrrrr",
"rrrrrqqqqqqqqqqqrrrr",
"rrrrrqqqqqqqqqqqrrrr"
};
