/* XPM */
static char *dot[] = {
/* width height num_colors chars_per_pixel */
"    20    20       42            1",
/* colors */
". c #010101",
"# c #0d0d0d",
"a c #121212",
"b c #151515",
"c c #1f1f1f",
"d c #2a2a2a",
"e c #2d2d2d",
"f c #333333",
"g c #494949",
"h c #515151",
"i c #686868",
"j c #6d6d6d",
"k c #707070",
"l c #787878",
"m c #7f7f7f",
"n c #808080",
"o c #818181",
"p c #8d8d8d",
"q c #8f8f8f",
"r c #b2b2b2",
"s c #bebebe",
"t c #cbcbcb",
"u c #cccccc",
"v c #cdcdcd",
"w c #cecece",
"x c #d4d4d4",
"y c #d7d7d7",
"z c #d9d9d9",
"A c #dadada",
"B c #e3e3e3",
"C c #e4e4e4",
"D c #e6e6e6",
"E c #e7e7e7",
"F c #f1f1f1",
"G c #f3f3f3",
"H c #f5f5f5",
"I c #f6f6f6",
"J c #f9f9f9",
"K c #fbfbfb",
"L c #fdfdfd",
"M c #fefefe",
"N c #ffffff",
/* pixels */
"NMNMNMMMMMMMMMMMNNNN",
"MMNMMMMMMMMMMMMMNNNN",
"NNNMNMMMMMMMMMMMNNNN",
"NNNNNMMNMMMMMNMMNNNN",
"NNNNNMMMMHJMMLMMNNNN",
"NMNMNMMMLfkLLLLMNNNN",
"MNNNMMMLLruLLLLMNNNN",
"MMNNMMMMMMMMLLMMNNNN",
"NNNNNMMMAlmrwMMMNNNN",
"NNNNNMMzdxD#pMMMNNNN",
"MNNMNMMgnMJatMMMNNNN",
"MNNMMMB.xMvaIMMMNNNN",
"NNNNNMsbLMqgECMMNNNN",
"NNNMNMycMJeloDMMNNNN",
"NNNNNMMljiohoLMMNNNN",
"NNNNNMMLFKMGLMMMNNNN",
"MMNMNMMMMMMMMMMMNNNN",
"NNNNMMMMMMMMMMMMNNNN",
"NNNNNMMMMMMMMMMMNNNN",
"NNNNNMMMMMMMMMMMNNNN"
};
