/* XPM */
static char *downharpoonright[]={
"20 20 8 1",
"a c #000000",
"# c #111111",
"e c #222222",
"c c #888888",
"b c #aaaaaa",
"d c #bbbbbb",
"f c #eeeeee",
". c #ffffff",
"....................",
"....................",
"....................",
"........#...........",
"........a...........",
"........a...........",
"........a...........",
"........a...........",
"........a...........",
"........a...........",
"........a...........",
"........a...........",
"........a...........",
"........a...........",
"........a...........",
"........a.bb........",
"........acd.........",
"........ef..........",
"....................",
"...................."};
