/* XPM */
static char *downdownarrows[]={
"20 20 12 1",
"a c #000000",
"# c #111111",
"j c #222222",
"d c #777777",
"e c #888888",
"c c #999999",
"g c #aaaaaa",
"b c #bbbbbb",
"h c #cccccc",
"f c #dddddd",
"i c #eeeeee",
". c #ffffff",
"....................",
"....................",
"....................",
".......#.....#......",
".......a.....a......",
".......a.....a......",
".......a.....a......",
".......a.....a......",
".......a.....a......",
".......a.....a......",
".......a.....a......",
".......a.....a......",
".......a.....a......",
".......a.....a......",
".......a.....a......",
"....bb.a.cdb.a.e....",
".....bdaef.gcahi....",
"......hji...hd......",
"....................",
"...................."};
