/* XPM */
static char *ell[] = {
/* width height num_colors chars_per_pixel */
"    20    20       42            1",
/* colors */
". c #101010",
"# c #121212",
"a c #313131",
"b c #3d3d3d",
"c c #444444",
"d c #484848",
"e c #4f4f4f",
"f c #555555",
"g c #575757",
"h c #606060",
"i c #646464",
"j c #6b6b6b",
"k c #717171",
"l c #818181",
"m c #848484",
"n c #888888",
"o c #909090",
"p c #919191",
"q c #959595",
"r c #989898",
"s c #a1a1a1",
"t c #a3a3a3",
"u c #afafaf",
"v c #c3c3c3",
"w c #c6c6c6",
"x c #c7c7c7",
"y c #cacaca",
"z c #cccccc",
"A c #d3d3d3",
"B c #d4d4d4",
"C c #d5d5d5",
"D c #d7d7d7",
"E c #d8d8d8",
"F c #e2e2e2",
"G c #eeeeee",
"H c #f1f1f1",
"I c #f5f5f5",
"J c #fbfbfb",
"K c #fcfcfc",
"L c #fdfdfd",
"M c #fefefe",
"N c #ffffff",
/* pixels */
"NMNMNMMMMMMMMMMMNNNN",
"MMNMMMMMMMMMMMMMNNNN",
"NNNMNMMMMMMMMMMMNNNN",
"NNNNNMMNMMMMMNMMNNNN",
"NNNNNMMMMMGlvMMMNNNN",
"NMNMNMMMMKeCmMMMNNNN",
"MNNNMMMMMrhFpMMMNNNN",
"MMNNMMMMKbxtyMMMNNNN",
"NNNNNMMMA#GjLMMMNNNN",
"NNNNNMMMqcnzMMMMNNNN",
"MNNMNMMMgdoMMMMMNNNN",
"MNNMMMMMaiJMMMMMNNNN",
"NNNNNMMB.DMMMMMMNNNN",
"NNNMNMMrfzMuEMMMNNNN",
"NNNNNMMMweksMMMMNNNN",
"NNNNNMMMMHIMMMMMNNNN",
"MMNMNMMMMMMMMMMMNNNN",
"NNNNMMMMMMMMMMMMNNNN",
"NNNNNMMMMMMMMMMMNNNN",
"NNNNNMMMMMMMMMMMNNNN"
};
