/* XPM */
static char *eqcirc[]={
"20 20 9 1",
"a c #000000",
"f c #111111",
"# c #222222",
"c c #666666",
"e c #777777",
"b c #888888",
"d c #bbbbbb",
"g c #eeeeee",
". c #ffffff",
"....................",
"....................",
"....................",
"....................",
"....................",
"....................",
"....................",
"....................",
"....#aaaaaaaaaab....",
"........c.de........",
"........f..a........",
"........c.gc........",
"....faaaaaaaaaab....",
"....................",
"....................",
"....................",
"....................",
"....................",
"....................",
"...................."};
