/* XPM */
static char *eqslantless[]={
"20 20 14 1",
"j c #111111",
"k c #333333",
"d c #444444",
"b c #555555",
"c c #666666",
"a c #777777",
"l c #888888",
"i c #999999",
"g c #aaaaaa",
"e c #bbbbbb",
"f c #cccccc",
"# c #dddddd",
"h c #eeeeee",
". c #ffffff",
"....................",
"....................",
"....................",
"............#ab.....",
"..........#cde......",
"........#ccf........",
"......edc#...#c.....",
"....gba#...ebc#.....",
"....eh...ebc#.......",
".......ibah.........",
".....idah...........",
"....cje.............",
".....#abe...........",
".......haki.........",
"..........idi.......",
"............ida.....",
"..............l.....",
"....................",
"....................",
"...................."};
