/* XPM */
static char *eqslantgtr[]={
"20 20 13 1",
"k c #222222",
"e c #333333",
"d c #444444",
"a c #555555",
"i c #666666",
"# c #777777",
"b c #999999",
"g c #aaaaaa",
"f c #bbbbbb",
"h c #cccccc",
"j c #dddddd",
"c c #eeeeee",
". c #ffffff",
"....................",
"....................",
"....................",
"....#ab.............",
".....c#db...........",
"........bdbc........",
"....#b....bd#c......",
".....be#c...fa#.....",
".......ga#c...h.....",
".........faij.......",
"...........hiij.....",
"............cik.....",
"..........c#ab......",
"........jiaf........",
"......jiif..........",
"....faij............",
"....dj..............",
"....................",
"....................",
"...................."};
