/* XPM */
static char *eta[] = {
/* width height num_colors chars_per_pixel */
"    20    20       46            1",
/* colors */
". c #070707",
"# c #080808",
"a c #0c0c0c",
"b c #0d0d0d",
"c c #141414",
"d c #202020",
"e c #2c2c2c",
"f c #363636",
"g c #3b3b3b",
"h c #484848",
"i c #4a4a4a",
"j c #515151",
"k c #5a5a5a",
"l c #5c5c5c",
"m c #606060",
"n c #696969",
"o c #6a6a6a",
"p c #747474",
"q c #777777",
"r c #797979",
"s c #7f7f7f",
"t c #818181",
"u c #898989",
"v c #8f8f8f",
"w c #9b9b9b",
"x c #9e9e9e",
"y c #aeaeae",
"z c #b6b6b6",
"A c #b7b7b7",
"B c #bebebe",
"C c #c6c6c6",
"D c #cbcbcb",
"E c #cdcdcd",
"F c #d4d4d4",
"G c #d8d8d8",
"H c #dcdcdc",
"I c #e2e2e2",
"J c #e5e5e5",
"K c #e7e7e7",
"L c #eeeeee",
"M c #efefef",
"N c #f7f7f7",
"O c #f9f9f9",
"P c #fdfdfd",
"Q c #fefefe",
"R c #ffffff",
/* pixels */
"RQRQRQQQQQQQQQQQRRRR",
"QQRQQQQQQQQQQQQQRRRR",
"RRRQRQQQQQQQQQQQRRRR",
"RRRRRQQRQQQQQRQQRRRR",
"RRRRRQQQQQQQQQQQRRRR",
"RQRQRQQqhCtplOQQRRRR",
"QRRRQQGwkfKQaBQQRRRR",
"QQRRQQzFdyQL#IQQRRRR",
"RRRRRQQH.JQAcPQQRRRR",
"RRRRRQQxeQQrjQQQRRRR",
"QRRQRQQmoQQgvQQQRRRR",
"QRRQQQQnDQMbEQQQRRRR",
"RRRRRQQQQQBcNQQQRRRR",
"RRRQRQQQQQsiQQQQRRRR",
"RRRRRQQQQQuzQQQQRRRR",
"RRRRRQQQQQQQQQQQRRRR",
"QQRQRQQQQQQQQQQQRRRR",
"RRRRQQQQQQQQQQQQRRRR",
"RRRRRQQQQQQQQQQQRRRR",
"RRRRRQQQQQQQQQQQRRRR"
};
