/* XPM */
static char *fatbslash[] = {
/* width height num_colors chars_per_pixel */
"    9     13       11            1",
/* colors */
". c #ffffff s background",
"# c #000000",
"a c #dddddd",
"b c #cccccc",
"c c #aaaaaa",
"d c #888888",
"e c #777777",
"f c #555555",
"g c #444444",
"h c #333333",
"i c #222222",
/* pixels */
"bfiif....",
".f..ea...",
".ea.bd...",
".bd..f...",
"..f..ea..",
"..ea.bd..",
"..bd..f..",
"...f..ea.",
"...db.bd.",
"...ae..f.",
"....f..ea",
"....db.bd",
"....afiih",
};
