/* XPM */
static char *Finv[]={
"20 20 4 1",
"a c #000000",
"# c #111111",
"b c #bbbbbb",
". c #ffffff",
"....................",
"....................",
"....................",
"....................",
".............#......",
".............a......",
".............a......",
".............a......",
".............a......",
"........baaaaa......",
".............a......",
".............a......",
".............a......",
".............a......",
".............a......",
"......#aaaaaa#......",
"....................",
"....................",
"....................",
"...................."};
