/* XPM */
static char *frac[] = {
/* width height num_colors chars_per_pixel */
"    20    20       55            1",
/* colors */
". c #272727",
"# c #2d2d2d",
"a c #2e2e2e",
"b c #373737",
"c c #393939",
"d c #3a3a3a",
"e c #3d3d3d",
"f c #464646",
"g c #5e5e5e",
"h c #616161",
"i c #636363",
"j c #656565",
"k c #686868",
"l c #717171",
"m c #727272",
"n c #737373",
"o c #757575",
"p c #777777",
"q c #7c7c7c",
"r c #838383",
"s c #8f8f8f",
"t c #939393",
"u c #9c9c9c",
"v c #9d9d9d",
"w c #a1a1a1",
"x c #a2a2a2",
"y c #a3a3a3",
"z c #a6a6a6",
"A c #aaaaaa",
"B c #acacac",
"C c #b2b2b2",
"D c #b3b3b3",
"E c #b6b6b6",
"F c #b8b8b8",
"G c #b9b9b9",
"H c #bababa",
"I c #bbbbbb",
"J c #c8c8c8",
"K c #cbcbcb",
"L c #cecece",
"M c #dddddd",
"N c #dfdfdf",
"O c #e0e0e0",
"P c #e3e3e3",
"Q c #e8e8e8",
"R c #ebebeb",
"S c #ececec",
"T c #f6f6f6",
"U c #f9f9f9",
"V c #fafafa",
"W c #fbfbfb",
"X c #fcfcfc",
"Y c #fdfdfd",
"Z c #fefefe",
"0 c #ffffff",
/* pixels */
"0Z0Z0ZZZZZZZZZZZ0000",
"ZZ0ZZZZZZXXZZZZZ0000",
"000Z0ZZZGkmoZZZZ0000",
"00000ZZP#TzlZ0ZZ0000",
"00000ZZtjZkBVZZZ0000",
"0Z0Z0ZZqsW.yJZZZ0000",
"Z000ZZZMgrhhUZZZ0000",
"ZZ00ZZZZZZZZZZZZ0000",
"00000ZZLyxxyFZZZ0000",
"00000ZZKuvvuCZZZ0000",
"Z00Z0ZZYEiRYYZZZ0000",
"Z00ZZZYYVaSYYZZZ0000",
"00000ZYYNbOYZYZZ0000",
"000Z0ZYYwctnYYZZ0000",
"00000ZZYiDSeYYZZ0000",
"00000ZZZdQIeYZZZ0000",
"ZZ0Z0ZZZfZhzZZZZ0000",
"0000ZZZZHpAZZZZZ0000",
"00000ZZZZZZZZZZZ0000",
"00000ZZZZZZZZZZZ0000"
};
