/* XPM */
static char *Game[]={
"20 20 15 1",
"b c #000000",
"f c #111111",
"c c #222222",
"i c #333333",
"j c #444444",
"l c #555555",
"a c #666666",
"# c #777777",
"m c #888888",
"h c #999999",
"k c #aaaaaa",
"g c #cccccc",
"e c #dddddd",
"d c #eeeeee",
". c #ffffff",
"....................",
"....................",
"....................",
"....................",
".....#abbc#d........",
".....d...e#fg.......",
"...........hfd......",
"............a#......",
"............gi......",
".............b......",
".....bbbg....b......",
".....b......ec......",
".....b......h#......",
".....b......je......",
".....b.....ah.......",
".....fhe.klh........",
".....mcbfae.........",
"....................",
"....................",
"...................."};
