/* XPM */
static char *geqq[]={
"20 20 14 1",
"k c #000000",
"l c #111111",
"a c #333333",
"c c #444444",
"f c #555555",
"i c #666666",
"# c #777777",
"b c #999999",
"g c #aaaaaa",
"e c #bbbbbb",
"j c #cccccc",
"h c #dddddd",
"d c #eeeeee",
". c #ffffff",
"....................",
"....................",
"....#ab.............",
"......bcb...........",
"........ba#d........",
"..........ef#d......",
"............ec#.....",
"............bcb.....",
".........d#ab.......",
".......d#fg.........",
".....hife...........",
"....#ij.............",
"....................",
"....................",
"....akkkkkkkkkl.....",
"....................",
"....................",
"....akkkkkkkkkl.....",
"....................",
"...................."};
