/* XPM */
static char *gg[] = {
/* width height num_colors chars_per_pixel */
"    20    20       66            2",
/* colors */
".. c #2e2e2e",
".# c #2f2f2f",
".a c #303030",
".b c #313131",
".c c #353535",
".d c #393939",
".e c #3a3a3a",
".f c #3b3b3b",
".g c #3f3f3f",
".h c #424242",
".i c #454545",
".j c #474747",
".k c #484848",
".l c #4b4b4b",
".m c #525252",
".n c #545454",
".o c #585858",
".p c #5e5e5e",
".q c #626262",
".r c #636363",
".s c #6d6d6d",
".t c #6e6e6e",
".u c #727272",
".v c #787878",
".w c #7c7c7c",
".x c #808080",
".y c #818181",
".z c #828282",
".A c #898989",
".B c #9a9a9a",
".C c #9b9b9b",
".D c #a2a2a2",
".E c #a4a4a4",
".F c #a8a8a8",
".G c #aaaaaa",
".H c #ababab",
".I c #acacac",
".J c #b4b4b4",
".K c #b5b5b5",
".L c #bcbcbc",
".M c #cacaca",
".N c #cdcdcd",
".O c #d1d1d1",
".P c #d5d5d5",
".Q c #dbdbdb",
".R c #dddddd",
".S c #e0e0e0",
".T c #e3e3e3",
".U c #e7e7e7",
".V c #e8e8e8",
".W c #e9e9e9",
".X c #eaeaea",
".Y c #ebebeb",
".Z c #ededed",
".0 c #f0f0f0",
".1 c #f1f1f1",
".2 c #f3f3f3",
".3 c #f6f6f6",
".4 c #f7f7f7",
".5 c #f9f9f9",
".6 c #fafafa",
".7 c #fbfbfb",
".8 c #fcfcfc",
".9 c #fdfdfd",
"#. c #fefefe",
"## c #ffffff",
/* pixels */
"#########.#.#.#.#.#.#.#.#.#.#.#.#.###.#.",
"#########.#.#.#.#.#.#.#.#.#.#.#.#######.",
"#########.#.#.#.#.#.#.#.#.#.#.#######.##",
"#########.#.#.#.#.#.#.#.#.#.#.##########",
"########.4#.#.#..4#.#.#.#.#.#.##########",
"######.Z.c.J#.#..r.x.1#.#.#.#.#.#.###.#.",
"########.T.t.j.O.3.C.a.G.8#.#.#######.#.",
"#########.#..N.i.s.Y.W.v.g.M#.#.#.#.#.#.",
"#########.#.#..7.I...B.6.P.l.q.U#.#.#.#.",
"#########.#.#.#.#..2.A.b.Q.9.K.#.F###.#.",
"#########.#.#.#.#..L.e.A.8.V.o.n.U#.#.#.",
"#########.#.#..S.m.p.X.5.w.f.M#.#.#.#.#.",
"#########..3.u.h.O.8.H.d.B#.#.#.#####.##",
"######.7.D.e.E#..O.k.u.0#.#.#.###.###.#.",
"######.U.z.2#.#..y.R#.#.#.#.#.#.#.#.#.#.",
"#########.#.#.#.#.#.#.#.#.#.#.#.#.#####.",
"#########.#.#.#.#.#.#.#.#.#.#.#.#####.#.",
"#########.#.#.#.#.#.#.#.#.#.#.#.#.#.#.#.",
"#########.#.#.#.#.#.#.#.#.#.#.#.###.###.",
"#########.#.#.#.#.#.#.#.#.#.#.#.#####.#."
};
