/* XPM */
static char *ggg[]={
"24 20 14 1",
"k c #111111",
"# c #333333",
"f c #444444",
"h c #555555",
"i c #666666",
"c c #777777",
"b c #888888",
"j c #999999",
"l c #aaaaaa",
"a c #bbbbbb",
"g c #cccccc",
"e c #dddddd",
"d c #eeeeee",
". c #ffffff",
"........................",
"........................",
"........................",
"........................",
"........................",
"..#a...bcd..efg.........",
"..dcha..afc..eiie.......",
"....dchg..jfj..eiie.....",
"......eiie..jfj..ahcd...",
"........eiie.dcha..ahcd.",
"..........gkg..dhc...lk.",
".........jfj..efcd.dcha.",
".......a#j..eiie..bfa...",
".....ahcd.diie..jfj.....",
"...ahcd.dcha..jfj.......",
"..iid..lha..ehcd........",
"........................",
"........................",
"........................",
"........................"};
