/* XPM */
static char *gimel[]={
"20 20 12 1",
"c c #000000",
"a c #222222",
"h c #333333",
"g c #444444",
"i c #555555",
"f c #666666",
"# c #777777",
"d c #888888",
"j c #aaaaaa",
"e c #bbbbbb",
"b c #eeeeee",
". c #ffffff",
"....................",
"....................",
".......#............",
".......ab...........",
".......ccccca.......",
".......#ccccd.......",
"...........ce.......",
"...........ce.......",
"...........ce.......",
"...........cd.......",
"...........c#.......",
"...........c#.......",
"...........cf.......",
"...........cg.......",
"......bhccccg.......",
"......icccchg.......",
"..........bej.......",
"....................",
"....................",
"...................."};
