/* XPM */
static char *gnapprox[]={
"20 20 85 2",
"#l c #232323",
"#h c #272727",
".X c #2d2d2d",
".e c #303030",
".S c #333333",
"## c #3c3c3c",
".1 c #444444",
"#k c #464646",
".9 c #484848",
".W c #505050",
".8 c #565656",
".f c #585858",
"#g c #616161",
"#a c #646464",
"#d c #676767",
".R c #686868",
".2 c #6b6b6b",
".N c #6c6c6c",
".3 c #6d6d6d",
"#b c #707070",
"#f c #717171",
"#m c #727272",
".Q c #767676",
"#s c #787878",
".7 c #7d7d7d",
".O c #808080",
".q c #848484",
".P c #868686",
".0 c #8e8e8e",
".V c #8f8f8f",
"#p c #919191",
".k c #999999",
".# c #9b9b9b",
".H c #9d9d9d",
".u c #9e9e9e",
"#o c #a2a2a2",
".z c #a4a4a4",
"#j c #aaaaaa",
".p c #acacac",
".D c #afafaf",
".w c #b3b3b3",
".T c #b4b4b4",
".L c #b5b5b5",
".6 c #b7b7b7",
".J c #b8b8b8",
".y c #bababa",
".C c #bebebe",
".E c #c0c0c0",
".r c #c6c6c6",
".4 c #c7c7c7",
".5 c #cacaca",
".t c #cbcbcb",
".v c #cecece",
"#c c #cfcfcf",
".d c #d0d0d0",
".g c #d1d1d1",
".Y c #d2d2d2",
".I c #d8d8d8",
".G c #dadada",
".j c #e1e1e1",
".Z c #e2e2e2",
"#e c #e3e3e3",
".l c #e4e4e4",
".B c #e5e5e5",
".a c #e6e6e6",
"#r c #e7e7e7",
".A c #e8e8e8",
".U c #e9e9e9",
"#n c #eaeaea",
".m c #ebebeb",
"#i c #ececec",
".K c #ededed",
".h c #eeeeee",
".o c #f1f1f1",
".s c #f2f2f2",
".x c #f3f3f3",
".F c #f4f4f4",
".i c #f5f5f5",
".M c #f6f6f6",
".b c #f7f7f7",
"#q c #f8f8f8",
".n c #fafafa",
"#. c #fbfbfb",
".c c #fdfdfd",
"Qt c #ffffff",
"QtQtQtQt.#.a.b.cQtQtQtQtQtQtQtQtQtQtQtQt",
"QtQtQtQt.d.e.f.g.h.iQtQtQtQtQtQtQtQtQtQt",
"QtQtQtQtQtQt.j.f.e.k.l.m.nQtQtQtQtQtQtQt",
"QtQtQtQtQtQtQtQt.o.p.e.q.r.j.sQtQtQtQtQt",
"QtQtQtQtQtQtQtQtQtQtQt.t.f.e.u.hQtQtQtQt",
"QtQtQtQtQtQtQtQtQtQt.j.v.w.f.f.vQtQtQtQt",
"QtQtQtQtQtQtQt.x.g.y.k.e.z.AQtQtQtQtQtQt",
"QtQtQtQtQt.B.C.D.f.e.E.FQtQtQtQtQtQtQtQt",
"QtQtQtQt.G.H.e.f.IQtQtQtQtQtQtQtQtQtQtQt",
"QtQtQtQt.f.J.KQtQtQtQt.L.hQtQtQtQtQtQtQt",
"QtQtQtQtQtQtQtQtQtQt.M.e.hQtQtQtQtQtQtQt",
"QtQtQtQt.i.H.N.e.O.y.w.PQtQt.i.QQtQtQtQt",
"QtQtQtQt.q.e.u.u.Q.R.S.TQt.U.V.WQtQtQtQt",
"QtQtQtQt.X.YQtQt.Z.0.1.2.e.e.N.YQtQtQtQt",
"QtQtQtQt.EQtQtQtQt.3.4.5.6.E.IQtQtQtQtQt",
"QtQtQtQt.s.7.e.e.8.9#.QtQtQt.s##QtQtQtQt",
"QtQtQtQt#a#b#c#c#d.e#d.4Qt#e#f#gQtQtQtQt",
"QtQtQtQt#h#iQtQt.e.B#j#k#l###m#iQtQtQtQt",
"QtQtQtQt#nQtQt#o#pQt#q#i#r#n.sQtQtQtQtQt",
"QtQtQtQtQtQtQt#s.nQtQtQtQtQtQtQtQtQtQtQt"};
