/* XPM */
static char *gnsim[]={
"20 20 14 1",
"i c #000000",
"j c #111111",
"k c #222222",
"h c #333333",
"c c #555555",
"e c #666666",
"# c #777777",
"l c #999999",
"b c #aaaaaa",
"d c #bbbbbb",
"g c #cccccc",
"f c #dddddd",
"a c #eeeeee",
". c #ffffff",
"....................",
"....##a.............",
".....bc#a...........",
".......dcef.........",
".........geef.......",
"...........fecd.....",
"............aehd....",
"..........fecd......",
"........feed........",
"......deef..........",
"....gc#f............",
"....fa.....f........",
"...........ca.......",
"..........b#........",
".....#ij#aha...k....",
"....#caa#jl...dh....",
"....kf..ahhb.dhb....",
"....k...#dfcikb.....",
".......fc...........",
".......#g..........."};
