/* XPM */
static char *gtrapprox[]={
"20 20 90 2",
"#t c #171717",
"#p c #252525",
".5 c #2c2c2c",
"#f c #2f2f2f",
"#u c #333333",
"#i c #3d3d3d",
"#s c #3f3f3f",
".9 c #484848",
"#k c #505050",
"#. c #525252",
".4 c #555555",
"#g c #595959",
"#j c #5b5b5b",
".z c #5c5c5c",
"#l c #5e5e5e",
".W c #606060",
"#o c #696969",
"#n c #6a6a6a",
".Z c #6b6b6b",
".1 c #6c6c6c",
".g c #6d6d6d",
"## c #707070",
".t c #717171",
".m c #727272",
"#e c #747474",
".h c #777777",
".0 c #7c7c7c",
".X c #808080",
".3 c #818181",
".E c #828282",
".l c #838383",
".u c #878787",
".O c #8b8b8b",
".H c #8f8f8f",
".N c #949494",
".V c #959595",
".S c #969696",
".n c #999999",
".R c #9a9a9a",
".b c #9e9e9e",
".M c #a9a9a9",
".2 c #aaaaaa",
".I c #ababab",
"#h c #acacac",
".D c #afafaf",
"#r c #b0b0b0",
".s c #b1b1b1",
".L c #b5b5b5",
".T c #bebebe",
".Y c #bfbfbf",
".v c #c0c0c0",
"#c c #c3c3c3",
"#m c #c4c4c4",
".P c #c5c5c5",
".C c #c6c6c6",
".G c #cbcbcb",
".i c #cccccc",
".y c #cecece",
".8 c #cfcfcf",
".F c #d1d1d1",
".f c #d3d3d3",
"#b c #d7d7d7",
".6 c #d8d8d8",
".w c #dadada",
".o c #dbdbdb",
".B c #dcdcdc",
".c c #dfdfdf",
".K c #e1e1e1",
".k c #e3e3e3",
".p c #e5e5e5",
".j c #e6e6e6",
".7 c #e7e7e7",
".J c #eaeaea",
".A c #ebebeb",
".x c #eeeeee",
"#a c #efefef",
".d c #f0f0f0",
"#d c #f1f1f1",
".r c #f2f2f2",
".U c #f4f4f4",
".Q c #f5f5f5",
"#w c #f6f6f6",
"#q c #f7f7f7",
".q c #f8f8f8",
"#x c #f9f9f9",
".# c #fafafa",
".e c #fbfbfb",
"#v c #fcfcfc",
".a c #fefefe",
"Qt c #ffffff",
"QtQtQtQt.#.aQtQtQtQtQtQtQtQtQtQtQtQtQtQt",
"QtQtQtQt.b.c.d.eQtQtQtQtQtQtQtQtQtQtQtQt",
"QtQtQtQt.f.g.h.i.j.dQtQtQtQtQtQtQtQtQtQt",
"QtQtQtQtQtQt.k.l.m.n.o.p.qQtQtQtQtQtQtQt",
"QtQtQtQtQtQtQtQt.r.s.t.u.v.w.xQtQtQtQtQt",
"QtQtQtQtQtQtQtQtQtQtQt.y.l.z.n.AQtQtQtQt",
"QtQtQtQtQtQtQtQtQtQt.B.C.D.h.E.FQtQtQtQt",
"QtQtQtQtQtQtQt.r.G.s.n.H.I.JQtQtQtQtQtQt",
"QtQtQtQtQt.K.L.M.N.O.P.QQtQtQtQtQtQtQtQt",
"QtQtQtQt.C.R.S.D.oQtQtQtQtQtQtQtQtQtQtQt",
"QtQtQtQt.C.T.xQtQtQtQtQtQtQtQtQtQtQtQtQt",
"QtQtQtQtQtQtQtQtQtQtQtQtQtQtQtQtQtQtQtQt",
"QtQtQtQt.U.V.W.W.X.YQtQtQtQt.U.ZQtQtQtQt",
"QtQtQtQt.0.1.2.2.E.Z.3.CQt.B.t.4QtQtQtQt",
"QtQtQtQt.5.6QtQt.7.8.n.g.9#.##.6QtQtQtQt",
"QtQtQtQt.GQtQtQtQtQt#a#b#c.G.kQtQtQtQtQt",
"QtQtQtQt#d#e#f#f#g#hQtQtQtQt#d#iQtQtQtQt",
"QtQtQtQt#j.m.o.o.n#k#l#mQt.K#n#oQtQtQtQt",
"QtQtQtQt#p.rQtQt#q.x#r#s#t#u#e.rQtQtQtQt",
"QtQtQtQt.QQtQtQtQtQt#v#w.U.Q#xQtQtQtQtQt"};
