/* XPM */
static char *gtreqless[]={
"20 20 24 1",
"e c #303030",
"d c #585858",
"# c #808080",
"g c #a0a0a0",
"r c #ababab",
"q c #d7d7d7",
"o c #d9d9d9",
"u c #dcdcdc",
"p c #e4e4e4",
"a c #e6e6e6",
"f c #e8e8e8",
"s c #eaeaea",
"v c #ebebeb",
"i c #ececec",
"h c #eeeeee",
"j c #efefef",
"m c #f0f0f0",
"b c #f1f1f1",
"k c #f4f4f4",
"t c #f6f6f6",
"n c #fbfbfb",
"c c #fcfcfc",
"l c #fdfdfd",
". c #ffffff",
".....#abc...........",
".....ded##f.........",
".......geed#gb......",
".........hg#dee.....",
"..........geeeg.....",
".......gdedggi......",
".....eeegjkl........",
".....eb.............",
"....................",
".....eeeeeeeeee.....",
".....eeeeeeeeee.....",
"....................",
".............me.....",
"........nkh#eed.....",
"......io#eedp.......",
".....##edg..........",
".....ee#g...........",
".....q##eers........",
".......tu#dee#......",
"..........tv#de....."};
