/* XPM */
static char *gtrsim[]={
"20 20 14 1",
"j c #000000",
"k c #111111",
"l c #222222",
"h c #333333",
"c c #555555",
"e c #666666",
"# c #777777",
"i c #999999",
"b c #aaaaaa",
"d c #bbbbbb",
"g c #cccccc",
"f c #dddddd",
"a c #eeeeee",
". c #ffffff",
"....................",
"....................",
"....##a.............",
".....bc#a...........",
".......dcef.........",
".........geef.......",
"...........fecd.....",
"............aehd....",
"..........fecd......",
"........feed........",
"......deef..........",
"....gc#f............",
"....ia..............",
"....................",
"....................",
".....#jk#a.....l....",
"....#caa#ha...dh....",
"....lf...ghb.dhb....",
"....l.....fcjlb.....",
"...................."};
