/* XPM */
static char *gvertneqq[]={
"20 20 15 1",
"k c #000000",
"m c #111111",
"a c #333333",
"c c #444444",
"g c #555555",
"h c #666666",
"d c #777777",
"l c #888888",
"b c #999999",
"# c #aaaaaa",
"f c #bbbbbb",
"j c #cccccc",
"i c #dddddd",
"e c #eeeeee",
". c #ffffff",
"....................",
"....#ab.............",
"......bcb...........",
"........bade........",
"..........fgde......",
"............fch.....",
"............bcb.....",
".........edab.......",
".......edg#.........",
".....ihgf...........",
"....bhj.............",
".........g..........",
".........k..........",
"....lkkkkkkkkkm.....",
".........k..........",
".........k..........",
"....lkkkkkkkkkm.....",
".........k..........",
".........a..........",
"...................."};
