/* XPM */
static char *hbar[] = {
/* width height num_colors chars_per_pixel */
"    20    20       53            1",
/* colors */
". c #010101",
"# c #040404",
"a c #080808",
"b c #0a0a0a",
"c c #151515",
"d c #181818",
"e c #242424",
"f c #2f2f2f",
"g c #393939",
"h c #454545",
"i c #505050",
"j c #545454",
"k c #575757",
"l c #585858",
"m c #595959",
"n c #676767",
"o c #686868",
"p c #6d6d6d",
"q c #6e6e6e",
"r c #727272",
"s c #7f7f7f",
"t c #818181",
"u c #828282",
"v c #838383",
"w c #878787",
"x c #8e8e8e",
"y c #969696",
"z c #9a9a9a",
"A c #a2a2a2",
"B c #a5a5a5",
"C c #a7a7a7",
"D c #b0b0b0",
"E c #bebebe",
"F c #c2c2c2",
"G c #c5c5c5",
"H c #d2d2d2",
"I c #d4d4d4",
"J c #d7d7d7",
"K c #dfdfdf",
"L c #e0e0e0",
"M c #e6e6e6",
"N c #e9e9e9",
"O c #eaeaea",
"P c #efefef",
"Q c #f1f1f1",
"R c #f2f2f2",
"S c #f4f4f4",
"T c #f5f5f5",
"U c #fafafa",
"V c #fbfbfb",
"W c #fcfcfc",
"X c #fefefe",
"Y c #ffffff",
/* pixels */
"YYYYYYYYYYYYYYYYXXXX",
"YYXYYYYYYYYYYYYYXXXX",
"YYYYYYYYYYYYYYYYXXXX",
"YYYYYYYYYYYYYYYYXXXX",
"YYYYYYYPDrLYYYYYXXXX",
"YYXXYYYTA#YYYYYYXXXX",
"YYXYYYNtietwYYYYXXXX",
"YXYYYYYYjuYYYYYYXXXX",
"YYYXYYYYcxtqMYYYXXXX",
"YYXYYYYI.vYpmYYYXXXX",
"YYXYYYYygXYpoYYYXXXX",
"XYXYYYYksYXfCYYYXXXX",
"YYXYYYYdEYKaOGYYXXXX",
"YYXYXYJbSYtiHzYYXXXX",
"YYYYYYBlYYFhnQYYXXXX",
"YXXYYYWUYYYRVYYYXXXX",
"XXXXXYYYYYYYYYYYXXXX",
"YYYXYYYYYYYYYYYYXXXX",
"YYYXXYYYYYYYYYYYXXXX",
"YYYYYYYYYYYYYYYYXXXX"
};
