/* XPM */
static char *heartsuit[] = {
/* width height num_colors chars_per_pixel */
"    20    20       49            1",
/* colors */
". c #2d2d2d",
"# c #2e2e2e",
"a c #333333",
"b c #393939",
"c c #3d3d3d",
"d c #3e3e3e",
"e c #444444",
"f c #464646",
"g c #4a4a4a",
"h c #4c4c4c",
"i c #4f4f4f",
"j c #525252",
"k c #555555",
"l c #585858",
"m c #616161",
"n c #676767",
"o c #686868",
"p c #696969",
"q c #747474",
"r c #787878",
"s c #7a7a7a",
"t c #7e7e7e",
"u c #838383",
"v c #858585",
"w c #868686",
"x c #949494",
"y c #a0a0a0",
"z c #a3a3a3",
"A c #acacac",
"B c #b1b1b1",
"C c #bbbbbb",
"D c #c0c0c0",
"E c #c5c5c5",
"F c #cecece",
"G c #d9d9d9",
"H c #dadada",
"I c #dbdbdb",
"J c #dddddd",
"K c #e2e2e2",
"L c #e6e6e6",
"M c #eeeeee",
"N c #f3f3f3",
"O c #f5f5f5",
"P c #f6f6f6",
"Q c #f8f8f8",
"R c #fafafa",
"S c #fbfbfb",
"T c #fefefe",
"U c #ffffff",
/* pixels */
"UUUUUUUUUUUUUUUUTTTT",
"UUUUUUUUUUUUUUUUTTTT",
"UUUUUUUUUUUUUUUUTTTT",
"UUUUUSxpwPQxpvSUTTTT",
"UUUUUAmGyjluGrtUTTTT",
"UUTUUgKUUqkUUOdUTTTT",
"UUUUUeUUUHEUUUeUTTTT",
"TUTUUfMUUUUUURcUTTTT",
"UUUUUsAUUUUUUCnUTTTT",
"UUTTUNbLUUUUOaIUTTTT",
"UUUUUUD.LUURlBUUTTTT",
"UUTTTUUB#LRlBUUUTTTT",
"UUUUUUUUBhmzUUUUTTTT",
"UUTUUUUUUoiUUUUUTTTT",
"TUTTUUUUUJFUUUUUTTTT",
"UUTUUUUUUUUUUUUUTTTT",
"UUUUUUUUUUUUUUUUTTTT",
"TUTUUUUUUUUUUUUUTTTT",
"UUTUUUUUUUUUUUUUTTTT",
"UUUUUUUUUUUUUUUUTTTT"
};
