/* XPM */
static char *hookleftarrow[] = {
/* width height num_colors chars_per_pixel */
"    20    20       41            1",
/* colors */
". c #1a1a1a",
"# c #2c2c2c",
"a c #343434",
"b c #363636",
"c c #373737",
"d c #424242",
"e c #444444",
"f c #4b4b4b",
"g c #5e5e5e",
"h c #5f5f5f",
"i c #616161",
"j c #717171",
"k c #757575",
"l c #797979",
"m c #929292",
"n c #979797",
"o c #a4a4a4",
"p c #b4b4b4",
"q c #b5b5b5",
"r c #b7b7b7",
"s c #bebebe",
"t c #c0c0c0",
"u c #d2d2d2",
"v c #d5d5d5",
"w c #d8d8d8",
"x c #d9d9d9",
"y c #dcdcdc",
"z c #dedede",
"A c #dfdfdf",
"B c #e0e0e0",
"C c #e6e6e6",
"D c #eaeaea",
"E c #ededed",
"F c #eeeeee",
"G c #f2f2f2",
"H c #f4f4f4",
"I c #fafafa",
"J c #fbfbfb",
"K c #fcfcfc",
"L c #fefefe",
"M c #ffffff",
/* pixels */
"MLMLMLLLLLLLLLLLMMMM",
"LLMLLLLLLLLLLLLLMMMM",
"MMMLMLLLLLLLLLLLMMMM",
"MMMMMLLMLLLLLMLLMMMM",
"MMMMMLLLLLLLLLLLMMMM",
"MLMLMEvLLLLLLLLLMMMM",
"LMMMLomLLLLLLLujwMMM",
"LLMMIbBLLLLLLLGtdFMM",
"MMMHgnLLLLLLLLLKfCMM",
"MMz#.hiiiiiiiiielMMM",
"LMJsaqAAAAAAAAADMMMM",
"LMMLycKLLLLLLLLLMMMM",
"MMMMMkrLLLLLLLLLMMMM",
"MMMLMxpLLLLLLLLLMMMM",
"MMMMMLLLLLLLLLLLMMMM",
"MMMMMLLLLLLLLLLLMMMM",
"LLMLMLLLLLLLLLLLMMMM",
"MMMMLLLLLLLLLLLLMMMM",
"MMMMMLLLLLLLLLLLMMMM",
"MMMMMLLLLLLLLLLLMMMM"
};
