/* XPM */
static char *iff[]={
"32 20 15 1",
"g c #000000",
"m c #0c0c0c",
"f c #111111",
"h c #191919",
"l c #333333",
"k c #555555",
"i c #666666",
"# c #777777",
"j c #888888",
"e c #aaaaaa",
"c c #bbbbbb",
"d c #cccccc",
"a c #dddddd",
"b c #eeeeee",
". c #ffffff",
"................................",
"................................",
"................................",
"................................",
"................................",
"......#a.................#b.....",
".....cd...................e.....",
"....cfgggggggggghggggggggggi....",
"..b#j......................dkc..",
".#ld........................bkla",
"..ekc......................b##b.",
"....igggggggggggmggggggggggla...",
".....#d...................#b....",
"......ib.................#c.....",
"......cd.................#......",
"................................",
"................................",
"................................",
"................................",
"................................"};
