/* XPM */
static char *iiiint[] = {
/* width height num_colors chars_per_pixel */
"    30    16       10            1",
/* colors */
". c #ffffff s background",
"# c #dddddd",
"a c #cccccc",
"b c #aaaaaa",
"c c #888888",
"d c #777777",
"e c #555555",
"f c #333333",
"g c #222222",
"h c #000000",
/* pixels */
".....bfg#...bfg#...bfg#...bfg#",
".....g.hb...g.hb...g.hb...g.hb",
"....be.b#..be.b#..be.b#..be.b#",
"....be.....be.....be.....be...",
"....ee.....ee.....ee.....ee...",
"....ed.....ed.....ed.....ed...",
"....hb.....hb.....hb.....hb...",
"....hb.....hb.....hb.....hb...",
"....hb.....hb.....hb.....hb...",
"...#h#....#h#....#h#....#h#...",
"...bh.....bh.....bh.....bh....",
"...bf.....bf.....bf.....bf....",
"...be.....be.....be.....be....",
"bh.dc..bh.dc..bh.dc..bh.dc....",
"ahcg...ahcg...ahcg...ahcg.....",
".ab.....ab.....ab.....ab......",
};
