/* XPM */
static char *Im[] = {
/* width height num_colors chars_per_pixel */
"    20    20       60            1",
/* colors */
". c #010101",
"# c #080808",
"a c #141414",
"b c #151515",
"c c #1d1d1d",
"d c #2b2b2b",
"e c #2d2d2d",
"f c #2e2e2e",
"g c #414141",
"h c #434343",
"i c #444444",
"j c #494949",
"k c #4b4b4b",
"l c #4c4c4c",
"m c #515151",
"n c #525252",
"o c #5d5d5d",
"p c #616161",
"q c #686868",
"r c #696969",
"s c #6f6f6f",
"t c #707070",
"u c #727272",
"v c #7f7f7f",
"w c #818181",
"x c #8c8c8c",
"y c #909090",
"z c #929292",
"A c #939393",
"B c #949494",
"C c #999999",
"D c #9c9c9c",
"E c #a1a1a1",
"F c #a6a6a6",
"G c #a8a8a8",
"H c #b2b2b2",
"I c #b3b3b3",
"J c #b5b5b5",
"K c #b6b6b6",
"L c #b7b7b7",
"M c #bbbbbb",
"N c #bcbcbc",
"O c #bfbfbf",
"P c #c4c4c4",
"Q c #c5c5c5",
"R c #cbcbcb",
"S c #cfcfcf",
"T c #dbdbdb",
"U c #e2e2e2",
"V c #e4e4e4",
"W c #e6e6e6",
"X c #efefef",
"Y c #f2f2f2",
"Z c #f6f6f6",
"0 c #f8f8f8",
"1 c #f9f9f9",
"2 c #fafafa",
"3 c #fdfdfd",
"4 c #fefefe",
"5 c #ffffff",
/* pixels */
"54545444444444445555",
"44544444444444445555",
"55545444444444445555",
"55555445444445445555",
"5555542AwvR444445555",
"545452mS4Pbw44445555",
"45554IE444K.F4H45555",
"44554yJ4444HhtG45555",
"55555Tk0444WxzV45555",
"555554KqD44isTr45555",
"45545443U44cs4X45555",
"45544444444C#N445555",
"55555QpdM444nj445555",
"5554544BaO4Zeo445555",
"55555444LfuglV445555",
"5555544441XY44445555",
"44545444444444445555",
"55554444444444445555",
"55555444444444445555",
"55555444444444445555"
};
