/* XPM */
static char *infty[] = {
/* width height num_colors chars_per_pixel */
"    20    20       60            1",
/* colors */
". c #000000",
"# c #090909",
"a c #0a0a0a",
"b c #0c0c0c",
"c c #141414",
"d c #1c1c1c",
"e c #2d2d2d",
"f c #323232",
"g c #353535",
"h c #3f3f3f",
"i c #4d4d4d",
"j c #4e4e4e",
"k c #4f4f4f",
"l c #505050",
"m c #545454",
"n c #575757",
"o c #6b6b6b",
"p c #6f6f6f",
"q c #777777",
"r c #797979",
"s c #7b7b7b",
"t c #878787",
"u c #888888",
"v c #898989",
"w c #8e8e8e",
"x c #939393",
"y c #959595",
"z c #979797",
"A c #989898",
"B c #999999",
"C c #a7a7a7",
"D c #a8a8a8",
"E c #a9a9a9",
"F c #aeaeae",
"G c #b0b0b0",
"H c #b2b2b2",
"I c #b8b8b8",
"J c #b9b9b9",
"K c #bdbdbd",
"L c #bfbfbf",
"M c #c2c2c2",
"N c #c7c7c7",
"O c #d3d3d3",
"P c #d4d4d4",
"Q c #dadada",
"R c #dbdbdb",
"S c #dedede",
"T c #e1e1e1",
"U c #e2e2e2",
"V c #e3e3e3",
"W c #eaeaea",
"X c #ebebeb",
"Y c #ececec",
"Z c #ededed",
"0 c #f5f5f5",
"1 c #f6f6f6",
"2 c #f7f7f7",
"3 c #f8f8f8",
"4 c #fefefe",
"5 c #ffffff",
/* pixels */
"44544444444444445555",
"45554444444444445555",
"54555444444444445555",
"55555444444444445555",
"55555444444444445555",
"44544444444444445555",
"44552DyI4441CyJ45555",
"4442nuwbk2TfBWvA5555",
"444FG44LaigN444qZ555",
"445s3444E.m4444DQ555",
"444tY444Uc#K444BR555",
"444Lx44VeHiaL4Tl5555",
"5455zopjM42rdfhS5555",
"44545XO444440P445555",
"44444444444444445555",
"45544444444444445555",
"44554444444444445555",
"44444444444444445555",
"45454444444444445555",
"44554444444444445555"
};
