/* XPM */
static char *iota[] = {
/* width height num_colors chars_per_pixel */
"    20    20       21            1",
/* colors */
". c #101010",
"# c #161616",
"a c #444444",
"b c #565656",
"c c #5f5f5f",
"d c #626262",
"e c #676767",
"f c #787878",
"g c #7f7f7f",
"h c #919191",
"i c #929292",
"j c #969696",
"k c #b6b6b6",
"l c #bfbfbf",
"m c #dfdfdf",
"n c #e7e7e7",
"o c #f4f4f4",
"p c #f5f5f5",
"q c #fdfdfd",
"r c #fefefe",
"s c #ffffff",
/* pixels */
"ssssssssssssssssrrrr",
"ssssssssssssssssrrrr",
"ssssssssssssssssrrrr",
"ssssssssssssssssrrrr",
"ssssssssssssssssrrrr",
"ssrsssssssssssssrrrr",
"sssssssssomsssssrrrr",
"rsrssssssjasssssrrrr",
"sssssssssbgsssssrrrr",
"ssrrsssss#lsssssrrrr",
"ssssssssk.sqqsssrrrr",
"ssrrrsssecrfnsssrrrr",
"ssssssssdhiissssrrrr",
"ssrssssspjmsssssrrrr",
"rsrrssssssssssssrrrr",
"ssrsssssssssssssrrrr",
"ssssssssssssssssrrrr",
"rsrsssssssssssssrrrr",
"ssrsssssssssssssrrrr",
"ssssssssssssssssrrrr"
};
