/* XPM */
static char *jmath[] = {
/* width height num_colors chars_per_pixel */
"    20    20       36            1",
/* colors */
". c #0e0e0e",
"# c #101010",
"a c #111111",
"b c #121212",
"c c #181818",
"d c #3e3e3e",
"e c #444444",
"f c #474747",
"g c #555555",
"h c #595959",
"i c #676767",
"j c #7b7b7b",
"k c #7e7e7e",
"l c #828282",
"m c #848484",
"n c #868686",
"o c #9a9a9a",
"p c #9c9c9c",
"q c #aaaaaa",
"r c #b5b5b5",
"s c #bcbcbc",
"t c #c1c1c1",
"u c #c4c4c4",
"v c #c7c7c7",
"w c #cacaca",
"x c #d2d2d2",
"y c #d5d5d5",
"z c #e4e4e4",
"A c #e9e9e9",
"B c #f1f1f1",
"C c #f2f2f2",
"D c #f7f7f7",
"E c #f9f9f9",
"F c #fcfcfc",
"G c #fefefe",
"H c #ffffff",
/* pixels */
"HGHGHGGGGGGGGGGGHHHH",
"GGHGGGGGGGGGGGGGHHHH",
"HHHGHGGGGGGGGGGGHHHH",
"HHHHHGGHGGGGGHGGHHHH",
"HHHHHGGGGGGGGGGGHHHH",
"HGHGHGGGGykgzGGGHHHH",
"GHHHGGGGDiEdrGGGHHHH",
"GGHHGGGGxsB.wGGGHHHH",
"HHHHHGGGGGtaDGGGHHHH",
"HHHHHGGGGGlfGGGGHHHH",
"GHHGHGGGGGenGGGGHHHH",
"GHHGGGGGGCbuGGGGHHHH",
"HHHHHGGADv#CGGGGHHHH",
"HHHGHGFcphmGGGGGHHHH",
"HHHHHGGojqFGGGGGHHHH",
"HHHHHGGGGGGGGGGGHHHH",
"GGHGHGGGGGGGGGGGHHHH",
"HHHHGGGGGGGGGGGGHHHH",
"HHHHHGGGGGGGGGGGHHHH",
"HHHHHGGGGGGGGGGGHHHH"
};
