/* XPM */
static char *Join[]={
"20 20 9 1",
"c c #000000",
"# c #111111",
"g c #444444",
"f c #555555",
"b c #666666",
"d c #777777",
"e c #999999",
"a c #cccccc",
". c #ffffff",
"....................",
"....................",
"....................",
"....................",
"....................",
"....#a.......bc.....",
"....cda.....bbc.....",
"....c.da...bd.c.....",
"....c..da.be..c.....",
"....c...dfe...c.....",
"....c...bge...c.....",
"....c..be.be..c.....",
"....c.be...be.c.....",
"....cbe.....bec.....",
"....ce.......bc.....",
"....................",
"....................",
"....................",
"....................",
"...................."};
