/* XPM */
static char *kappa[] = {
/* width height num_colors chars_per_pixel */
"    20    20       42            1",
/* colors */
". c #020202",
"# c #050505",
"a c #090909",
"b c #0e0e0e",
"c c #151515",
"d c #3d3d3d",
"e c #3e3e3e",
"f c #404040",
"g c #424242",
"h c #474747",
"i c #4a4a4a",
"j c #575757",
"k c #676767",
"l c #6e6e6e",
"m c #787878",
"n c #7d7d7d",
"o c #838383",
"p c #898989",
"q c #8d8d8d",
"r c #9a9a9a",
"s c #9d9d9d",
"t c #a2a2a2",
"u c #a9a9a9",
"v c #b4b4b4",
"w c #bcbcbc",
"x c #bebebe",
"y c #c8c8c8",
"z c #cbcbcb",
"A c #cecece",
"B c #d4d4d4",
"C c #d5d5d5",
"D c #d7d7d7",
"E c #d9d9d9",
"F c #dcdcdc",
"G c #dfdfdf",
"H c #e8e8e8",
"I c #f0f0f0",
"J c #f4f4f4",
"K c #f8f8f8",
"L c #fcfcfc",
"M c #fefefe",
"N c #ffffff",
/* pixels */
"MMNMMMMMMMMMMMMMNNNN",
"MNNNMMMMMMMMMMMMNNNN",
"NMNNNMMMMMMMMMMMNNNN",
"NNNNNMMMMMMMMMMMNNNN",
"NNNNNMMMMMMMMMMMNNNN",
"MMNMMMMMMMMMMMMMNNNN",
"MMNNNMMLDMMMGMMMNNNN",
"MMMMMMMycMwe#LMMNNNN",
"MMMMMMMpfrsKBMMMNNNN",
"MMNMMMMi.dvMMMMMNNNN",
"MMMMMMLbxHhnMLMMNNNN",
"MMMMMMzaJMmlAtMMNNNN",
"NMNNMMqgMMojkIMMNNNN",
"MMNMNMEFMMKuCMMMNNNN",
"MMMMMMMMMMMMMMMMNNNN",
"MNNMMMMMMMMMMMMMNNNN",
"MMNNMMMMMMMMMMMMNNNN",
"MMMMMMMMMMMMMMMMNNNN",
"MNMNMMMMMMMMMMMMNNNN",
"MMNNMMMMMMMMMMMMNNNN"
};
