/* XPM */
static char *ldots[] = {
/* width height num_colors chars_per_pixel */
"    20    20       14            1",
/* colors */
". c #0e0e0e",
"# c #3b3b3b",
"a c #787878",
"b c #8a8a8a",
"c c #a4a4a4",
"d c #bababa",
"e c #c3c3c3",
"f c #e4e4e4",
"g c #eaeaea",
"h c #f7f7f7",
"i c #f8f8f8",
"j c #fdfdfd",
"k c #fefefe",
"l c #ffffff",
/* pixels */
"kklkkkkkkkkkkkkkllll",
"klllkkkkkkkkkkkkllll",
"lklllkkkkkkkjkkkllll",
"lllllkkkkkkjjjjjllll",
"lllllkjjkkkjjkkkllll",
"kklkkjjjkkjjkkkkllll",
"kkllljjjkkjjkkkkllll",
"kkkkjjjjkjjkkkkjllll",
"kkkkkkjjkjjkkkjjllll",
"kkg.djjjj#akkjjd.gll",
"kkhbfkkkjcekkjjfbill",
"kjjjkkkjjkkkkjjkllll",
"lklljkkjjkkkkjjkllll",
"kkljlkkjkkkkkjjjllll",
"kkkjjjjjkkkkkkjjllll",
"kllkjjjjkkkkkkkkllll",
"kklljjjkkkkkkkkkllll",
"kkkkkjjkkkkkkkkkllll",
"klklkkkkkkkkkkkkllll",
"kkllkkkkkkkkkkkkllll"
};
