/* XPM */
static char *le[] = {
/* width height num_colors chars_per_pixel */
"    20    20       36            1",
/* colors */
". c #101010",
"# c #3d3d3d",
"a c #3f3f3f",
"b c #404040",
"c c #414141",
"d c #444444",
"e c #4d4d4d",
"f c #4e4e4e",
"g c #515151",
"h c #525252",
"i c #565656",
"j c #595959",
"k c #5f5f5f",
"l c #616161",
"m c #6c6c6c",
"n c #787878",
"o c #9d9d9d",
"p c #a9a9a9",
"q c #aaaaaa",
"r c #aeaeae",
"s c #b8b8b8",
"t c #bbbbbb",
"u c #c4c4c4",
"v c #c5c5c5",
"w c #cdcdcd",
"x c #d0d0d0",
"y c #d1d1d1",
"z c #d3d3d3",
"A c #d6d6d6",
"B c #d8d8d8",
"C c #e6e6e6",
"D c #e9e9e9",
"E c #fcfcfc",
"F c #fdfdfd",
"G c #fefefe",
"H c #ffffff",
/* pixels */
"GGHGGGGGGGGGGGGGHHHH",
"GHHHGGGGGGGGGGGGHHHH",
"HGHHHGGGGGGGGGGGHHHH",
"HHHHHGGGGGGGGGGGHHHH",
"HHHHHGGGGGGGueAGHHHH",
"GGHGGGGGGGvflBGGHHHH",
"GGHHHGGEqckAGGGGHHHH",
"GGGGGGr#nDGGGGGGHHHH",
"GGGGGo.wGGGGGGGGHHHH",
"GGHGGFtbmCGGGGGGHHHH",
"GGGGGGGHsajxGGGGHHHH",
"GGGGGGGGGGyhizGGHHHH",
"HGHHGGGGGGGGwgAGHHHH",
"GGHGHGGGGGGGGGGGHHHH",
"GGGGGGGGGGGGGGGGHHHH",
"GHHGGpddddddddAGHHHH",
"GGHHGGGGGGGGGGGGHHHH",
"GGGGGGGGGGGGGGGGHHHH",
"GHGHGGGGGGGGGGGGHHHH",
"GGHHGGGGGGGGGGGGHHHH"
};
