/* XPM */
static char *leftleftarrows[]={
"20 20 11 1",
"d c #000000",
"f c #666666",
"b c #777777",
"g c #888888",
"h c #999999",
"e c #aaaaaa",
"i c #bbbbbb",
"c c #cccccc",
"# c #dddddd",
"a c #eeeeee",
". c #ffffff",
"....................",
"....................",
"....................",
"....................",
"....#a..............",
"....b...............",
"...ca...............",
"..bdddddddddddddde..",
"..#fa...............",
"...ab...............",
"....ba..............",
"....b...............",
"...ga...............",
"..bddddddddddddddh..",
"...ga...............",
"....b...............",
"....i...............",
"....................",
"....................",
"...................."};
