/* XPM */
static char *leqslant[]={
"20 20 12 1",
"d c #444444",
"b c #555555",
"c c #666666",
"a c #777777",
"i c #888888",
"j c #999999",
"g c #aaaaaa",
"e c #bbbbbb",
"f c #cccccc",
"# c #dddddd",
"h c #eeeeee",
". c #ffffff",
"....................",
"....................",
"....................",
"............#ab.....",
"..........#cde......",
"........#ccf........",
"......edc#..........",
"....gba#............",
"....gbc#............",
"......#ccf..........",
"........#cbe........",
"....cde...habg......",
".....#abe...hid.....",
".......hadj.........",
"..........jdj.......",
"............jda.....",
"..............i.....",
"....................",
"....................",
"...................."};
