/* XPM */
static char *lessdot[]={
"20 20 15 1",
"h c #111111",
"j c #222222",
"i c #333333",
"b c #444444",
"f c #555555",
"l c #666666",
"# c #777777",
"d c #888888",
"a c #999999",
"k c #aaaaaa",
"g c #bbbbbb",
"m c #cccccc",
"e c #dddddd",
"c c #eeeeee",
". c #ffffff",
"....................",
"....................",
"....................",
"....................",
"....................",
"..............#.....",
"............ab#.....",
".........cdba.......",
".......c#ba.........",
".....e#fg...........",
"....ahg....fh.......",
".....ai#c..#j.......",
".......kf#c.........",
".........gfle.......",
"...........mlle.....",
".............ef.....",
"....................",
"....................",
"....................",
"...................."};
