/* XPM */
static char *lesseqgtr[]={
"20 20 25 1",
"e c #000000",
"d c #585858",
"c c #808080",
"a c #a0a0a0",
"p c #c1c1c1",
"g c #c2c2c2",
"k c #c5c5c5",
"b c #d6d6d6",
"w c #d8d8d8",
"l c #d9d9d9",
"s c #dadada",
"o c #dcdcdc",
"f c #e0e0e0",
"h c #e3e3e3",
"r c #e4e4e4",
"m c #eaeaea",
"u c #ededed",
"t c #eeeeee",
"j c #f1f1f1",
"q c #f4f4f4",
"v c #f5f5f5",
"# c #f8f8f8",
"n c #fbfbfb",
"i c #fefefe",
". c #ffffff",
".............#a.....",
"...........bcde.....",
"........fdeedgh.....",
"....ijdeeklmn.......",
"....jeeomn..........",
".....adeedpm........",
".......#bcdeedq.....",
"..........#rsde.....",
"....................",
".....eeeeeeeeee.....",
".....eeeeeeeeee.....",
"....ii..............",
"....tcou............",
"....qeeedcj.........",
"......#acdeecq......",
".........vfleee.....",
".......nmwceedj.....",
".....hcddedf........",
"....qedcc...........",
"....nc#............."};
