/* XPM */
static char *lessgtr[]={
"20 20 14 1",
"j c #222222",
"l c #333333",
"e c #444444",
"b c #555555",
"g c #666666",
"a c #777777",
"d c #888888",
"f c #999999",
"h c #aaaaaa",
"i c #bbbbbb",
"# c #cccccc",
"k c #dddddd",
"c c #eeeeee",
". c #ffffff",
"....................",
"....................",
".............#ab....",
"..........cdea#.....",
"........fbgh........",
".....igefc..........",
"....jek.............",
"....#abdk...........",
".......hggf.........",
"....a#...cfbgi......",
"....#aedc...kdea....",
".......hgbf....k....",
".........cfeg#......",
"............kala....",
"...........kdba#....",
".........fbgh.......",
"......igbfc.........",
"....aeak............",
"....f...............",
"...................."};
