/* XPM */
static char *lgroup[]={
"20 20 12 1",
"g c #000000",
"b c #111111",
"a c #333333",
"d c #444444",
"e c #666666",
"c c #999999",
"i c #aaaaaa",
"j c #b1b1b1",
"h c #bbbbbb",
"# c #cccccc",
"f c #eeeeee",
". c #ffffff",
"....................",
"..........#a#.......",
".........#bc........",
".........de.........",
"........fgh.........",
"........hg..........",
"........hg..........",
"........hg..........",
"........hg..........",
"........ig..........",
"........jg..........",
"........hg..........",
"........hg..........",
"........hg..........",
"........hg..........",
"........fgh.........",
".........de.........",
".........hbc........",
"..........#a#.......",
"...................."};
