/* XPM */
static char *Lleftarrow[]={
"20 20 14 1",
"g c #000000",
"j c #111111",
"f c #222222",
"b c #333333",
"k c #444444",
"i c #666666",
"d c #777777",
"# c #888888",
"a c #999999",
"h c #aaaaaa",
"l c #bbbbbb",
"e c #cccccc",
"c c #eeeeee",
". c #ffffff",
"....................",
"....................",
"....................",
"....................",
".......#a...........",
".......bc...........",
"......#d............",
".....efggggggggggh..",
"....cic.............",
"...edc..............",
"..hjgggggggggggggh..",
"...ad...............",
"....ek..............",
".....ld.............",
"......dggggggggggl..",
".......d............",
".......#l...........",
"....................",
"....................",
"...................."};
