/* XPM */
static char *lll[]={
"26 20 14 1",
"l c #111111",
"k c #333333",
"e c #444444",
"a c #555555",
"h c #666666",
"b c #777777",
"j c #888888",
"c c #999999",
"g c #aaaaaa",
"# c #bbbbbb",
"i c #cccccc",
"d c #dddddd",
"f c #eeeeee",
". c #ffffff",
"..........................",
"..........................",
"..........................",
"..........................",
"..........................",
"..........#a....bc...de...",
"........dabf..ceg..dhhd...",
"......fbhd..#ec..fbai.....",
"....fba#..iabf..je#.......",
"...ce#..dhhd..gec.........",
"..kb...#ld...ah...........",
"..dabf..ceg..dhhd.........",
"....#abf..ba#..debf.......",
"......gec..fbad..#aj......",
"........ce#..dhhf..cec....",
".........fbh...#ag...ba...",
"..........................",
"..........................",
"..........................",
".........................."};
