/* XPM */
static char *lll[] = {
/* width height num_colors chars_per_pixel */
"    18    10       11            1",
/* colors */
". c #ffffff s background",
"# c #000000",
"a c #dddddd",
"b c #cccccc",
"c c #aaaaaa",
"d c #888888",
"e c #777777",
"f c #555555",
"g c #444444",
"h c #333333",
"i c #222222",
/* pixels */
".......ed..cf..afb",
".....cfa.afc..ee..",
"...afc..ee..cfa...",
"..ee..cfa.afc.....",
"bia..hd..dh.......",
".bfb.aed..dea.....",
"...dea.bfb.aed....",
"....aed..dea.bfb..",
"......bfb.aed..dea",
"........b...b...aa",
};
