/* XPM */
static char *lnapprox[]={
"20 20 80 2",
".Y c #222222",
"#h c #232323",
"#d c #272727",
".g c #303030",
".V c #333333",
".9 c #3c3c3c",
".1 c #444444",
"#f c #4b4b4b",
".S c #505050",
".h c #545454",
".R c #555555",
".t c #585858",
"#c c #616161",
"#. c #646464",
"#a c #676767",
".M c #686868",
".2 c #6b6b6b",
".3 c #6c6c6c",
".4 c #6d6d6d",
".N c #6f6f6f",
".U c #707070",
"#i c #727272",
".b c #777777",
"#n c #787878",
".8 c #7d7d7d",
".Q c #868686",
".0 c #8e8e8e",
"#l c #919191",
".u c #939393",
".x c #999999",
".T c #9e9e9e",
"#k c #a2a2a2",
".m c #a7a7a7",
"#g c #aaaaaa",
".c c #acacac",
".q c #aeaeae",
".P c #b3b3b3",
".W c #b4b4b4",
".A c #b5b5b5",
".E c #b7b7b7",
".O c #bababa",
".z c #bbbbbb",
".J c #c0c0c0",
".w c #c2c2c2",
".B c #c6c6c6",
".5 c #c7c7c7",
".r c #c8c8c8",
".K c #c9c9c9",
".6 c #cacaca",
".F c #cbcbcb",
".l c #cccccc",
".L c #cecece",
"## c #cfcfcf",
".Z c #d2d2d2",
".y c #d3d3d3",
".7 c #d8d8d8",
".p c #dbdbdb",
".s c #dddddd",
".D c #dfdfdf",
".i c #e0e0e0",
".H c #e1e1e1",
".C c #e2e2e2",
"#b c #e3e3e3",
".v c #e5e5e5",
".k c #e6e6e6",
"#m c #e7e7e7",
".o c #e8e8e8",
".X c #e9e9e9",
"#j c #eaeaea",
"#e c #ececec",
".f c #ededed",
".I c #eeeeee",
".n c #f0f0f0",
".e c #f2f2f2",
".j c #f5f5f5",
".a c #f6f6f6",
".G c #f8f8f8",
".# c #fafafa",
".d c #fbfbfb",
"Qt c #ffffff",
"QtQtQtQtQtQtQtQtQtQtQtQt.#.a.b.cQtQtQtQt",
"QtQtQtQtQtQtQtQtQt.d.e.f.g.h.g.iQtQtQtQt",
"QtQtQtQtQtQtQt.j.k.l.g.g.m.nQtQtQtQtQtQt",
"QtQtQtQt.d.o.p.q.g.g.rQtQtQtQtQtQtQtQtQt",
"QtQtQtQt.s.t.g.u.vQtQtQtQtQtQtQtQtQtQtQt",
"QtQtQtQt.w.g.x.w.y.jQtQtQtQtQtQtQtQtQtQt",
"QtQtQtQtQtQt.z.g.g.A.B.CQtQtQtQtQtQtQtQt",
"QtQtQtQtQtQtQtQt.D.g.g.t.E.F.GQtQtQtQtQt",
"QtQtQtQtQtQtQtQtQtQt.j.z.g.g.c.HQtQtQtQt",
"QtQtQtQtQtQtQtQtQtQtQt.A.I.p.g.pQtQtQtQt",
"QtQtQtQtQt.f.J.K.aQt.a.g.IQtQtQtQtQtQtQt",
"QtQtQtQt.L.M.g.g.N.O.P.QQtQt.j.tQtQtQtQt",
"QtQtQtQt.R.S.T.T.U.M.V.WQt.X.t.SQtQtQtQt",
"QtQtQtQt.Y.ZQtQt.C.0.1.2.t.t.3.ZQtQtQtQt",
"QtQtQtQt.JQtQtQtQt.4.5.6.E.J.7QtQtQtQtQt",
"QtQtQtQt.e.8.g.g.t.g.dQtQtQt.e.9QtQtQtQt",
"QtQtQtQt#..U#####a.g#a.5Qt#b.g#cQtQtQtQt",
"QtQtQtQt#d#eQtQt#f.v#g.g#h.g#i#eQtQtQtQt",
"QtQtQtQt#jQtQt#k#lQt.G#e#m#j.eQtQtQtQtQt",
"QtQtQtQtQtQtQt#n.#QtQtQtQtQtQtQtQtQtQtQt"};
