/* XPM */
static char *lneqq[]={
"20 20 13 1",
"j c #000000",
"k c #111111",
"i c #333333",
"h c #444444",
"b c #555555",
"a c #666666",
"e c #777777",
"d c #999999",
"c c #bbbbbb",
"g c #cccccc",
"# c #dddddd",
"f c #eeeeee",
". c #ffffff",
"....................",
"............#ab.....",
"..........#aac......",
"........cba#........",
"......cba#..........",
"....dbef............",
"....gaa#............",
"......#ahc..........",
"........febc........",
"..........feid......",
".............dh.....",
"............dg......",
"...........da.......",
"....ijjjjjjjjjk.....",
".........gb#........",
"........da..........",
"....ijjjjjjjjjk.....",
"......ghf...........",
".....#if............",
"...................."};
