/* XPM */
static char *Longmapsfrom[] = {
/* width height num_colors chars_per_pixel */
"    22    10       11            1",
/* colors */ 
". c #ffffff s background",
"# c #000000",
"a c #dddddd",
"b c #cccccc",
"c c #aaaaaa",
"d c #888888",
"e c #777777",
"f c #555555",
"g c #444444",
"h c #333333",
"i c #222222",
/* pixels */ 
"......................",
"....ad...............f",
"....fb...............f",
"...eifffffffffffffffff",
".afe.................f",
"aie..................f",
".afe.................f",
"...eifffffffffffffffff",
"....fb...............f",
"....ad...............f"
};		      
