/* XPM */
static char *looparrowleft[]={
"20 20 12 1",
"b c #000000",
"f c #111111",
"i c #333333",
"a c #444444",
"c c #555555",
"h c #666666",
"e c #777777",
"g c #999999",
"j c #bbbbbb",
"# c #dddddd",
"d c #eeeeee",
". c #ffffff",
"....................",
"....................",
"....................",
"....................",
"....................",
"............#abbcd..",
"............ce..ec..",
"....#.......fd...b..",
"....e.......b....b..",
"...gd.......b..#hh..",
"..ebbbbbbbbbbbbied..",
"..dhd.......b.......",
"...de.......b.......",
"....j.......b.......",
"............b.......",
"............i.......",
"....................",
"....................",
"....................",
"...................."};
