/* XPM */
static char *lrcorner[]={
"20 20 4 1",
"a c #000000",
"b c #222222",
"# c #555555",
". c #ffffff",
"....................",
"....................",
"....................",
"....................",
"....................",
"....................",
"....................",
"............#.......",
"............a.......",
"............a.......",
"............a.......",
"............a.......",
"............a.......",
"......baaaaaa.......",
"....................",
"....................",
"....................",
"....................",
"....................",
"...................."};
