/* XPM */
static char *lvert[] = {
/* width height num_colors chars_per_pixel */
"     9    15       10            1",
/* colors */
". c #ffffff s background",
"# c #dddddd",
"a c #cccccc",
"b c #aaaaaa",
"c c #888888",
"d c #777777",
"e c #555555",
"f c #333333",
"g c #222222",
"h c #000000",
/* pixels */
"....#....",
"....f....",
"....f....",
"....f....",
"....f....",
"....f....",
"....f....",
"....f....",
"....f....",
"....f....",
"....f....",
"....f....",
"....f....",
"....f....",
"....#...."
};  
