/* XPM */
static char *mathcal[]={
"20 20 15 1",
"c c #000000",
"k c #222222",
"h c #333333",
"j c #444444",
"g c #555555",
"i c #666666",
"d c #777777",
"a c #888888",
"# c #999999",
"l c #aaaaaa",
"f c #bbbbbb",
"m c #cccccc",
"b c #dddddd",
"e c #eeeeee",
". c #ffffff",
"....................",
"....................",
"....................",
".............#a.....",
"............bcb.....",
"............dc......",
"...........bdc......",
"...........decf.....",
"..........fd.cf.....",
"..........g..c#.....",
".........af..hd.....",
"........bi...ji.....",
"........hkccccj.....",
".......il....dc.....",
"...fd.dg.....acm....",
"...dccke.....mchd...",
"...bhkm.......iae...",
"....................",
"....................",
"...................."};
