/* XPM */
static char *measuredangle[]={
"20 20 12 1",
"j c #000000",
"i c #111111",
"g c #333333",
"b c #444444",
"d c #666666",
"a c #777777",
"h c #888888",
"e c #999999",
"f c #bbbbbb",
"c c #cccccc",
"# c #eeeeee",
". c #ffffff",
"....................",
"....................",
"....................",
"....................",
"..............#a....",
"..............bc....",
".............de.....",
"............ea......",
"...........fd.......",
"..........cb#.......",
".........#g#........",
".........bc.........",
"........dgc.........",
".......he#b.........",
"......ee..ac........",
".....ca...fa........",
".....ijjjjjjjjjh....",
"....................",
"....................",
"...................."};
