/* XPM */
static char *mho[]={
"20 20 16 1",
"a c #000000",
"l c #111111",
"n c #222222",
"e c #333333",
"m c #444444",
"# c #555555",
"k c #666666",
"c c #777777",
"g c #888888",
"i c #999999",
"j c #aaaaaa",
"b c #bbbbbb",
"h c #cccccc",
"f c #dddddd",
"d c #eeeeee",
". c #ffffff",
"....................",
"....................",
"....................",
"....................",
".....#aaa...aaab....",
".....c.de...c.fg....",
"....fh.ci...cd.i....",
"......fe....jk......",
"......#c.....lj.....",
".....baj.....clf....",
".....#af.....bak....",
".....aa.......aa....",
".....aa.......aa....",
".....#ah.....ba#....",
".....hak.....mah....",
"......iacf.hmli.....",
".......h#lancf......",
"....................",
"....................",
"...................."};
