/* XPM */
static char *models[] = {
/* width height num_colors chars_per_pixel */
"    20    20       15            1",
/* colors */
". c #424242",
"# c #444444",
"a c #484848",
"b c #4a4a4a",
"c c #4c4c4c",
"d c #9b9b9b",
"e c #b0b0b0",
"f c #b2b2b2",
"g c #f1f1f1",
"h c #f2f2f2",
"i c #f8f8f8",
"j c #fbfbfb",
"k c #fcfcfc",
"l c #fefefe",
"m c #ffffff",
/* pixels */
"llmlllllllllllllmmmm",
"lmmmllllllllllllmmmm",
"mlmmmdjlllllllllmmmm",
"mmmmmcilllllllllmmmm",
"mmmmmcilllllllllmmmm",
"llmllcilllllllllmmmm",
"llmmmcilllllllllmmmm",
"lllllcilllllllllmmmm",
"lllllc.########emmmm",
"llmllcilllllllllmmmm",
"lllllchiiiiiiiikmmmm",
"lllllcabbbbbbbbfmmmm",
"mlmmlcilllllllllmmmm",
"llmlmcilllllllllmmmm",
"lllllcilllllllllmmmm",
"lmmllcilllllllllmmmm",
"llmmlcilllllllllmmmm",
"lllllgllllllllllmmmm",
"lmlmllllllllllllmmmm",
"llmmllllllllllllmmmm"
};
