/* XPM */
static char *mp[] = {
/* width height num_colors chars_per_pixel */
"    20    20       18            1",
/* colors */
". c #333333",
"# c #373737",
"a c #3c3c3c",
"b c #424242",
"c c #4c4c4c",
"d c #646464",
"e c #686868",
"f c #707070",
"g c #828282",
"h c #868686",
"i c #a6a6a6",
"j c #c0c0c0",
"k c #dcdcdc",
"l c #e0e0e0",
"m c #e9e9e9",
"n c #ececec",
"o c #fefefe",
"p c #ffffff",
/* pixels */
"ppppppppppppppppoooo",
"ppopppppppppppppoooo",
"ppppppppppppppppoooo",
"ppppppppppppppppoooo",
"ppppppppppppppppoooo",
"ppooppppppppppppoooo",
"ppoppebbba#bbbepoooo",
"popppppppjgpppppoooo",
"pppopppppjgpppppoooo",
"ppoppppppjgpppppoooo",
"ppopplkkkifkkklpoooo",
"opopphdddc.dddhpoooo",
"ppoppppppjgpppppoooo",
"ppopoppppjgpppppoooo",
"pppppppppjgpppppoooo",
"pooppppppjgpppppoooo",
"oooooppppnmpppppoooo",
"pppoppppppppppppoooo",
"pppoopppppppppppoooo",
"ppppppppppppppppoooo"
};
