/* XPM */
static char *nabla[] = {
/* width height num_colors chars_per_pixel */
"    20    20       46            1",
/* colors */
". c #000000",
"# c #030303",
"a c #090909",
"b c #0c0c0c",
"c c #121212",
"d c #1f1f1f",
"e c #202020",
"f c #222222",
"g c #272727",
"h c #3e3e3e",
"i c #4d4d4d",
"j c #4e4e4e",
"k c #585858",
"l c #595959",
"m c #5c5c5c",
"n c #6f6f6f",
"o c #727272",
"p c #7a7a7a",
"q c #7c7c7c",
"r c #7d7d7d",
"s c #7f7f7f",
"t c #989898",
"u c #9b9b9b",
"v c #9d9d9d",
"w c #a0a0a0",
"x c #ababab",
"y c #adadad",
"z c #c6c6c6",
"A c #c8c8c8",
"B c #c9c9c9",
"C c #cbcbcb",
"D c #cccccc",
"E c #dfdfdf",
"F c #e6e6e6",
"G c #e8e8e8",
"H c #ececec",
"I c #ededed",
"J c #eeeeee",
"K c #f1f1f1",
"L c #f6f6f6",
"M c #f9f9f9",
"N c #fafafa",
"O c #fcfcfc",
"P c #fdfdfd",
"Q c #fefefe",
"R c #ffffff",
/* pixels */
"QQRQQQQQQQQQQQQQRRRR",
"QRRRQQQQQQQQQQQQRRRR",
"RQRRRQQQQQQQQQQQRRRR",
"RRRRRQQQQQQQQQQQRRRR",
"RRRRKEEEEEEEEEEMRRRR",
"QQRQx.........cJRRRR",
"QQRRNghFFFFFFysQRRRR",
"QQQQQw.CQQQQQkIQRRRR",
"QQQQQOfjQQQQArQQRRRR",
"QQRQQQv#DQQQlHQQRRRR",
"QQQQQQPdnQQBqQQQRRRR",
"QQQQQQQuaFQmGQQQRRRR",
"RQRRQQQMeoCpQQQQRRRR",
"QQRQRQQQtbiFQQQQRRRR",
"QQQQQQQQLdoQQQQQRRRR",
"QRRQQQQQQzHQQQQQRRRR",
"QQRRQQQQQQQQQQQQRRRR",
"QQQQQQQQQQQQQQQQRRRR",
"QRQRQQQQQQQQQQQQRRRR",
"QQRRQQQQQQQQQQQQRRRR"
};
