/* XPM */
static char *nexists[]={
"20 20 14 1",
"d c #000000",
"c c #111111",
"h c #444444",
"a c #555555",
"# c #666666",
"j c #777777",
"e c #888888",
"k c #999999",
"g c #aaaaaa",
"f c #bbbbbb",
"i c #cccccc",
"l c #dddddd",
"b c #eeeeee",
". c #ffffff",
"....................",
"....................",
"...........#........",
"...........a........",
"..........ba........",
"......cddddddd......",
"..........ef.d......",
"..........a..d......",
".........ba..d......",
".........ge..d......",
"......#ddddddd......",
".........h...d......",
".........a...d......",
"........ij...d......",
"........kg...d......",
"........#l...d......",
"......cddddddc......",
"........h...........",
"....................",
"...................."};
