/* XPM */
static char *ngeqslant[]={
"20 20 14 1",
"l c #222222",
"j c #333333",
"h c #444444",
"# c #555555",
"c c #666666",
"b c #777777",
"g c #888888",
"e c #999999",
"i c #aaaaaa",
"k c #bbbbbb",
"a c #cccccc",
"d c #dddddd",
"f c #eeeeee",
". c #ffffff",
".............#......",
"............ab......",
"............cd......",
"....b#e....f#.......",
".....fghe..gi.......",
"........ehgh........",
"..........bjbf......",
"..........#fk#b.....",
".........dc.ehb.....",
".........bbhe.......",
".......fble.........",
".....db#ce..fbj.....",
"....bhk.h.fb#i......",
".......a#c#k........",
"......dhca..........",
"....k###............",
"....idgi............",
"......h.............",
".....eg.............",
".....cd............."};
