/* XPM */
static char *ngeqq[]={
"20 20 44 1",
"q c #141414",
"N c #171717",
"M c #1d1d1d",
"L c #2b2b2b",
"a c #303030",
"O c #393939",
"F c #3b3b3b",
"u c #444444",
"D c #4c4c4c",
"H c #4f4f4f",
"K c #555555",
"d c #585858",
"C c #6b6b6b",
"n c #797979",
"c c #7c7c7c",
"r c #828282",
"w c #888888",
"m c #8d8d8d",
"t c #939393",
"E c #989898",
"h c #999999",
"x c #a1a1a1",
"z c #a4a4a4",
"G c #aaaaaa",
"s c #afafaf",
"I c #b0b0b0",
"P c #bababa",
"i c #bbbbbb",
"o c #bdbdbd",
"b c #c0c0c0",
"J c #cbcbcb",
"e c #cccccc",
"g c #d1d1d1",
"f c #d4d4d4",
"A c #dddddd",
"l c #dfdfdf",
"B c #e2e2e2",
"j c #e8e8e8",
"k c #eeeeee",
"y c #f3f3f3",
"v c #f6f6f6",
"# c #f9f9f9",
"p c #fefefe",
". c #ffffff",
"............#a......",
"............bc......",
"....dae.....af......",
"....gbhai..ja.......",
"......klhamnop......",
"..........oqrgj.....",
"..........stsud.....",
".........vawhxe.....",
".......yzdabA.......",
"....pBdasCi.........",
"....daf.vD..........",
"........st..........",
"....EaaaFaaaaaa.....",
"....iGGwHGGGGGI.....",
"....pppdJpppppp.....",
"....KLMNLLLLLLO.....",
"......tz............",
"......ak............",
".....Pd.............",
".....ab............."};
