/* XPM */
static char *nleqq[]={
"20 20 31 1",
"u c #2d2d2d",
"a c #303030",
"n c #4f4f4f",
"B c #555555",
"d c #585858",
"b c #808080",
"y c #888888",
"x c #a1a1a1",
"e c #aaaaaa",
"o c #afafaf",
"z c #b0b0b0",
"i c #b5b5b5",
"t c #bbbbbb",
"f c #c0c0c0",
"h c #c6c6c6",
"A c #cbcbcb",
"s c #cccccc",
"v c #d1d1d1",
"q c #dddddd",
"l c #dfdfdf",
"m c #e2e2e2",
"p c #e5e5e5",
"c c #e8e8e8",
"k c #ededed",
"C c #eeeeee",
"r c #f3f3f3",
"j c #f6f6f6",
"# c #f9f9f9",
"w c #fcfcfc",
"g c #fefefe",
". c #ffffff",
"............#a......",
"............ba......",
"............aaa.....",
"..........cdaef.....",
"......gghaaaij......",
"....kldaamja........",
"....dnam..oa........",
"....pdaaaqap........",
"......rstauv........",
"........waxaabg.....",
"........ja...aa.....",
"........oa..........",
"....daaaaaaaaaa.....",
"....teeyaeeeeez.....",
"....gggaAgggggg.....",
"....Baaaaaaaaaa.....",
"......da............",
"......aC............",
".....ba.............",
".....ab............."};
