/* XPM */
static char *nleqslant[]={
"20 20 14 1",
"l c #111111",
"h c #333333",
"f c #444444",
"# c #555555",
"c c #666666",
"b c #777777",
"j c #888888",
"k c #999999",
"i c #aaaaaa",
"g c #bbbbbb",
"a c #cccccc",
"d c #dddddd",
"e c #eeeeee",
". c #ffffff",
".............#......",
"............ab......",
"............cd......",
"...........efb#.....",
"..........d#fg......",
"........dcch........",
"......gfcdij........",
"....k#be..#e........",
"....iccd.dc.........",
"......dcc#a.........",
"........dl#g........",
"....c#g.kkeb#k......",
".....eb#h...ebf.....",
".......ghhk.........",
".......cd.kfk.......",
"......e#....khb.....",
"......ji......a.....",
"......f.............",
".....kj.............",
".....cd............."};
