/* XPM */
static char *notless[]={
"20 20 21 1",
"n c #111111",
"j c #171717",
"p c #222222",
"b c #333333",
"g c #444444",
"k c #484848",
"d c #555555",
"q c #585858",
"r c #666666",
"f c #717171",
"# c #777777",
"i c #7f7f7f",
"h c #888888",
"c c #999999",
"e c #aaaaaa",
"l c #bbbbbb",
"s c #cccccc",
"o c #cfcfcf",
"m c #dddddd",
"a c #eeeeee",
". c #ffffff",
"....................",
"....................",
".............#......",
"............ab......",
"............#c......",
"...........ad.e.....",
"...........#fgh.....",
".........aijc.......",
".......a#gkl........",
".....m#dlad.........",
"....#nl..#l.........",
".....cb#od..........",
".......epqa.........",
".......mgldrm.......",
".......rs..srrm.....",
"......mr.....mr.....",
"......rm............",
".....mr.............",
".....bm.............",
"...................."};
