/* XPM */
static char *nprec[]={
"20 20 15 1",
"j c #000000",
"i c #222222",
"l c #333333",
"f c #444444",
"b c #555555",
"h c #666666",
"c c #777777",
"# c #888888",
"m c #999999",
"k c #aaaaaa",
"d c #bbbbbb",
"g c #cccccc",
"e c #dddddd",
"a c #eeeeee",
". c #ffffff",
"....................",
"....................",
".............#......",
"............ab......",
"............cd......",
"...........ab.e.....",
"...........cd.f.....",
"..........ab.gh.....",
"..........cdgfa.....",
".........aihha......",
"....#jjjjjhe........",
".......aklhfm.......",
"........hd..#h......",
".......ef....mc.....",
".......hd.....b.....",
"......eb......#.....",
"......he............",
".....eh.............",
"....................",
"...................."};
