/* XPM */
static char *nshortmid[]={
"20 20 9 1",
"a c #000000",
"# c #444444",
"c c #666666",
"d c #777777",
"b c #888888",
"f c #999999",
"g c #cccccc",
"e c #eeeeee",
". c #ffffff",
"....................",
"....................",
"....................",
"....................",
"....................",
".........#..........",
".........a.b........",
".........acd........",
"........eaf.........",
"........ba..........",
".......gda..........",
".........a..........",
".........a..........",
".........c..........",
"....................",
"....................",
"....................",
"....................",
"....................",
"...................."};
