/* XPM */
static char *nsim[]={
"20 20 15 1",
"d c #000000",
"l c #222222",
"i c #333333",
"a c #444444",
"e c #555555",
"c c #666666",
"h c #777777",
"k c #888888",
"j c #999999",
"m c #aaaaaa",
"f c #bbbbbb",
"g c #cccccc",
"# c #dddddd",
"b c #eeeeee",
". c #ffffff",
"....................",
"....................",
"....................",
"....................",
"....................",
"....................",
"...........#a.......",
"..........ba#.......",
"....bcddefeg...d....",
"....ch.bhdc...hi....",
"....d...jcik.jdf....",
"....a..fc.bcdlm.....",
"......gab...........",
"......kg............",
"....................",
"....................",
"....................",
"....................",
"....................",
"...................."};
