/* XPM */
static char *notsqsubseteq[]={
"20 20 13 1",
"d c #000000",
"c c #111111",
"b c #333333",
"f c #555555",
"i c #666666",
"# c #777777",
"e c #999999",
"j c #aaaaaa",
"g c #bbbbbb",
"k c #cccccc",
"h c #dddddd",
"a c #eeeeee",
". c #ffffff",
"....................",
"....................",
".............#......",
"............ab......",
"....cdddddddddde....",
"....d......af.......",
"....d......#g.......",
"....d.....af........",
"....d.....#g........",
"....d....af.........",
"....d....#g.........",
"....d...hf..........",
"....d...ig..........",
"....cddddddddddj....",
".......ik...........",
"......hi............",
"......ih............",
"....eddddddddddg....",
".....bh.............",
"...................."};
