/* XPM */
static char *notsubset[]={
"20 20 17 1",
"e c #000000",
"f c #111111",
"d c #222222",
"m c #303030",
"b c #333333",
"l c #444444",
"j c #555555",
"h c #666666",
"# c #777777",
"c c #999999",
"n c #a4a4a4",
"i c #bbbbbb",
"g c #cccccc",
"o c #cfcfcf",
"k c #dddddd",
"a c #eeeeee",
". c #ffffff",
"....................",
"....................",
"..............#.....",
".............ab.....",
".............#c.....",
".......a#deeeeef....",
"......gdhg..#i......",
".....afc...aj.......",
".....#h....#i.......",
".....dk...aj........",
".....e....#i........",
".....fa..kj.........",
".....h#..hi.........",
".....kdgkl..........",
"......gfmn..........",
".......omdeeeeef....",
".......hk...........",
"......kh............",
"......bk............",
"...................."};
