/* XPM */
static char *nsucc[]={
"20 20 16 1",
"j c #000000",
"k c #111111",
"e c #222222",
"m c #333333",
"i c #444444",
"b c #555555",
"g c #666666",
"c c #777777",
"# c #888888",
"f c #999999",
"h c #aaaaaa",
"d c #bbbbbb",
"n c #cccccc",
"l c #dddddd",
"a c #eeeeee",
". c #ffffff",
"....................",
"....................",
".............#......",
"............ab......",
"............cd......",
"....d......ab.......",
"....ed.....cd.......",
"....fb....ab........",
".....gg...cd........",
"......hi#db.........",
"........dejjjjk.....",
"......lgmmdn........",
".....nincd..........",
"....aiali...........",
"....cf.gd...........",
"....bllb............",
"......gl............",
".....lg.............",
"....................",
"...................."};
