/* XPM */
static char *nsucceq[]={
"20 20 16 1",
"n c #000000",
"e c #111111",
"j c #222222",
"l c #333333",
"# c #444444",
"g c #555555",
"c c #666666",
"b c #777777",
"h c #888888",
"m c #999999",
"i c #aaaaaa",
"k c #bbbbbb",
"a c #cccccc",
"d c #dddddd",
"f c #eeeeee",
". c #ffffff",
".............#......",
"............ab......",
"............cd......",
"....ea.....fg.......",
"....bb.....hi.......",
".....ga....#........",
".....fcca.ih........",
".......ab#jbbgj.....",
".......kcl#mk.......",
".....fgbfba.........",
".....ga..#..........",
"....mb..mm..........",
"....la..#f..........",
".......dc...........",
".......bk...........",
".......l............",
"....#nnnnnnnnne.....",
"......cd............",
".....kb.............",
".....ma............."};
