/* XPM */
static char *nsupseteqq[]={
"20 20 16 1",
"c c #000000",
"n c #111111",
"m c #222222",
"i c #333333",
"d c #444444",
"g c #555555",
"l c #666666",
"# c #777777",
"b c #888888",
"e c #999999",
"k c #aaaaaa",
"a c #bbbbbb",
"f c #cccccc",
"j c #dddddd",
"h c #eeeeee",
". c #ffffff",
"....................",
".............#a.....",
"....bccccccded......",
"...........fgg......",
"............d#e.....",
"...........ebhi.....",
"...........dh.c.....",
"..........a#..c.....",
"..........dj.kg.....",
".........fl..ia.....",
".........lajd#......",
"....bcccccdga.......",
"........#a..........",
".......jl...........",
"....ecccccccccm.....",
"....h..d......h.....",
"......kb............",
"......gh............",
"....bcccccccccn.....",
".....#a............."};
