/* XPM */
static char *odot[] = {
/* width height num_colors chars_per_pixel */
"    20    20       42            1",
/* colors */
". c #0c0c0c",
"# c #0f0f0f",
"a c #393939",
"b c #3c3c3c",
"c c #6c6c6c",
"d c #6f6f6f",
"e c #737373",
"f c #757575",
"g c #767676",
"h c #787878",
"i c #797979",
"j c #7c7c7c",
"k c #828282",
"l c #838383",
"m c #848484",
"n c #868686",
"o c #8d8d8d",
"p c #949494",
"q c #969696",
"r c #999999",
"s c #9c9c9c",
"t c #a2a2a2",
"u c #afafaf",
"v c #b0b0b0",
"w c #bbbbbb",
"x c #bebebe",
"y c #cdcdcd",
"z c #d4d4d4",
"A c #d9d9d9",
"B c #dddddd",
"C c #e4e4e4",
"D c #e6e6e6",
"E c #eaeaea",
"F c #ececec",
"G c #efefef",
"H c #f4f4f4",
"I c #f8f8f8",
"J c #fafafa",
"K c #fbfbfb",
"L c #fdfdfd",
"M c #fefefe",
"N c #ffffff",
/* pixels */
"MMNMMMMMMMMMMMMMNNNN",
"MNNNMMMMMMMMMMMMNNNN",
"NMNNNMMMMMMMMMMMNNNN",
"NNNNNMMMMMMMMMMMNNNN",
"NNNNNMMMMMMMMMMMNNNN",
"MMNMMMMxckkdAMMMNNNN",
"MMNNNMmtJMMHjvMMNNNN",
"MMMMMyqMMMMMMdHMNNNN",
"MMMMMhIMMMMMMzsMNNNN",
"MMNMMfMMG#bMMKhMNNNN",
"MMMMMfMMG.aMMLgMNNNN",
"MMMMMgLMMBEMMDoMNNNN",
"NMNNMvuMMMMMMiDMNNNN",
"MMNMNMlwMMMJpvMMNNNN",
"MMMMMMMreoncxMMMNNNN",
"MNNMMMMMMCFMMMMMNNNN",
"MMNNMMMMMMMMMMMMNNNN",
"MMMMMMMMMMMMMMMMNNNN",
"MNMNMMMMMMMMMMMMNNNN",
"MMNNMMMMMMMMMMMMNNNN"
};
