/* XPM */
static char *oslash[] = {
/* width height num_colors chars_per_pixel */
"    20    20       44            1",
/* colors */
". c #656565",
"# c #676767",
"a c #6b6b6b",
"b c #6c6c6c",
"c c #6d6d6d",
"d c #6e6e6e",
"e c #6f6f6f",
"f c #737373",
"g c #757575",
"h c #767676",
"i c #787878",
"j c #797979",
"k c #828282",
"l c #848484",
"m c #868686",
"n c #8d8d8d",
"o c #949494",
"p c #969696",
"q c #999999",
"r c #9c9c9c",
"s c #a2a2a2",
"t c #aaaaaa",
"u c #afafaf",
"v c #b0b0b0",
"w c #bebebe",
"x c #cdcdcd",
"y c #d4d4d4",
"z c #d9d9d9",
"A c #dddddd",
"B c #dfdfdf",
"C c #e1e1e1",
"D c #e2e2e2",
"E c #e4e4e4",
"F c #e6e6e6",
"G c #ececec",
"H c #f4f4f4",
"I c #f6f6f6",
"J c #f7f7f7",
"K c #f8f8f8",
"L c #fafafa",
"M c #fbfbfb",
"N c #fdfdfd",
"O c #fefefe",
"P c #ffffff",
/* pixels */
"OOPOOOOOOOOOOOOOPPPP",
"OPPPOOOOOOOOOOOOPPPP",
"POPPPOOOOOOOOOOOPPPP",
"PPPPPOOOOOOOOOOOPPPP",
"PPPPPOOOOOOOOOOOPPPP",
"OOPOOOOwbkkezOOOPPPP",
"OOPPPOlsLOOH#uOOPPPP",
"OOOOOxpOOOOAcdHOPPPP",
"OOOOOiKOOOBcKyrOPPPP",
"OOPOOgOOOCaJOMiOPPPP",
"OOOOOgOODaJOONhOPPPP",
"OOOOOhNK.IOOOFnOPPPP",
"POPPOvtcAOOOOjFOPPPP",
"OOPOPOiqOOOLovOOPPPP",
"OOOOOOOqfnmbwOOOPPPP",
"OPPOOOOOOEGOOOOOPPPP",
"OOPPOOOOOOOOOOOOPPPP",
"OOOOOOOOOOOOOOOOPPPP",
"OPOPOOOOOOOOOOOOPPPP",
"OOPPOOOOOOOOOOOOPPPP"
};
