/* XPM */
static char *overline[] = {
/* width height num_colors chars_per_pixel */
"    35    20       74            2",
/* colors */
".. c #000000",
".# c #080808",
".a c #0e0e0e",
".b c #141414",
".c c #1b1b1b",
".d c #1c1c1c",
".e c #232323",
".f c #272727",
".g c #2f2f2f",
".h c #313131",
".i c #434343",
".j c #444444",
".k c #464646",
".l c #4b4b4b",
".m c #515151",
".n c #525252",
".o c #555555",
".p c #5c5c5c",
".q c #5d5d5d",
".r c #5e5e5e",
".s c #626262",
".t c #646464",
".u c #656565",
".v c #686868",
".w c #696969",
".x c #6b6b6b",
".y c #6e6e6e",
".z c #727272",
".A c #757575",
".B c #787878",
".C c #7f7f7f",
".D c #818181",
".E c #828282",
".F c #898989",
".G c #8f8f8f",
".H c #969696",
".I c #989898",
".J c #9e9e9e",
".K c #a1a1a1",
".L c #a3a3a3",
".M c #a4a4a4",
".N c #a6a6a6",
".O c #a9a9a9",
".P c #afafaf",
".Q c #b2b2b2",
".R c #b4b4b4",
".S c #bababa",
".T c #bbbbbb",
".U c #c0c0c0",
".V c #c9c9c9",
".W c #d0d0d0",
".X c #d4d4d4",
".Y c #d9d9d9",
".Z c #dcdcdc",
".0 c #dedede",
".1 c #dfdfdf",
".2 c #e0e0e0",
".3 c #e6e6e6",
".4 c #e7e7e7",
".5 c #e8e8e8",
".6 c #eaeaea",
".7 c #ebebeb",
".8 c #ededed",
".9 c #efefef",
"#. c #f0f0f0",
"## c #f1f1f1",
"#a c #f4f4f4",
"#b c #f7f7f7",
"#c c #f9f9f9",
"#d c #fbfbfb",
"#e c #fcfcfc",
"#f c #fdfdfd",
"#g c #fefefe",
"#h c #ffffff",
/* pixels */
"#g#h#g#g#h#h#h#h#g#h#h#h#h#h#h#h#g#g#g#g#g#g#g#g#g#g#g#g#g#g#g#g#h#g#g",
"#h#g#h#g#h#h#h#h#g#h#h#h#h#h#h#h#g#g#g#g#g#g#g#g#g#g#g#g#g#g#g#g#h#g#g",
"#h#g#h#g#h#h#h#h#g#h#h#h#h#h#h#h#g#g#g#g#g#g#g#g#g#g#g#g#g#g#g#g#h#g#g",
"#h#g#h#g#h#h#g#h#g#h#h#h#h#h#h#h#f#f#f#g#f#f#f#g#g#g#g#g#g#g#g#g#h#g#g",
"#h#g#h#g#h#h#h#h#g#h#..j.j.j.j.j.j.j.j.j.j.j.j.j.t#g#g#g#g#g#g#g#h#g#g",
"#h#g#h#g#h#h#h#g#g#h#h#h#h#g#h#h#g#g#g#c.Y.K.Z#g#g#g#g#g#g#g#g#g#h#g#g",
"#h#h#h#g#h#h#h#h#g#h#h#h#h#h#h#h#g#g#g##.G...2#g#g#g#g#g#g#g#g#g#h#g#g",
"#g#g#h#g#g#h#h#h#g#h#h#h#g#g#h#h#g#g#g#f.J.e#f#g#g#g#g#g#g#g#g#g#h#g#g",
"#g#g#h#g#h#h#h#h#g#h#h#h#h#h#h#h#g#g#g#g.q.s#g#g#g#g#g#g#g#g#g#g#h#g#g",
"#g#g#h#g#h#h#h#h#g#h#h#h#h.X.E.I.W.4#g#g.d.z.E.N#g#g#g#g#g#g#g#g#h#g#g",
"#g#h#g#g#h#h#h#h#g#h#h#h.S.g.3.R...P#g.Y...C#b.k.O#g#g#g#g#g#g#g#h#g#g",
"#h#g#g#g#h#g#g#g#g#h#h#..b.T#h.1.#.4#g.I.f#f#f.o.x#g#g#g#g#g#g#g#h#g#g",
"#h#g#h#g#h#h#h#h#g#h#h.H.c#h#h.J.h#g#g.p.v#g#g.h.C#g#g#g#g#g#g#g#h#g#g",
"#g#g#g#g#h#h#h#h#g#h#h.x.p#h#h.r.z.0#a.f.L#g.3.#.U#g#g#g#g#g#g#g#h#g#g",
"#h#g#g#g#h#h#g#g#g#h#h.E.y#g.4.a.M.A##.i.Q#g.D.m#d#g#g#g#g#g#g#g#h#g#g",
"#h#g#g#g#g#h#h#h#g#h#h.6.l.C.y.u.w.F#f.V.n.B.w.8#g#g#g#g#g#g#g#g#h#g#g",
"#h#h#h#g#h#h#h#h#g#h#h#h#e.5#h#h.7#f#g#f#a.9#f#g#g#g#g#g#g#g#g#g#h#g#g",
"#g#g#h#g#g#h#h#h#g#h#h#h#f#f#h#h#f#g#g#g#f#f#g#g#g#g#g#g#g#g#g#g#h#g#g",
"#g#g#h#g#h#h#h#h#g#h#h#h#h#h#h#h#g#g#g#g#g#g#g#g#g#g#g#g#g#g#g#g#h#g#g",
"#g#g#h#g#h#h#h#h#g#h#h#h#h#h#h#h#g#g#g#g#g#g#g#g#g#g#g#g#g#g#g#g#h#g#g"
};
