/* XPM */
static char *overbrace[] = {
/* width height num_colors chars_per_pixel */
"    35    20      114            2",
/* colors */
".. c #000000",
".# c #020202",
".a c #050505",
".b c #090909",
".c c #0b0b0b",
".d c #0c0c0c",
".e c #0e0e0e",
".f c #111111",
".g c #121212",
".h c #131313",
".i c #181818",
".j c #191919",
".k c #1d1d1d",
".l c #1e1e1e",
".m c #232323",
".n c #252525",
".o c #272727",
".p c #282828",
".q c #2e2e2e",
".r c #2f2f2f",
".s c #303030",
".t c #333333",
".u c #373737",
".v c #3c3c3c",
".w c #454545",
".x c #464646",
".y c #484848",
".z c #494949",
".A c #4b4b4b",
".B c #4e4e4e",
".C c #515151",
".D c #525252",
".E c #535353",
".F c #565656",
".G c #595959",
".H c #5c5c5c",
".I c #616161",
".J c #646464",
".K c #696969",
".L c #6b6b6b",
".M c #6c6c6c",
".N c #6e6e6e",
".O c #707070",
".P c #717171",
".Q c #727272",
".R c #757575",
".S c #787878",
".T c #7b7b7b",
".U c #7d7d7d",
".V c #7f7f7f",
".W c #818181",
".X c #828282",
".Y c #858585",
".Z c #868686",
".0 c #878787",
".1 c #898989",
".2 c #8a8a8a",
".3 c #8b8b8b",
".4 c #8d8d8d",
".5 c #8e8e8e",
".6 c #8f8f8f",
".7 c #929292",
".8 c #9a9a9a",
".9 c #9b9b9b",
"#. c #9e9e9e",
"## c #a0a0a0",
"#a c #a1a1a1",
"#b c #a2a2a2",
"#c c #a3a3a3",
"#d c #ababab",
"#e c #acacac",
"#f c #aeaeae",
"#g c #b0b0b0",
"#h c #b2b2b2",
"#i c #b5b5b5",
"#j c #b6b6b6",
"#k c #b7b7b7",
"#l c #b8b8b8",
"#m c #bababa",
"#n c #bfbfbf",
"#o c #c1c1c1",
"#p c #c2c2c2",
"#q c #c4c4c4",
"#r c #c5c5c5",
"#s c #c7c7c7",
"#t c #cbcbcb",
"#u c #cecece",
"#v c #cfcfcf",
"#w c #d2d2d2",
"#x c #d5d5d5",
"#y c #d7d7d7",
"#z c #d8d8d8",
"#A c #dadada",
"#B c #dcdcdc",
"#C c #e1e1e1",
"#D c #e3e3e3",
"#E c #e8e8e8",
"#F c #e9e9e9",
"#G c #eaeaea",
"#H c #ebebeb",
"#I c #ececec",
"#J c #ededed",
"#K c #efefef",
"#L c #f0f0f0",
"#M c #f1f1f1",
"#N c #f2f2f2",
"#O c #f3f3f3",
"#P c #f7f7f7",
"#Q c #f8f8f8",
"#R c #fafafa",
"#S c #fcfcfc",
"#T c #fdfdfd",
"#U c #fefefe",
"#V c #ffffff",
/* pixels */
"#U#V#U#U#V#V#V#V#U#V#V#V#V#V#V#V#U#U#U#U#U#U#U#U#U#U#U#U#U#U#U#U#V#U#U",
"#V#U#V#U#V#V#V#V#U#V#V#V#V#V#V#V#U#P#T#U#U#U#U#U#U#U#U#U#U#U#U#U#V#U#U",
"#V#U#V#U#V#V#V#V#U#V#V#V#V#V#V#V#L.m.Q#S#U#U#U#U#U#U#U#U#U#U#U#U#V#U#U",
"#V#U#V#U#V#V#U#V#U#V#V#V#V#V#F.8.o.R.q.F#n#K#U#U#U#U#U#U#U#U#U#U#V#U#U",
"#V#U#V#U#V#V#V#V#U#V#o.G.n.n.a.j#.#U#E.H.c.e.n.r.U#E#U#U#U#U#U#U#V#U#U",
"#V#U#V#U#V#V#V#U#S.O.f.z.0#a#k#N#U#U#U#U#C###a.S.t.i#p#U#U#U#U#U#V#U#U",
"#V#V#V#U#V#V#V#V.W.s#D#V#V#V#V#V#U#U#U#U#T#T#U#U#R#g.p#A#U#U#U#U#V#U#U",
"#U#U#V#U#U#V#V#V.6#H#V#V#U#T#V#V#T#U#U#T#T#T#T#T#U#U#e#w#U#U#U#U#V#U#U",
"#U#U#V#U#V#V#V#V#U#V#V#V#V#V#V#V#T#U#U#J.0.C#u#T#T#U#U#U#U#U#U#U#V#U#U",
"#U#U#V#U#V#V#V#V#U#V#V#V#V#V#V#V#T#U#U#T#q.b#I#T#T#U#U#U#U#U#U#U#V#U#U",
"#U#V#U#U#V#V#V#V#U#V#V#V#V#V#V#V#T#U#U#T.1.u#T#T#T#U#U#U#U#U#U#U#V#U#U",
"#V#U#U#U#V#U#U#U#U#V#V#V#V#V#V#V#T#T#T#T.y.S#T#T#U#U#U#U#U#U#U#U#V#U#U",
"#V#U#V#U#V#V#V#V#U#V#V#V#T.5.K.M.V#s#T#N.h.x.T.I#O#U#U#U#U#U#U#U#V#U#U",
"#U#U#U#U#V#V#V#V#U#V#V#V.S.E#V#z..#p#U#r.d#s#T.F.Y#U#U#U#U#U#U#U#V#U#U",
"#V#U#U#U#V#V#U#U#U#V#V#x.e#B#V#t.g#M#U.Y.v#T#U.F.L#U#U#U#U#U#U#U#V#U#U",
"#V#U#U#U#U#V#V#V#U#V#V.X.r#V#V.2.w#T#T.D.T#T#T.l.7#U#U#U#U#U#U#U#V#U#U",
"#V#V#V#U#V#V#V#V#U#V#V.L.O#V#V.z.Z#i#G.k#f#U#v.b#y#U#U#U#U#U#U#U#V#U#U",
"#U#U#V#U#U#V#V#V#U#V#V#b.B#U#h.##d.N#S.J.9#P.A.4#U#U#U#U#U#U#U#U#V#U#U",
"#U#U#V#U#V#V#V#V#U#V#V#Q.3.K#c#j.N#m#U#M.Q.P#l#T#U#U#U#U#U#U#U#U#V#U#U",
"#U#U#V#U#V#V#V#V#U#V#V#V#V#V#V#V#U#U#U#U#U#U#U#U#U#U#U#U#U#U#U#U#V#U#U"
};
