/* XPM */
static char *overrightarrow[]={
"20 20 18 1",
"e c #000000",
"d c #040404",
"f c #111111",
"j c #222222",
"i c #2e2e2e",
"o c #333333",
"m c #444444",
"p c #555555",
"b c #666666",
"# c #777777",
"h c #888888",
"n c #999999",
"g c #aaaaaa",
"k c #bbbbbb",
"l c #cccccc",
"c c #dddddd",
"a c #eeeeee",
". c #ffffff",
"....................",
"....................",
".............#......",
".............#a.....",
".............abc....",
"..deeeeeeeeeeefg....",
".............ca.....",
"...........hei......",
"............bh......",
"............jk......",
"...........ce.......",
"...lme#b...nomeol...",
"..aoa.hj...bp..ko...",
"..#h..hb...jk..ce...",
"..jk..pn...e...hj...",
"..e...fcl..j..ajn...",
"..ja.kj.h..fa.bb....",
"..nepnofg..nej#.....",
"....................",
"...................."};
