/* XPM */
static char *P[]={
"20 20 11 1",
"c c #000000",
"b c #111111",
"g c #333333",
"i c #444444",
"e c #555555",
"a c #666666",
"h c #999999",
"d c #cccccc",
"# c #dddddd",
"f c #eeeeee",
". c #ffffff",
"....................",
"....................",
"......#abccccb......",
".....dbcccc.c.......",
".....eccccc.c.......",
".....cccccc.c.......",
".....cccccc.c.......",
".....accccc.c.......",
".....fgcccc.c.......",
".......hicc.c.......",
"..........c.c.......",
"..........c.c.......",
"..........c.c.......",
"..........c.c.......",
"..........c.c.......",
"..........c.c.......",
"..........c.c.......",
"..........g.i.......",
"....................",
"...................."};
