/* XPM */
static char *pi[] = {
/* width height num_colors chars_per_pixel */
"    20    20       37            1",
/* colors */
". c #111111",
"# c #151515",
"a c #292929",
"b c #2d2d2d",
"c c #2e2e2e",
"d c #313131",
"e c #3f3f3f",
"f c #464646",
"g c #505050",
"h c #555555",
"i c #5c5c5c",
"j c #686868",
"k c #6b6b6b",
"l c #6f6f6f",
"m c #767676",
"n c #7f7f7f",
"o c #969696",
"p c #9a9a9a",
"q c #9b9b9b",
"r c #a3a3a3",
"s c #acacac",
"t c #b0b0b0",
"u c #bfbfbf",
"v c #c7c7c7",
"w c #cdcdcd",
"x c #d2d2d2",
"y c #d3d3d3",
"z c #d5d5d5",
"A c #d7d7d7",
"B c #dfdfdf",
"C c #e3e3e3",
"D c #f1f1f1",
"E c #f6f6f6",
"F c #f8f8f8",
"G c #fcfcfc",
"H c #fefefe",
"I c #ffffff",
/* pixels */
"HHIHHHHHHHHHHHHHIIII",
"HIIIHHHHHHHHHHHHIIII",
"IHIIIHHHHHHHHHHHIIII",
"IIIIIHHHHHHHHHHHIIII",
"IIIIIHHHHHHHHHHHIIII",
"HHIHHHHHHHHHHHHHIIII",
"HHIIIHHGyyyyyBHHIIII",
"HHHHHHDeb.a#djHHIIII",
"HHHHHHmvwoApHHHHIIII",
"HHIHHHGHnzqsHHHHIIII",
"HHHHHHHFcIksHHHHIIII",
"HHHHHHHthHipHHHHIIII",
"IHIIHHHfrHlgHHHHIIII",
"HHIHIHHuEHCxHHHHIIII",
"HHHHHHHHHHHHHHHHIIII",
"HIIHHHHHHHHHHHHHIIII",
"HHIIHHHHHHHHHHHHIIII",
"HHHHHHHHHHHHHHHHIIII",
"HIHIHHHHHHHHHHHHIIII",
"HHIIHHHHHHHHHHHHIIII"
};
