/* XPM */
static char *pitchfork[]={
"20 20 13 1",
"a c #000000",
"j c #111111",
"e c #222222",
"# c #333333",
"d c #444444",
"f c #666666",
"c c #777777",
"h c #888888",
"i c #999999",
"g c #bbbbbb",
"b c #cccccc",
"k c #dddddd",
". c #ffffff",
"....................",
"....................",
"....................",
"....................",
".........#..........",
".........a..........",
".........a..........",
"........ba..........",
"......cdcaaefg......",
".....ch..a..g#i.....",
".....j...a...kj.....",
".....a...a....a.....",
".....a...a....a.....",
".....a...a....a.....",
".....a...a....a.....",
".....a...a....a.....",
".....a...a....a.....",
"....................",
"....................",
"...................."};
