/* XPM */
static char *pm[] = {
/* width height num_colors chars_per_pixel */
"    20    20       17            1",
/* colors */
". c #3a3a3a",
"# c #404040",
"a c #424242",
"b c #5c5c5c",
"c c #646464",
"d c #747474",
"e c #8a8a8a",
"f c #8c8c8c",
"g c #9a9a9a",
"h c #a2a2a2",
"i c #dcdcdc",
"j c #e3e3e3",
"k c #e6e6e6",
"l c #efefef",
"m c #f2f2f2",
"n c #fefefe",
"o c #ffffff",
/* pixels */
"onononnnnnnnnnnnoooo",
"nnonnnnnnnnnnnnnoooo",
"ooononnnnnnnnnnnoooo",
"ooooonnonjmnnonnoooo",
"ooooonnnnhhnnnnnoooo",
"onononnnnhhnnnnnoooo",
"nooonnnnnhhnnnnnoooo",
"nnoonnnnnhhnnnnnoooo",
"ooooodccc##cccgnoooo",
"oooookiiiffiiilnoooo",
"noononnnnhhnnnnnoooo",
"noonnnnnnhhnnnnnoooo",
"ooooonnnnhhnnnnnoooo",
"ooonobaaa..aaaenoooo",
"ooooonnnnnnnnnnnoooo",
"ooooonnnnnnnnnnnoooo",
"nnononnnnnnnnnnnoooo",
"oooonnnnnnnnnnnnoooo",
"ooooonnnnnnnnnnnoooo",
"ooooonnnnnnnnnnnoooo"
};
