/* XPM */
static char *precnapprox[]={
"20 20 16 1",
"m c #000000",
"n c #111111",
"j c #222222",
"i c #333333",
"e c #444444",
"a c #555555",
"c c #666666",
"h c #777777",
"# c #888888",
"k c #999999",
"g c #aaaaaa",
"d c #bbbbbb",
"l c #cccccc",
"b c #dddddd",
"f c #eeeeee",
". c #ffffff",
"..............#.....",
"..............a.....",
".............bc.....",
"............deb.....",
".......fdghehf......",
"....dhhaeij#f.......",
"...........gek......",
"............fig.....",
".............li.....",
"..............a.....",
"...........f........",
"...........eb.......",
"....fammn#dc..fn....",
"....eh..gamk.bah....",
"....j....daemjh.....",
".........af.........",
"....fammja....fm....",
"....eh..aaed.bah....",
"....j..dh.dimjh.....",
".......hf..........."};
