/* XPM */
static char *precneqq[]={
"20 20 15 1",
"g c #000000",
"m c #111111",
"h c #333333",
"e c #444444",
"# c #555555",
"b c #666666",
"j c #777777",
"l c #888888",
"d c #999999",
"f c #aaaaaa",
"c c #bbbbbb",
"k c #cccccc",
"i c #dddddd",
"a c #eeeeee",
". c #ffffff",
"....................",
"..............#.....",
".............a#.....",
".............bc.....",
"..........adef......",
"....fgheee#da.......",
"....iccdjbeji.......",
"...........k#d......",
".............bf.....",
"..............#.....",
"..............b.....",
"............df......",
"...........db.......",
"....lgggggggggm.....",
".........k#i........",
"........db..........",
"....lgggggggggm.....",
"......kea...........",
"......#a............",
"...................."};
