/* XPM */
static char *precnsim[]={
"20 20 16 1",
"i c #000000",
"j c #111111",
"m c #222222",
"l c #333333",
"k c #444444",
"a c #555555",
"d c #666666",
"# c #777777",
"g c #888888",
"b c #999999",
"h c #aaaaaa",
"f c #bbbbbb",
"n c #cccccc",
"e c #dddddd",
"c c #eeeeee",
". c #ffffff",
"....................",
"..............#.....",
"..............a.....",
".............b#.....",
"...........c#d......",
".......efgdah.......",
"....giiiij#e........",
".........ffdae......",
"............eke.....",
".............ea.....",
"..............a.....",
"...........e..e.....",
"...........ac.......",
"..........h#........",
".....#ij#clc...m....",
"....#acc#jb...fl....",
"....me..cllh.flh....",
"....m...#feaimh.....",
".......ea...........",
".......#n..........."};
