/* XPM */
static char *propto[] = {
/* width height num_colors chars_per_pixel */
"    20    20       48            1",
/* colors */
". c #0c0c0c",
"# c #1d1d1d",
"a c #232323",
"b c #2d2d2d",
"c c #363636",
"d c #3c3c3c",
"e c #434343",
"f c #444444",
"g c #454545",
"h c #4b4b4b",
"i c #575757",
"j c #595959",
"k c #5c5c5c",
"l c #5e5e5e",
"m c #636363",
"n c #696969",
"o c #6c6c6c",
"p c #6d6d6d",
"q c #6f6f6f",
"r c #757575",
"s c #7c7c7c",
"t c #929292",
"u c #959595",
"v c #969696",
"w c #999999",
"x c #9b9b9b",
"y c #a9a9a9",
"z c #aeaeae",
"A c #b5b5b5",
"B c #bdbdbd",
"C c #cdcdcd",
"D c #cfcfcf",
"E c #d3d3d3",
"F c #dddddd",
"G c #e0e0e0",
"H c #e3e3e3",
"I c #e5e5e5",
"J c #e8e8e8",
"K c #eaeaea",
"L c #ededed",
"M c #f1f1f1",
"N c #f4f4f4",
"O c #f5f5f5",
"P c #f6f6f6",
"Q c #f8f8f8",
"R c #fdfdfd",
"S c #fefefe",
"T c #ffffff",
/* pixels */
"SSTSSSSSSSSSSSSSTTTT",
"STTTSSSSSSSSSSSSTTTT",
"TSTTTSSSSSSSSSSSTTTT",
"TTTTTSSSSSSSSSSSTTTT",
"TTTTTSSSSSSSSSSSTTTT",
"SSTSSSSSSSSSSSSSTTTT",
"SSTTTSDuyQSSKvASTTTT",
"SSSSSCjzmbIFfBMSTTTT",
"SSSSSnQSRledHSSSTTTT",
"SSTSSrSSSL#pSSSSTTTT",
"SSSSSrSSSPc.HSSSTTTT",
"SSSSSsISRswhgQSSTTTT",
"TSTTSNoqktSOiaxSTTTT",
"SSTSTSSEPSSSSJGSTTTT",
"SSSSSSSSSSSSSSSSTTTT",
"STTSSSSSSSSSSSSSTTTT",
"SSTTSSSSSSSSSSSSTTTT",
"SSSSSSSSSSSSSSSSTTTT",
"STSTSSSSSSSSSSSSTTTT",
"SSTTSSSSSSSSSSSSTTTT"
};
