/* XPM */
static char *psi[] = {
/* width height num_colors chars_per_pixel */
"    20    20       48            1",
/* colors */
". c #121212",
"# c #242424",
"a c #272727",
"b c #2b2b2b",
"c c #4a4a4a",
"d c #4b4b4b",
"e c #585858",
"f c #5b5b5b",
"g c #676767",
"h c #6c6c6c",
"i c #737373",
"j c #757575",
"k c #787878",
"l c #7d7d7d",
"m c #818181",
"n c #838383",
"o c #8b8b8b",
"p c #8d8d8d",
"q c #8e8e8e",
"r c #909090",
"s c #9c9c9c",
"t c #a5a5a5",
"u c #adadad",
"v c #aeaeae",
"w c #b1b1b1",
"x c #b5b5b5",
"y c #bfbfbf",
"z c #c2c2c2",
"A c #c5c5c5",
"B c #c6c6c6",
"C c #cbcbcb",
"D c #cfcfcf",
"E c #d4d4d4",
"F c #d8d8d8",
"G c #e1e1e1",
"H c #e4e4e4",
"I c #e5e5e5",
"J c #e8e8e8",
"K c #eaeaea",
"L c #ededed",
"M c #efefef",
"N c #f0f0f0",
"O c #f2f2f2",
"P c #f4f4f4",
"Q c #f9f9f9",
"R c #fcfcfc",
"S c #fefefe",
"T c #ffffff",
/* pixels */
"SSTSSSSSSSSSSSSSTTTT",
"STTTSSSSSSSSSSSSTTTT",
"TSTTTSSSSSSSSSSSTTTT",
"TTTTTSSSSSSrQSSSTTTT",
"TTTTTSSSSSSjSSSSTTTT",
"SSTSSSSSSSIqSSSSTTTT",
"SSTTTSSSSSvASSSSTTTT",
"SSSSSPhczSmOuaSSTTTT",
"SSSSSsEfrSjSK#SSTTTT",
"SSTSStK.FJoSSiSSTTTT",
"SSSSSSubSwzSLjSSTTTT",
"SSSSSSmeSnNRgMSSTTTT",
"TSTTSSBaGjHkDSSSTTTT",
"SSTSTSSCldpNSSSSTTTT",
"SSSSSSSSxySSSSSSTTTT",
"STTSSSSSnNSSSSSSTTTT",
"SSTTSSSSBSSSSSSSTTTT",
"SSSSSSSSSSSSSSSSTTTT",
"STSTSSSSSSSSSSSSTTTT",
"SSTTSSSSSSSSSSSSTTTT"
};
