/* XPM */
static char *rangle[]={
"20 20 13 1",
"i c #333333",
"e c #444444",
"# c #555555",
"a c #666666",
"d c #777777",
"f c #888888",
"j c #999999",
"g c #aaaaaa",
"k c #bbbbbb",
"c c #cccccc",
"b c #dddddd",
"h c #eeeeee",
". c #ffffff",
"....................",
"........#...........",
"........ab..........",
"........cd..........",
".........e..........",
".........fg.........",
".........h#.........",
"..........#h........",
"..........gf........",
"...........i........",
"..........cd........",
"..........ab........",
"..........e.........",
".........jj.........",
".........#h.........",
"........ba..........",
"........dk..........",
"........e...........",
"........d...........",
"...................."};
