/* XPM */
static char *rbag[] = {
/* width height num_colors chars_per_pixel */
"    9     15       12            1",
/* colors */
". c #ffffff s background",
"# c #000000",
"a c #dddddd",
"b c #cccccc",
"c c #aaaaaa",
"d c #888888",
"e c #777777",
"f c #555555",
"g c #444444",
"h c #333333",
"i c #222222",
"j c #111111",
/* pixels */
"...ac....",
"...fce...",
"...f.b...",
"...f.....",
"...f.....",
"...f.....",
"...cc....",
"...bd....",
"....f....",
"....f....",
"....f....",
"....f....",
"....f....",
"..cec....",
"..ca....."
};
