/* XPM */
static char *Re[] = {
/* width height num_colors chars_per_pixel */
"    20    20       60            1",
/* colors */
". c #020202",
"# c #060606",
"a c #171717",
"b c #1d1d1d",
"c c #2c2c2c",
"d c #323232",
"e c #363636",
"f c #383838",
"g c #3a3a3a",
"h c #3e3e3e",
"i c #424242",
"j c #494949",
"k c #4f4f4f",
"l c #525252",
"m c #595959",
"n c #5c5c5c",
"o c #5f5f5f",
"p c #606060",
"q c #626262",
"r c #666666",
"s c #6a6a6a",
"t c #6b6b6b",
"u c #6e6e6e",
"v c #6f6f6f",
"w c #7f7f7f",
"x c #878787",
"y c #8f8f8f",
"z c #919191",
"A c #939393",
"B c #969696",
"C c #979797",
"D c #9e9e9e",
"E c #a1a1a1",
"F c #a2a2a2",
"G c #a9a9a9",
"H c #afafaf",
"I c #b3b3b3",
"J c #b5b5b5",
"K c #b7b7b7",
"L c #bdbdbd",
"M c #bebebe",
"N c #c1c1c1",
"O c #d2d2d2",
"P c #d4d4d4",
"Q c #d6d6d6",
"R c #d9d9d9",
"S c #e3e3e3",
"T c #ececec",
"U c #f0f0f0",
"V c #f1f1f1",
"W c #f2f2f2",
"X c #f4f4f4",
"Y c #f5f5f5",
"Z c #f6f6f6",
"0 c #f8f8f8",
"1 c #f9f9f9",
"2 c #fbfbfb",
"3 c #fdfdfd",
"4 c #fefefe",
"5 c #ffffff",
/* pixels */
"54545444444444445555",
"44544444444444445555",
"55545444444444445555",
"55555445444445445555",
"555554CwR1DldQ445555",
"54545MBRbkFVbm445555",
"45554DE4et44z.R45555",
"44554ZkQun44Yao45555",
"555554Squn44Vjr45555",
"55555U2juaichL445555",
"45545ECxun4lp4445555",
"455440J0un4lg4445555",
"55555TX4ur4lg4445555",
"55545yA4eI4lg3K45555",
"555554vGfW4H#sB45555",
"5555542N0444OP445555",
"44545444444444445555",
"55554444444444445555",
"55555444444444445555",
"55555444444444445555"
};
