/* XPM */
static char *rgroup[]={
"20 20 17 1",
"i c #000000",
"g c #111111",
"n c #222222",
"d c #333333",
"a c #444444",
"e c #555555",
"c c #666666",
"m c #777777",
"# c #888888",
"f c #999999",
"l c #aaaaaa",
"k c #b1b1b1",
"h c #bbbbbb",
"j c #bfbfbf",
"o c #dddddd",
"b c #eeeeee",
". c #ffffff",
"....................",
"........#ab.........",
".........cdb........",
"..........ae........",
"..........fg........",
"..........hi........",
"..........hi........",
"..........hi........",
"..........ji........",
"..........ki........",
"..........li........",
"..........hi........",
"..........hi........",
"..........hi........",
"..........hi........",
"..........fg........",
"..........ae........",
".........mno........",
"........#ab.........",
"...................."};
