/* XPM */
static char *rho[] = {
/* width height num_colors chars_per_pixel */
"    20    20       41            1",
/* colors */
". c #090909",
"# c #0a0a0a",
"a c #0b0b0b",
"b c #0e0e0e",
"c c #0f0f0f",
"d c #1a1a1a",
"e c #232323",
"f c #2a2a2a",
"g c #3d3d3d",
"h c #3f3f3f",
"i c #474747",
"j c #575757",
"k c #5d5d5d",
"l c #656565",
"m c #6a6a6a",
"n c #727272",
"o c #767676",
"p c #797979",
"q c #7b7b7b",
"r c #868686",
"s c #a8a8a8",
"t c #a9a9a9",
"u c #afafaf",
"v c #bebebe",
"w c #c1c1c1",
"x c #c5c5c5",
"y c #c6c6c6",
"z c #c8c8c8",
"A c #cccccc",
"B c #d3d3d3",
"C c #eaeaea",
"D c #ebebeb",
"E c #f2f2f2",
"F c #f4f4f4",
"G c #f6f6f6",
"H c #f9f9f9",
"I c #fafafa",
"J c #fbfbfb",
"K c #fcfcfc",
"L c #fefefe",
"M c #ffffff",
/* pixels */
"LLMLLLLLLLLLLLLLMMMM",
"LMMMLLLLLLLLLLLLMMMM",
"MLMMMLLLLLLLLLLLMMMM",
"MMMMMLLLLLLLLLLLMMMM",
"MMMMMLLLLLLLLLLLMMMM",
"LLMLLLLLLCpquLLLMMMM",
"LLMMMLLLDhAIfBLLMMMM",
"LLLLLLLLonLLgvLLMMMM",
"LLLLLLLHdxLF.vLLMMMM",
"LLMLLLLxcFLubJLLMMMM",
"LLLLLLLreLEgsLLLMMMM",
"LLLLLLLijmktLLLLMMMM",
"MLMMLLKawLLLLLLLMMMM",
"LLMLMLz#GLLLLLLLMMMM",
"LLLLLLylLLLLLLLLMMMM",
"LMMLLLLLLLLLLLLLMMMM",
"LLMMLLLLLLLLLLLLMMMM",
"LLLLLLLLLLLLLLLLMMMM",
"LMLMLLLLLLLLLLLLMMMM",
"LLMMLLLLLLLLLLLLMMMM"
};
