/* XPM */
static char *rightrightarrows[]={
"20 20 13 1",
"e c #000000",
"d c #111111",
"k c #222222",
"f c #333333",
"i c #666666",
"b c #888888",
"g c #999999",
"a c #aaaaaa",
"j c #bbbbbb",
"h c #cccccc",
"# c #dddddd",
"c c #eeeeee",
". c #ffffff",
"....................",
"....................",
"....................",
"....................",
"..............#.....",
"..............a#....",
"...............bc...",
"..deeeeeeeeeeeeef#..",
"...............gg...",
"..............hb....",
"..............i.....",
"..............aj....",
"...............ah...",
"..keeeeeeeeeeeeekc..",
"...............ah...",
"..............jj....",
"..............j.....",
"....................",
"....................",
"...................."};
