/* XPM */
static char *rightarrow[] = {
/* width height num_colors chars_per_pixel */
"    20    20       29            1",
/* colors */
". c #2c2c2c",
"# c #353535",
"a c #363636",
"b c #393939",
"c c #3a3a3a",
"d c #585858",
"e c #595959",
"f c #6d6d6d",
"g c #747474",
"h c #808080",
"i c #939393",
"j c #9c9c9c",
"k c #9d9d9d",
"l c #a2a2a2",
"m c #a3a3a3",
"n c #adadad",
"o c #c8c8c8",
"p c #d1d1d1",
"q c #d3d3d3",
"r c #d4d4d4",
"s c #ececec",
"t c #f0f0f0",
"u c #f1f1f1",
"v c #f7f7f7",
"w c #f8f8f8",
"x c #fafafa",
"y c #fbfbfb",
"z c #fefefe",
"A c #ffffff",
/* pixels */
"AAAAzzzzzzzzzzzAzAzA",
"AAAAzzzzzzzzzzzzzAzz",
"AAAAzzzzzzzzzzzAzAAA",
"AAAAzzAzzzzzAzzAAAAA",
"AAAAzzzzzzzzyvzAAAAA",
"AAAAzzzzzzzzofzAzAzA",
"AAAAzzzzzzzzz#szAAAz",
"AAAAzzzzzzzzzndxAAzz",
"AAAummmmmmmmmlbcrAAA",
"AAAtkkkkkkkkkj.epAAA",
"AAAAzzzzzzzzzigAzAAz",
"AAAAzzzzzzzzzawzzAAz",
"AAAAzzzzzzzzqhzAAAAA",
"AAAAzzzzzzzzzzzAzAAA",
"AAAAzzzzzzzzzzzAAAAA",
"AAAAzzzzzzzzzzzAAAAA",
"AAAAzzzzzzzzzzzAzAzz",
"AAAAzzzzzzzzzzzzAAAA",
"AAAAzzzzzzzzzzzAAAAA",
"AAAAzzzzzzzzzzzAAAAA"
};
