/* XPM */
static char *rightleftharpoons[] = {
/* width height num_colors chars_per_pixel */
"    20    20       30            1",
/* colors */
". c #292929",
"# c #353535",
"a c #363636",
"b c #484848",
"c c #4b4b4b",
"d c #555555",
"e c #636363",
"f c #828282",
"g c #8e8e8e",
"h c #8f8f8f",
"i c #929292",
"j c #9a9a9a",
"k c #9b9b9b",
"l c #a4a4a4",
"m c #afafaf",
"n c #b4b4b4",
"o c #c0c0c0",
"p c #cfcfcf",
"q c #d3d3d3",
"r c #d8d8d8",
"s c #e2e2e2",
"t c #e9e9e9",
"u c #ededed",
"v c #eeeeee",
"w c #f4f4f4",
"x c #f6f6f6",
"y c #f7f7f7",
"z c #fafafa",
"A c #fefefe",
"B c #ffffff",
/* pixels */
"AABAAAAAAAAAAAAABBBB",
"ABBBAAAAAAAAAAAABBBB",
"BABBBAAAAAAAAAAABBBB",
"BBBBBAAAAAAAAAAABBBB",
"BBBBBAAAAAAAmjAABBBB",
"AABAAAAAAAAAt#xABBBB",
"AABBBAAAAAAAAkcyBBBB",
"AAAqhhhhhhhhhg.bvBBB",
"AAAsnnnnnnnnnnnnwBBB",
"AABpffffffffffffuBBB",
"AAAxedooooooooooxBBB",
"AAAAAelAAAAAAAAABBBB",
"BABBAwazAAAAAAAABBBB",
"AABABAirAAAAAAAABBBB",
"AAAAAAAAAAAAAAAABBBB",
"ABBAAAAAAAAAAAAABBBB",
"AABBAAAAAAAAAAAABBBB",
"AAAAAAAAAAAAAAAABBBB",
"ABABAAAAAAAAAAAABBBB",
"AABBAAAAAAAAAAAABBBB"
};
