/* XPM */
static char *rtimes[]={
"20 20 12 1",
"f c #000000",
"i c #111111",
"j c #333333",
"d c #444444",
"b c #555555",
"g c #666666",
"e c #777777",
"# c #888888",
"h c #999999",
"a c #cccccc",
"c c #eeeeee",
". c #ffffff",
"....................",
"....................",
"....................",
"....................",
"....................",
"....................",
".....#a......b......",
".....cda....ef......",
"......cda..gaf......",
".......cdagh.f......",
"........cie..f......",
"........g#da.f......",
".......gh.cbcf......",
"......gh...cgf......",
".....hh.....cj......",
"....................",
"....................",
"....................",
"....................",
"...................."};
