/* XPM */
static char *setminus[] = {
/* width height num_colors chars_per_pixel */
"    20    20       29            1",
/* colors */
". c #3e3e3e",
"# c #414141",
"a c #434343",
"b c #484848",
"c c #4b4b4b",
"d c #4d4d4d",
"e c #4e4e4e",
"f c #515151",
"g c #545454",
"h c #898989",
"i c #8c8c8c",
"j c #8e8e8e",
"k c #929292",
"l c #959595",
"m c #979797",
"n c #a8a8a8",
"o c #a9a9a9",
"p c #adadad",
"q c #c1c1c1",
"r c #d4d4d4",
"s c #dadada",
"t c #dcdcdc",
"u c #e8e8e8",
"v c #e9e9e9",
"w c #eeeeee",
"x c #efefef",
"y c #fdfdfd",
"z c #fefefe",
"A c #ffffff",
/* pixels */
"zzAzzzzzzzzzzzzzAAAA",
"zAAAzzzzzzzzzzzzAAAA",
"AzAAAzzqzzzzzzzzAAAA",
"AAAAAzz.wzzzzzzzAAAA",
"AAAAAzzjnzzzzzzzAAAA",
"zzAzzzztfzzzzzzzAAAA",
"zzAAAzzyawzzzzzzAAAA",
"zzzzzzzzhpzzzzzzAAAA",
"zzzzzzzztczzzzzzAAAA",
"zzAzzzzzzeuzzzzzAAAA",
"zzzzzzzzzlkzzzzzAAAA",
"zzzzzzzzzvdzzzzzAAAA",
"AzAAzzzzzzbvzzzzAAAA",
"zzAzAzzzzzlmzzzzAAAA",
"zzzzzzzzzzx#yzzzAAAA",
"zAAzzzzzzzzgszzzAAAA",
"zzAAzzzzzzzoizzzAAAA",
"zzzzzzzzzzzxrzzzAAAA",
"zAzAzzzzzzzzzzzzAAAA",
"zzAAzzzzzzzzzzzzAAAA"
};
