/* XPM */
static char *sharp[] = {
/* width height num_colors chars_per_pixel */
"    20    20       26            1",
/* colors */
". c #000000",
"# c #090909",
"a c #181818",
"b c #1b1b1b",
"c c #1f1f1f",
"d c #2e2e2e",
"e c #333333",
"f c #393939",
"g c #3c3c3c",
"h c #464646",
"i c #4b4b4b",
"j c #4f4f4f",
"k c #888888",
"l c #9d9d9d",
"m c #afafaf",
"n c #bfbfbf",
"o c #c5c5c5",
"p c #d7d7d7",
"q c #dedede",
"r c #e3e3e3",
"s c #f2f2f2",
"t c #f3f3f3",
"u c #f8f8f8",
"v c #f9f9f9",
"w c #fefefe",
"x c #ffffff",
/* pixels */
"xxxxxxxxxxxxxxxxwwww",
"xxxxxxxxxxxxxxxxwwww",
"xxxxxxxxxxxxxxxxwwww",
"xxxxxxxxtwvlxxxxwwww",
"xxxxxxxxkuukxxxxwwww",
"xxwxxxxxkuukxxxxwwww",
"xxxxxxxxkrmdqxxxwwww",
"wxwxxxxxe#agrxxxwwww",
"xxxxxxxxhnskxxxxwwww",
"xxwwxxxxkuukxxxxwwww",
"xxxxxxxxkuukxxxxwwww",
"xxwwwxxxkuukxxxxwwww",
"xxxxxxxxkupirxxxwwww",
"xxwxxxxxjf.cqxxxwwww",
"wxwwxxxxbkokxxxxwwww",
"xxwxxxxxkuukxxxxwwww",
"xxxxxxxxlvwtxxxxwwww",
"wxwxxxxxxxxxxxxxwwww",
"xxwxxxxxxxxxxxxxwwww",
"xxxxxxxxxxxxxxxxwwww"
};
