/* XPM */
static char *shortparallel[]={
"20 20 4 1",
"b c #000000",
"a c #333333",
"# c #444444",
". c #ffffff",
"....................",
"....................",
"....................",
"....................",
"....................",
"........#...a.......",
"........b...b.......",
"........b...b.......",
"........b...b.......",
"........b...b.......",
"........b...b.......",
"........b...b.......",
"........b...b.......",
"........#...#.......",
"....................",
"....................",
"....................",
"....................",
"....................",
"...................."};
