/* XPM */
static char *smallsmile[]={
"20 20 11 1",
"h c #000000",
"f c #222222",
"b c #333333",
"e c #555555",
"c c #666666",
"# c #777777",
"g c #999999",
"i c #aaaaaa",
"d c #cccccc",
"a c #eeeeee",
". c #ffffff",
"....................",
"....................",
"....................",
"....................",
"....................",
"....................",
"....................",
"....................",
"....#.........ab....",
"....cd........e#....",
"....afd......cba....",
".....df#d.agbea.....",
"......a#fhhei.......",
"....................",
"....................",
"....................",
"....................",
"....................",
"....................",
"...................."};
