/* XPM */
static char *sphericalangle[]={
"20 20 16 1",
"m c #000000",
"j c #111111",
"k c #222222",
"i c #333333",
"e c #444444",
"b c #555555",
"l c #666666",
"c c #777777",
"a c #888888",
"f c #999999",
"g c #aaaaaa",
"# c #bbbbbb",
"n c #cccccc",
"h c #dddddd",
"d c #eeeeee",
". c #ffffff",
"....................",
"....................",
"....................",
"....................",
"....................",
".............#a.....",
"...........#bcd.....",
".........#bef.......",
".......gbcdhb.......",
".....ficd...j.......",
"....kld.....m.......",
"....hllh....m.......",
"......hll#.ne.......",
"........hleca.......",
"..........hle#......",
"............dca.....",
"....................",
"....................",
"....................",
"...................."};
