/* XPM */
static char *sqcup[] = {
/* width height num_colors chars_per_pixel */
"    20    20       12            1",
/* colors */
". c #313131",
"# c #444444",
"a c #464646",
"b c #585858",
"c c #5a5a5a",
"d c #7d7d7d",
"e c #8a8a8a",
"f c #c7c7c7",
"g c #cdcdcd",
"h c #cecece",
"i c #fefefe",
"j c #ffffff",
/* pixels */
"iijjiiiiiiiiiiiijjjj",
"ijijiiiiiiiiiiiijjjj",
"iiiiiiiiiiiiiiiijjjj",
"iijjiiiiiiiiiiiijjjj",
"ijjiiiiiiiiiiiiijjjj",
"iiiiiiiiiiiiiiiijjjj",
"iijijgeiiiiiibiijjjj",
"jijjifdiiiiiiaiijjjj",
"iiiiifdiiiiiiaiijjjj",
"iiiiifdiiiiiiaiijjjj",
"iijiifdiiiiiiaiijjjj",
"iiiiifdiiiiiiaiijjjj",
"iiiiifdiiiiiiaiijjjj",
"iijjjfdiiiiiiaiijjjj",
"iijiih.######ciijjjj",
"jjjjjiiiiiiiiiiijjjj",
"jjjjjiiiiiiiiiiijjjj",
"jijjjiiiiiiiiiiijjjj",
"ijjjiiiiiiiiiiiijjjj",
"iijiiiiiiiiiiiiijjjj"
};
