/* XPM */
static char *sqrtn[] = {
/* width height num_colors chars_per_pixel */
"    20    20      100            2",
/* colors */
".. c #030303",
".# c #090909",
".a c #0a0a0a",
".b c #0f0f0f",
".c c #151515",
".d c #1e1e1e",
".e c #212121",
".f c #232323",
".g c #242424",
".h c #292929",
".i c #2b2b2b",
".j c #2f2f2f",
".k c #373737",
".l c #383838",
".m c #393939",
".n c #3b3b3b",
".o c #3e3e3e",
".p c #3f3f3f",
".q c #404040",
".r c #454545",
".s c #474747",
".t c #4a4a4a",
".u c #4b4b4b",
".v c #4c4c4c",
".w c #525252",
".x c #545454",
".y c #575757",
".z c #595959",
".A c #5c5c5c",
".B c #606060",
".C c #666666",
".D c #686868",
".E c #6c6c6c",
".F c #6e6e6e",
".G c #717171",
".H c #727272",
".I c #747474",
".J c #777777",
".K c #787878",
".L c #797979",
".M c #7e7e7e",
".N c #818181",
".O c #828282",
".P c #848484",
".Q c #8a8a8a",
".R c #8c8c8c",
".S c #8e8e8e",
".T c #909090",
".U c #979797",
".V c #999999",
".W c #9d9d9d",
".X c #9e9e9e",
".Y c #a6a6a6",
".Z c #a7a7a7",
".0 c #aaaaaa",
".1 c #acacac",
".2 c #aeaeae",
".3 c #b0b0b0",
".4 c #b3b3b3",
".5 c #b6b6b6",
".6 c #b7b7b7",
".7 c #c0c0c0",
".8 c #c1c1c1",
".9 c #c5c5c5",
"#. c #c6c6c6",
"## c #c7c7c7",
"#a c #c9c9c9",
"#b c #cbcbcb",
"#c c #cdcdcd",
"#d c #d0d0d0",
"#e c #d3d3d3",
"#f c #d4d4d4",
"#g c #d7d7d7",
"#h c #dadada",
"#i c #dcdcdc",
"#j c #dddddd",
"#k c #dfdfdf",
"#l c #e0e0e0",
"#m c #e1e1e1",
"#n c #e2e2e2",
"#o c #e3e3e3",
"#p c #e4e4e4",
"#q c #e5e5e5",
"#r c #e7e7e7",
"#s c #eaeaea",
"#t c #ebebeb",
"#u c #ececec",
"#v c #efefef",
"#w c #f0f0f0",
"#x c #f2f2f2",
"#y c #f6f6f6",
"#z c #f7f7f7",
"#A c #f8f8f8",
"#B c #f9f9f9",
"#C c #fafafa",
"#D c #fbfbfb",
"#E c #fcfcfc",
"#F c #fdfdfd",
"#G c #fefefe",
"#H c #ffffff",
/* pixels */
"#H#G#H#G#H#G#G#G#G#G#G#G#G#G#G#G#H#H#H#H",
"#G#G#H#G#G#G#G#G#G#G#G#G#G#G#G#G#H#H#H#H",
"#H#H#H#G#H#G#G#G#G#G#G#G#h.5.5.5.5.5.5.5",
"#H#H#H#H#H#G#G#H#G#G#G#E.m.u.u.u.u.u.u.u",
"#H#H#H#H#H#G#G#G#G#G#G.Z.M#G#G#G#H#H#H#H",
"#H#G#H#G#x#B#u#y#G#G#E.o#t#G#G#G#H#H#H#H",
"#G#H#H#D.D.r.3.x#G#G.2.K#G#G#G#G#H#H#H#H",
"#G#G#H#B.X.V#g.E#C#G.t#m#G#G#F.8.Y#q#s#H",
"#H#H#H#H.F#g.Q.G#k#c.y#F#G#G.L.C#d.j.n#H",
"#H#H#H#z#a#E#j.7#G.z#b#F#G.1.g#A#H.z.L#H",
"#G#H.9.h#r#G#G#G#f.w#F#G#G.p.O#G#H.f.6#H",
"#G#n.P.c.T#G#G#G.B#.#G#G#G...7#G#l.##v#u",
"#H#H#H.H.e#A#G#h.v#F#F#F#G.b#o#G.R.i#i.U",
"#H#H#H#p.a.W#G.N.0#F#F#F#G.M.J.S.A.k.I#n",
"#H#H#H#H.A.q#w.l#D#F#F#G#G#G#a#e#H#f#i#H",
"#H#H#H#H##...y.X#G#G#G#G#G#G#G#G#H#H#H#H",
"#G#G#H#G#H.s.d#E#G#F#F#G#G#G#G#G#H#H#H#H",
"#H#H#H#H#G.4.Z#G#G#F#F#F#G#G#G#G#H#H#H#H",
"#H#H#H#H#H#G#G#G#G#F#F#G#G#G#G#G#H#H#H#H",
"#H#H#H#H#H#G#G#G#G#G#G#G#G#G#G#G#H#H#H#H"
};
