/* XPM */
static char *star[]={
"20 20 15 1",
"h c #000000",
"g c #111111",
"d c #222222",
"i c #333333",
"b c #444444",
"l c #555555",
"a c #666666",
"f c #777777",
"m c #888888",
"c c #999999",
"j c #aaaaaa",
"# c #bbbbbb",
"k c #cccccc",
"e c #eeeeee",
". c #ffffff",
"....................",
"....................",
"....................",
"....................",
"....................",
".........#..........",
".........a..........",
".........b..........",
".....c#.#d.e#c......",
".....efgdhddc.......",
".......edhf.........",
".......#ijge........",
".......bk.cl........",
"......jk...mj.......",
"....................",
"....................",
"....................",
"....................",
"....................",
"...................."};
