/* XPM */
static char *subseteqq[]={
"20 20 14 1",
"c c #000000",
"d c #111111",
"b c #222222",
"h c #333333",
"j c #555555",
"l c #666666",
"a c #777777",
"f c #888888",
"e c #999999",
"k c #aaaaaa",
"g c #cccccc",
"# c #dddddd",
"i c #eeeeee",
". c #ffffff",
"....................",
"....................",
"......#abcccccd.....",
".....ebf#...........",
"....ghi.............",
"....jk..............",
"....c...............",
"....ci..............",
"....je..............",
"....gdg.............",
".....ebag...........",
"......#lbcccccd.....",
"....................",
"....................",
"....lcccccccccd.....",
"....i...............",
"....................",
"....................",
"....hcccccccccd.....",
"...................."};
