/* XPM */
static char *succnapprox[]={
"20 20 16 1",
"l c #000000",
"a c #111111",
"n c #222222",
"# c #333333",
"f c #444444",
"h c #555555",
"d c #666666",
"c c #777777",
"m c #888888",
"k c #999999",
"e c #aaaaaa",
"b c #bbbbbb",
"j c #cccccc",
"i c #dddddd",
"g c #eeeeee",
". c #ffffff",
"....#...............",
"....ab..............",
"....cd..............",
".....cc.............",
"......bdceb.........",
".......bdaffdccb....",
".....ghci...........",
"....gfj.............",
"....dk..............",
"....hi..............",
"...........g........",
"...........fi.......",
"....ghllambd..ga....",
"....fc..ehlk.ihc....",
"....n....bhflnc.....",
".........hg.........",
"....ghllnh....gl....",
"....fc..hhfb.ihc....",
"....n..bc.b#lnc.....",
".......cg..........."};
