/* XPM */
static char *succeq[] = {
/* width height num_colors chars_per_pixel */
"    20    20       31            1",
/* colors */
". c #000000",
"# c #080808",
"a c #262626",
"b c #383838",
"c c #3c3c3c",
"d c #444444",
"e c #474747",
"f c #595959",
"g c #6c6c6c",
"h c #767676",
"i c #7e7e7e",
"j c #8d8d8d",
"k c #909090",
"l c #929292",
"m c #969696",
"n c #989898",
"o c #a9a9a9",
"p c #c5c5c5",
"q c #cbcbcb",
"r c #cfcfcf",
"s c #d3d3d3",
"t c #d6d6d6",
"u c #e1e1e1",
"v c #e5e5e5",
"w c #eaeaea",
"x c #eeeeee",
"y c #f6f6f6",
"z c #f8f8f8",
"A c #fbfbfb",
"B c #fefefe",
"C c #ffffff",
/* pixels */
"CCCCBBBBBBBBBBBBBCBB",
"CCCCBBBBBBBBBBBBCCCB",
"CCCCBBBBBBBBBBBCCCBC",
"CCCCBBBBBBBBBBBCCCCC",
"CCCCBrkBBBBBBBBCCCCC",
"CCCCBwcBBBBBBBBBBCBB",
"CCCCBBkgyBBBBBBCCCBB",
"CCCCBBBnbhpxBBBBBBBB",
"CCCCBBBBvf.#adoBBBBB",
"CCCCBBBjblszABBBBCBB",
"CCCCBBigCBBBBBBBBBBB",
"CCCCBueBBBBBBBBBBBBB",
"CCCCBqmBBBBBBBBBCCBC",
"CCCCBBBBBBBBBBBCBCBB",
"CCCCBBBBBBBBBBBBBBBB",
"CCCCBtddddddddoBBCCB",
"CCCCBBBBBBBBBBBBCCBB",
"CCCCBBBBBBBBBBBBBBBB",
"CCCCBBBBBBBBBBBBCBCB",
"CCCCBBBBBBBBBBBBCCBB"
};
