/* XPM */
static char *succneqq[]={
"20 20 15 1",
"h c #000000",
"l c #111111",
"# c #222222",
"e c #333333",
"k c #444444",
"i c #555555",
"b c #666666",
"c c #777777",
"m c #999999",
"j c #aaaaaa",
"f c #bbbbbb",
"a c #cccccc",
"g c #dddddd",
"d c #eeeeee",
". c #ffffff",
"....................",
"....#a..............",
"....bc..............",
"....def.............",
".....dcba...........",
".......gcehhhhi.....",
".......jiiccfff.....",
".....dicd...........",
".....ka.............",
"....cc..............",
"....la..............",
"............mj......",
"...........mb.......",
"....ehhhhhhhhhl.....",
".........aig........",
"........mb..........",
"....ehhhhhhhhhl.....",
"......akd...........",
"......id............",
"...................."};
