/* XPM */
static char *succnsim[]={
"20 20 16 1",
"h c #000000",
"n c #111111",
"# c #222222",
"j c #333333",
"b c #444444",
"m c #555555",
"l c #666666",
"f c #777777",
"k c #888888",
"c c #999999",
"g c #aaaaaa",
"d c #bbbbbb",
"i c #cccccc",
"a c #dddddd",
"e c #eeeeee",
". c #ffffff",
"....................",
"....#a..............",
"....bc..............",
"....d#e.............",
".....dbd............",
"......efbfgde.......",
"........gbhbbbbi....",
"......gjka..........",
".....ff.............",
"....dl..............",
"....#d..............",
"....d......a........",
"...........me.......",
"..........gf........",
".....fhnfeje...#....",
"....fmeefnc...dj....",
"....#a..ejjg.djg....",
"....#...fdamh#g.....",
".......am...........",
".......fi..........."};
