/* XPM */
static char *succsim[]={
"20 20 15 1",
"h c #000000",
"k c #111111",
"# c #222222",
"l c #333333",
"b c #444444",
"j c #555555",
"i c #666666",
"f c #777777",
"c c #999999",
"g c #aaaaaa",
"d c #bbbbbb",
"m c #cccccc",
"a c #dddddd",
"e c #eeeeee",
". c #ffffff",
"....................",
"....................",
"....#a..............",
"....bc..............",
"....d#e.............",
".....dbd............",
"......efbfgd........",
"........gbhhhhhg....",
"......c#icd.........",
".....fie............",
"....dj..............",
"....#d..............",
"....ba..............",
"....................",
"....................",
".....fhkfe.....#....",
"....fjeefle...dl....",
"....#a...mlg.dlg....",
"....#.....ajh#g.....",
"...................."};
