/* XPM */
static char *supsetneqq[]={
"20 20 58 1",
"C c #000000",
"r c #0a0a0a",
"a c #0c0c0c",
"p c #0d0d0d",
"X c #161616",
"b c #1c1c1c",
"W c #202020",
"V c #2f2f2f",
"2 c #303030",
"k c #333333",
"h c #353535",
"t c #393939",
"0 c #3a3a3a",
"P c #3d3d3d",
"A c #4b4b4b",
"v c #505050",
"n c #565656",
"c c #585858",
"D c #6a6a6a",
"z c #7b7b7b",
"F c #868686",
"# c #8d8d8d",
"3 c #919191",
"O c #929292",
"w c #939393",
"U c #9e9e9e",
"g c #a2a2a2",
"m c #a9a9a9",
"Q c #aaaaaa",
"G c #aeaeae",
"L c #afafaf",
"N c #b7b7b7",
"s c #bababa",
"R c #bbbbbb",
"S c #bebebe",
"J c #bfbfbf",
"d c #c3c3c3",
"I c #c4c4c4",
"B c #c6c6c6",
"E c #c9c9c9",
"y c #cbcbcb",
"l c #cccccc",
"T c #d7d7d7",
"K c #d8d8d8",
"Z c #dbdbdb",
"M c #dddddd",
"1 c #e0e0e0",
"H c #e6e6e6",
"u c #ebebeb",
"Y c #eeeeee",
"f c #efefef",
"j c #f0f0f0",
"o c #f2f2f2",
"q c #f5f5f5",
"x c #f7f7f7",
"e c #fafafa",
"i c #fbfbfb",
". c #ffffff",
"....................",
"....#aaaaabcde......",
"..........fgh#i.....",
"............jkl.....",
".............mn.....",
".............op.....",
".............qr.....",
".............st.....",
"............uvw.....",
"..........xyzAu.....",
"....BCCCCCCCDE......",
"....BFFFFFFGH.......",
"............sI......",
"...........JCK......",
"....LCCCCCCCCCC.....",
"....MNNNNOPQNNR.....",
"........SCTi........",
"....UVVVWXVVVVA.....",
"....YZZ0LZZZZZ1.....",
"......23e..........."};
