/* XPM */
static char *supseteqq[]={
"20 20 13 1",
"a c #000000",
"k c #111111",
"i c #222222",
"e c #333333",
"b c #555555",
"f c #666666",
"j c #777777",
"# c #888888",
"h c #999999",
"d c #aaaaaa",
"c c #bbbbbb",
"g c #eeeeee",
". c #ffffff",
"....................",
"....................",
".....#aaaaaabc......",
"............def.....",
".............ged....",
"..............de....",
"...............a....",
"...............a....",
"..............db....",
".............gec....",
"...........ghij.....",
".....#aaaaaabc......",
"....................",
"....................",
".....haaaaaaaaai....",
".....g.........g....",
"....................",
"....................",
".....#aaaaaaaaak....",
"...................."};
