/* XPM */
static char *supsetpluseq[] = {
/* width height num_colors chars_per_pixel */
"    9     12       10            1",
/* colors */
". c #ffffff s background",
"# c #000000",
"a c #dddddd",
"b c #cccccc",
"c c #aaaaaa",
"d c #888888",
"e c #777777",
"f c #555555",
"g c #333333",
"h c #222222",
/* pixels */
"dffffd...",
".....bfa.",
"...d...f.",
"...f...db",
".dfhfd.cc",
"...f...cc",
"...e...f.",
"......cc.",
"dfffffc..",
".........",
".........",
"dffffffd.",
};
