/* XPM */
static char *supsetneq[]={
"20 20 11 1",
"a c #000000",
"i c #222222",
"e c #333333",
"b c #555555",
"f c #777777",
"# c #888888",
"h c #999999",
"d c #aaaaaa",
"c c #bbbbbb",
"g c #eeeeee",
". c #ffffff",
"....................",
"....................",
"....................",
"....#aaaaaabc.......",
"...........def......",
"............ged.....",
".............de.....",
"..............a.....",
"..............a.....",
".............db.....",
"............ged.....",
"..........ghif......",
"....#aaaaaabc.......",
"...........#........",
"..........d#........",
".........geg........",
"....haaaaaaaaaf.....",
"........bc..........",
"....................",
"...................."};
