/* XPM */
static char *talloblong[] = {
/* width height num_colors chars_per_pixel */
"    9     14       10            1",
/* colors */
". c #ffffff s background",
"# c #000000",
"a c #dddddd",
"b c #cccccc",
"c c #aaaaaa",
"d c #888888",
"e c #777777",
"f c #555555",
"g c #333333",
"h c #222222",
/* pixels */ 
"..dfffd..",
"..f...f..",
"..f...f..",
"..f...f..",
"..f...f..",
"..f...f..",
"..f...f..",
"..f...f..",
"..f...f..",
"..f...f..",
"..f...f..",
"..f...f..",
"..f...f..",
"..dfffb..",
};
