/* XPM */
static char *tau[] = {
/* width height num_colors chars_per_pixel */
"    20    20       24            1",
/* colors */
". c #3d3d3d",
"# c #434343",
"a c #474747",
"b c #4d4d4d",
"c c #535353",
"d c #636363",
"e c #686868",
"f c #6f6f6f",
"g c #7d7d7d",
"h c #8b8b8b",
"i c #959595",
"j c #a1a1a1",
"k c #afafaf",
"l c #b0b0b0",
"m c #cacaca",
"n c #dadada",
"o c #e0e0e0",
"p c #eaeaea",
"q c #f1f1f1",
"r c #f2f2f2",
"s c #f3f3f3",
"t c #f9f9f9",
"u c #fefefe",
"v c #ffffff",
/* pixels */
"uuvuuuuuuuuuuuuuvvvv",
"uvvvuuuuuuuuuuuuvvvv",
"vuvvvuuuuuuuuuuuvvvv",
"vvvvvuuuuuuuuuuuvvvv",
"vvvvvuuuuuuuuuuuvvvv",
"uuvuuuuuuuuuuuuuvvvv",
"uuvvvuurjiiiisuuvvvv",
"uuuuuuqadacffnuuvvvv",
"uuuuuukmueouuuuuvvvv",
"uuvuuuuut.uuuuuuvvvv",
"uuuuuuuumbuuuuuuvvvv",
"uuuuuuuuhguuuuuuvvvv",
"vuvvuuuu#luuuuuuvvvv",
"uuvuvuuupuuuuuuuvvvv",
"uuuuuuuuuuuuuuuuvvvv",
"uvvuuuuuuuuuuuuuvvvv",
"uuvvuuuuuuuuuuuuvvvv",
"uuuuuuuuuuuuuuuuvvvv",
"uvuvuuuuuuuuuuuuvvvv",
"uuvvuuuuuuuuuuuuvvvv"
};
