/* XPM */
static char *TBaccent[]={
"32 32 13 1",
"# c #000000",
"d c #111111",
"g c #222222",
"f c #333333",
"k c #444444",
"a c #555555",
"c c #666666",
"e c #777777",
"b c #888888",
"i c #999999",
"j c #aaaaaa",
"h c #bbbbbb",
". c #cccccc",
"................................",
"................................",
"................................",
"................................",
"...............#.......#........",
"...............ab.....bc........",
"................de...ef.........",
".................cd#ge..........",
"................................",
"....................d...........",
"...................a#...........",
"..................h##...........",
"..................f##h..........",
".................eid#j..........",
".................a.k#e..........",
"................a..k#e..........",
"...............he..e#a..........",
"...............k...e#k..........",
"..............bi...b#k..........",
"..............a....h##..........",
".............c.....h##..........",
"............h#########..........",
"............k.......##h.........",
"...........bb.......##h.........",
"...........k........k#e.........",
"..........ah........k#e.........",
".........c#.........f#a.........",
".......k####e.....######g.......",
"................................",
"................................",
"................................",
"................................"};
