/* XPM */
static char *TBAMSdelim[]={
"32 32 5 1",
"# c #000000",
"a c #444444",
"c c #aaaaaa",
". c #cccccc",
"b c #dddddd",
"................................",
"................................",
"................................",
"................................",
"................................",
"................................",
"................................",
"........###############.........",
"........#.............#.........",
"........#.............#.........",
"........#.............#.........",
"........#.............#.........",
"........#.............#.........",
"........#.............#.........",
"........#.............#.........",
"....a...#.............#..ba.....",
"....#...#.............#...#.....",
"....#...#.............#...#.....",
"....#...#.............#...#.....",
"....#...#.............#...#.....",
"....#...###############...#.....",
"....#.....................#.....",
"....#.....................#.....",
"....#.....................#.....",
"....##########c.c##########.....",
"................................",
"................................",
"................................",
"................................",
"................................",
"................................",
"................................"};
