/* XPM */
static char *TBAMSnrel[]={
"32 32 109 2",
".a c #000000",
"#a c #010101",
".J c #030303",
"#b c #040404",
"#j c #060606",
".F c #080808",
"#n c #090909",
".D c #0a0a0a",
"#x c #0d0d0d",
".x c #101010",
".l c #111111",
"#K c #131313",
".A c #141414",
".O c #171717",
"#C c #191919",
".4 c #1c1c1c",
"#. c #1f1f1f",
".r c #212121",
"#y c #222222",
"#v c #242424",
"#O c #252525",
"#G c #282828",
"#g c #292929",
".u c #2b2b2b",
"#t c #2c2c2c",
"#i c #2e2e2e",
"#p c #2f2f2f",
"#Q c #303030",
"#M c #353535",
".d c #373737",
"#w c #383838",
".T c #393939",
"## c #3a3a3a",
".q c #3b3b3b",
".g c #3c3c3c",
".V c #3d3d3d",
".G c #3e3e3e",
".X c #3f3f3f",
".0 c #444444",
"#r c #454545",
".f c #4b4b4b",
"#P c #4d4d4d",
".Y c #5c5c5c",
".j c #5d5d5d",
".S c #5e5e5e",
".s c #626262",
"#h c #646464",
".m c #656565",
".C c #666666",
"#f c #696969",
"#o c #6a6a6a",
"#c c #6d6d6d",
"#u c #717171",
".p c #7c7c7c",
".N c #848484",
"#N c #888888",
".5 c #8a8a8a",
".B c #8b8b8b",
"#J c #909090",
".I c #9c9c9c",
"#m c #9e9e9e",
"#B c #9f9f9f",
".9 c #a4a4a4",
"#L c #a5a5a5",
"#l c #a8a8a8",
".z c #ababab",
".o c #acacac",
".M c #adadad",
".w c #aeaeae",
".K c #afafaf",
".L c #b0b0b0",
".W c #b3b3b3",
".h c #b4b4b4",
".E c #b6b6b6",
".b c #b9b9b9",
".n c #bbbbbb",
"#z c #bcbcbc",
"#k c #bdbdbd",
".2 c #bebebe",
".e c #bfbfbf",
".R c #c0c0c0",
".k c #c1c1c1",
".P c #c2c2c2",
".3 c #c3c3c3",
".H c #c5c5c5",
".i c #c8c8c8",
"#E c #c9c9c9",
"Qt c #cccccc",
".1 c #cdcdcd",
".c c #cfcfcf",
"#d c #d0d0d0",
".Z c #d1d1d1",
".8 c #d2d2d2",
".v c #d3d3d3",
".U c #d4d4d4",
".y c #d5d5d5",
".7 c #d6d6d6",
".# c #d7d7d7",
"#H c #d8d8d8",
".Q c #d9d9d9",
".t c #dadada",
"#e c #dcdcdc",
"#I c #dddddd",
"#q c #dfdfdf",
"#F c #e1e1e1",
"#s c #e2e2e2",
".6 c #e5e5e5",
"#A c #e6e6e6",
"#D c #e7e7e7",
"QtQtQtQtQtQtQtQtQtQtQtQtQtQtQtQtQtQtQtQtQtQtQtQtQtQtQtQtQtQtQtQt",
"Qt.#.#.#.#.#.#.#.#.#.#.#.#.#.#.#.#.#.#.#.#.#QtQtQtQtQt.#.#QtQtQt",
"Qt.#.a.a.a.a.a.a.a.a.a.a.a.a.a.a.a.a.aQtQtQtQtQtQtQtQt.#.#QtQtQt",
"Qt.#.a.a.a.a.a.a.a.a.a.a.a.a.a.a.a.a.aQtQtQtQtQtQtQtQt.#.#QtQtQt",
"Qt.#QtQtQtQtQtQtQtQtQtQtQtQtQtQtQtQtQtQtQtQtQtQtQtQtQt.#.#QtQtQt",
"Qt.#.#.#.#.#.#.#.#.#.#.#.#.#.#.#.#.#.#.#.#.b.c.a.d.aQt.#.#QtQtQt",
"QtQt.#.#.#Qt.e.f.f.g.g.g.g.g.f.hQt.#.#.#.#.#.a.iQt.j.a.#.#QtQtQt",
"QtQt.#.#.k.g.g.g.l.m.n.k.o.p.q.r.s.t.#.#.#.#.u.vQt.w.x.#.#QtQtQt",
"QtQtQt.f.g.yQt.z.A.BQtQtQtQtQt.C.D.f.#.#.#.#.a.vQt.E.F.#.#QtQtQt",
"Qt.#.f.G.H.#Qt.I.J.KQtQtQtQtQt.y.J.f.#.#.#.#QtQtQt.j.j.#.#QtQtQt",
"Qt.#.L.MQt.#Qt.N.O.PQtQtQtQtQt.Q.A.f.#.#.#.#QtQtQt.a.RQt.#QtQtQt",
"Qt.#Qt.#.#.#Qt.S.T.UQtQtQtQtQt.f.VQt.#.#.#.#QtQt.a.WQtQt.#QtQtQt",
"Qt.#.#.#.#.#Qt.X.YQtQtQtQtQt.Z.0.1Qt.#.#.#.#Qt.j.2Qt.3.#.#QtQtQt",
"Qt.#.#.#.#Qt.c.4.5Qt.6.7.i.f.g.8.#.#.#.#.#Qt.j.a.j.j.j.#.#QtQtQt",
"Qt.#.#.#.#Qt.9#..L.Z.S.g.g.fQtQt.#.#.#.#.#.7###a.a#b.T.#.#QtQtQt",
"Qt.#.#.#.#Qt#c.T#d#e#f.a.T.c.#.#.#.#.#.#.#.#.#.#.#.#.#.#.#QtQtQt",
"Qt.#.#.#.#Qt#g#hQt.#Qt#i#j.fQt.#.#.#.#.#.#.#QtQtQtQtQt.#.#QtQtQt",
"Qt.#.#.#.##k.O#l.#.#Qt#m#n#i.cQt.#.#QtQtQt.#QtQtQtQtQt.#.#QtQtQt",
"Qt.#.#.#.##o#p#q.#.#.#Qt#r.a.fQt.#Qt#kQt.#.#QtQtQtQtQt.#.#QtQtQt",
"Qt.#.#.##s#t#u.#.#.#.#Qt.f.l#v.WQt.kQtQt.#.#QtQtQtQtQt.#.#QtQtQt",
"Qt.#.#.#.f#w.8.#.#.#.#.#Qt.f#x#y.f#kQtQt.#.#QtQtQtQtQt.#.#QtQtQt",
"Qt.#.#.#.#.#.#.#.#.#.#.#.#.#.#.#.#.#.#.#.#.#QtQtQtQtQt.#.#QtQtQt",
"Qt.#.#.#.#.#.#.#.#.#.#.#.#.#.#.#.#.#.#.#.#.#QtQtQtQtQt.#.#QtQtQt",
"Qt.#.#.#.#.#.#.#.#.#.#.#.#.#.#.#.#.#.#.#.#.#.#.#.#.#.#.#.#QtQtQt",
"QtQt.f.a.a.h#z.#.#.c.g.f.y#d.f.g.b.Q.g.g.g.c.#.#.#Qt#d.a.a.aQtQt",
"Qt.f.a.f.f.g.g.#Qt.g.f.a.g.Z#k.f.a.f.W.M.f.a.#.#.##A.g#B.o#CQtQt",
"Qt.a#DQtQt.a.f.#.7#EQt.a.fQtQt.f.a#FQtQt.f.a.#.#.#Qt.a#BQt.fQtQt",
"Qt.aQtQt#d.a.y.#.#.#.f.aQtQtQt.g.fQtQtQt.a.L.#.#.#Qt.g#G#y.XQtQt",
"Qt.aQtQt#m.aQt#HQt.#.g.gQtQtQt.a.fQtQt.L.g#A#IQt.3.MQt#E#J#KQtQt",
"Qt.gQt#H.a.S.y.fQtQt.a.fQtQt.H.a#qQtQt.a#L.c#lQt.a.jQtQt#d#MQtQt",
"Qt.f.a.f#N#O#P.gQt.U.aQtQtQt.f.aQtQtQt.f#Q.a.#Qt.f.a.a.a.g.fQtQt",
"QtQtQtQtQtQtQtQtQtQtQtQtQtQtQtQtQtQtQtQtQtQtQtQtQtQtQtQtQtQtQtQt"};
