/* XPM */
static char *TBAMSnrel[]={
"32 32 105 2",
".a c #000000",
".N c #030303",
"#k c #060606",
".5 c #070707",
"#o c #090909",
".I c #0a0a0a",
"#y c #0d0d0d",
".q c #111111",
"#I c #131313",
".F c #141414",
".T c #171717",
"#C c #191919",
".7 c #1c1c1c",
"#c c #1f1f1f",
".w c #212121",
"#z c #222222",
".C c #242424",
"#L c #252525",
"#F c #282828",
"#i c #292929",
"#u c #2c2c2c",
".z c #2e2e2e",
"#q c #2f2f2f",
".e c #303030",
".Z c #353535",
"#x c #383838",
".f c #393939",
".l c #3a3a3a",
".v c #3b3b3b",
".j c #3c3c3c",
".Y c #3d3d3d",
".K c #3e3e3e",
".0 c #3f3f3f",
".3 c #444444",
"#s c #454545",
".i c #4b4b4b",
"#M c #4d4d4d",
".o c #585858",
".1 c #5c5c5c",
"#J c #5d5d5d",
".W c #5e5e5e",
".x c #626262",
"#j c #646464",
".r c #656565",
".H c #666666",
"#h c #696969",
"#p c #6a6a6a",
"#e c #6d6d6d",
"#v c #717171",
".u c #7c7c7c",
".S c #848484",
"#K c #888888",
".8 c #8a8a8a",
".G c #8b8b8b",
"#H c #909090",
".J c #989898",
".M c #9c9c9c",
"#n c #9e9e9e",
"#B c #9f9f9f",
"#b c #a4a4a4",
".P c #a5a5a5",
"#d c #a6a6a6",
"#m c #a8a8a8",
".B c #aaaaaa",
".E c #ababab",
".t c #acacac",
".R c #adadad",
".O c #afafaf",
".Q c #b0b0b0",
"#w c #b3b3b3",
".k c #b4b4b4",
".c c #b9b9b9",
".s c #bbbbbb",
".m c #bcbcbc",
"#l c #bdbdbd",
".h c #bfbfbf",
".d c #c0c0c0",
".p c #c1c1c1",
".U c #c2c2c2",
".A c #c3c3c3",
".L c #c5c5c5",
"## c #c8c8c8",
".n c #c9c9c9",
"Qt c #cccccc",
".4 c #cdcdcd",
".6 c #cfcfcf",
"#f c #d0d0d0",
".2 c #d1d1d1",
"#a c #d2d2d2",
".X c #d4d4d4",
".D c #d5d5d5",
"#. c #d6d6d6",
".# c #d7d7d7",
".b c #d8d8d8",
".V c #d9d9d9",
".y c #dadada",
"#g c #dcdcdc",
"#G c #dddddd",
".g c #dedede",
"#r c #dfdfdf",
"#E c #e1e1e1",
"#t c #e2e2e2",
".9 c #e5e5e5",
"#A c #e6e6e6",
"#D c #e7e7e7",
"QtQtQtQtQtQtQtQtQtQtQtQtQtQtQtQtQtQtQtQtQtQtQtQtQtQtQtQtQtQtQtQt",
"Qt.#.#.#.#.#.#.#.#.#.#.#.#.#.#.#.#.#.#.#.#.#QtQtQtQtQt.#.#QtQtQt",
"Qt.#.a.a.a.a.a.a.a.a.a.a.a.a.a.a.a.a.a.b.b.b.b.b.b.b.b.#.#QtQtQt",
"Qt.#.a.a.a.a.a.a.a.a.a.a.a.a.a.a.a.a.a.b.b.b.b.b.b.b.b.#.#QtQtQt",
"Qt.#.b.b.b.b.b.b.b.b.b.b.b.b.b.b.b.b.b.b.b.b.b.b.b.b.b.#.#QtQtQt",
"Qt.#.#.#.#.#.#.#.#.#.#.#.#.#.#.#.#.#.#.#.#.c.d.e.f.e.g.#.#QtQtQt",
"QtQt.#.#.#Qt.h.i.i.j.j.j.j.j.i.kQt.#.#.#.#.#.l.m.n.o.o.#.#QtQtQt",
"QtQt.#.#.p.j.j.j.q.r.s.p.t.u.v.w.x.y.#.#.#.#.z.A.n.B.C.#.#QtQtQt",
"QtQtQt.i.j.DQt.E.F.GQtQtQtQtQt.H.I.i.#.#.#.#.n.n.n.o.J.#.#QtQtQt",
"Qt.#.i.K.L.#Qt.M.N.OQtQtQtQtQt.D.N.i.#.#.#.#.n.n.P.C.n.#.#QtQtQt",
"Qt.#.Q.RQt.#Qt.S.T.UQtQtQtQtQt.V.F.i.#.#.#.#.n.n.P.C.OQt.#QtQtQt",
"Qt.#Qt.#.#.#Qt.W.f.XQtQtQtQtQt.i.YQt.#.#.#.#.n.n.n.o.ZQt.#QtQtQt",
"Qt.#.#.#.#.#Qt.0.1QtQtQtQtQt.2.3.4Qt.#.#.#.#.C.n.n.s.5.#.#QtQtQt",
"Qt.#.#.#.#Qt.6.7.8Qt.9#.##.i.j#a.#.#.#.#.#Qt.C.4.n.o.Y.#.#QtQtQt",
"Qt.#.#.#.#Qt#b#c.Q.2.W.j.j.iQtQt.#.#.#.#.##.#d.e.C.e.p.#.#QtQtQt",
"Qt.#.#.#.#Qt#e.f#f#g#h.a.f.6.#.#.#.#.#.#.#.#.#.#.#.#.#.#.#QtQtQt",
"Qt.#.#.#.#Qt#i#jQt.#Qt.z#k.iQt.#.#.#.#.#.#.#.n.n.n.n.n.#.#QtQtQt",
"Qt.#.#.#.##l.T#m.#.#Qt#n#o.z.6Qt.#.#QtQtQt.#.n.n.n.n.n.#.#QtQtQt",
"Qt.#.#.#.##p#q#r.#.#.#Qt#s.a.iQt.#Qt#lQt.#.#.n.n.n.n.n.#.#QtQtQt",
"Qt.#.#.##t#u#v.#.#.#.#Qt.i.q.C#wQt.pQtQt.#.#.n.n.n.n.n.#.#QtQtQt",
"Qt.#.#.#.i#x#a.#.#.#.#.#Qt.i#y#z.i#lQtQt.#.#.n.n.n.n.n.#.#QtQtQt",
"Qt.#.#.#.#.#.#.#.#.#.#.#.#.#.#.#.#.#.#.#.#.#.n.n.n.n.n.#.#QtQtQt",
"Qt.#.#.#.#.#.#.#.#.#.#.#.#.#.#.#.#.#.#.#.#.#.n.n.n.n.n.#.#QtQtQt",
"Qt.#.#.#.#.#.#.#.#.#.#.#.#.#.#.#.#.#.#.#.#.#.#.#.#.#.#.#.#QtQtQt",
"QtQt.i.a.a.k.m.#.#.6.j.i.D#f.i.j.c.V.j.j.j.6.#.#.#Qt#f.a.a.aQtQt",
"Qt.i.a.i.i.j.j.#Qt.j.i.a.j.2#l.i.a.i#w.R.i.a.#.#.##A.j#B.t#CQtQt",
"Qt.a#DQtQt.a.i.##..nQt.a.iQtQt.i.a#EQtQt.i.a.#.#.#Qt.a#BQt.iQtQt",
"Qt.aQtQt#f.a.D.#.#.#.i.aQtQtQt.j.iQtQtQt.a.Q.#.#.#Qt.j#F#z.0QtQt",
"Qt.aQtQt#n.aQt.bQt.#.j.jQtQtQt.a.iQtQt.Q.j#A#GQt.A.RQt.n#H#IQtQt",
"Qt.jQt.b.a.W.D.iQtQt.a.iQtQt.L.a#rQtQt.a.P.6#mQt.a#JQtQt#f.ZQtQt",
"Qt.i.a.i#K#L#M.jQt.X.aQtQtQt.i.aQtQtQt.i.e.a.#Qt.i.a.a.a.j.iQtQt",
"QtQtQtQtQtQtQtQtQtQtQtQtQtQtQtQtQtQtQtQtQtQtQtQtQtQtQtQtQtQtQtQt"};
