/* XPM */
static char *TBAMSop[]={
"32 32 100 2",
".g c #000000",
".b c #010101",
".f c #050505",
".9 c #070707",
".L c #0c0c0c",
".q c #0d0d0d",
".M c #0e0e0e",
".H c #101010",
".v c #111111",
".j c #171717",
"#w c #181818",
".e c #1f1f1f",
".E c #202020",
".8 c #212121",
".c c #232323",
".0 c #2d2d2d",
".d c #303030",
".D c #313131",
".3 c #323232",
"#C c #333333",
".n c #343434",
"#b c #353535",
".z c #383838",
"#. c #3d3d3d",
".a c #444444",
"#k c #454545",
".k c #484848",
".I c #4f4f4f",
"#G c #505050",
".7 c #565656",
".h c #585858",
".u c #5b5b5b",
"#v c #5f5f5f",
".r c #676767",
"#r c #6a6a6a",
"#q c #6d6d6d",
"#a c #6e6e6e",
".s c #6f6f6f",
".R c #717171",
"#H c #727272",
"#A c #797979",
".K c #7a7a7a",
"#g c #7d7d7d",
".Z c #7f7f7f",
".x c #808080",
"#u c #818181",
".S c #848484",
"#z c #898989",
".T c #8b8b8b",
".w c #8c8c8c",
"#s c #8d8d8d",
".V c #8e8e8e",
".t c #909090",
".m c #919191",
".p c #929292",
"#l c #989898",
"#E c #9a9a9a",
".Q c #9b9b9b",
"## c #9d9d9d",
".U c #9e9e9e",
".G c #a2a2a2",
".i c #a4a4a4",
".1 c #a6a6a6",
".P c #a9a9a9",
"#D c #ababab",
"#f c #aeaeae",
".4 c #b0b0b0",
"#y c #b1b1b1",
"#t c #b3b3b3",
".W c #b4b4b4",
".2 c #b6b6b6",
".A c #b7b7b7",
"#e c #bbbbbb",
".l c #bfbfbf",
"#d c #c0c0c0",
"#F c #c3c3c3",
".O c #c4c4c4",
".o c #c5c5c5",
".C c #c6c6c6",
"#j c #c7c7c7",
"#n c #cbcbcb",
"Qt c #cccccc",
".N c #cdcdcd",
".B c #cecece",
"#h c #d0d0d0",
".y c #d1d1d1",
"#c c #d2d2d2",
".F c #d3d3d3",
"#p c #d4d4d4",
".X c #d5d5d5",
".5 c #d7d7d7",
"#i c #d8d8d8",
".6 c #d9d9d9",
".# c #dbdbdb",
".J c #dcdcdc",
".Y c #dfdfdf",
"#B c #e0e0e0",
"#x c #e2e2e2",
"#m c #e4e4e4",
"#o c #e6e6e6",
"QtQtQtQtQtQtQtQtQtQtQtQtQtQtQtQtQtQtQtQtQtQtQtQtQtQtQtQtQtQtQtQt",
"QtQtQtQtQtQt.#.a.b.c.d.d.d.d.d.d.d.d.d.d.d.e.f.g.hQtQtQtQtQtQtQt",
"QtQtQtQtQtQtQt.i.j.kQtQtQtQtQtQtQtQtQtQtQt.l.m.n.c.oQtQtQtQtQtQt",
"QtQtQtQtQtQtQtQt.p.q.rQtQtQtQtQtQtQtQtQtQtQtQtQt.s.tQtQtQtQtQtQt",
"QtQtQtQtQtQtQtQtQt.u.v.wQtQtQtQtQtQtQtQtQtQtQtQtQt.xQtQtQtQtQtQt",
"QtQtQtQtQtQtQtQtQt.y.z.j.AQtQtQtQtQtQtQtQtQtQtQtQt.BQtQtQtQtQtQt",
"QtQtQtQtQtQtQtQtQtQt.C.D.E.FQtQtQtQtQtQtQtQtQtQtQtQtQtQtQtQtQtQt",
"QtQtQtQtQtQtQtQtQtQtQt.G.H.I.JQtQtQtQtQtQtQtQtQtQtQtQtQtQtQtQtQt",
"QtQtQtQtQtQtQtQtQtQtQtQt.K.L.sQtQtQtQtQtQtQtQtQtQtQtQtQtQtQtQtQt",
"QtQtQtQtQtQtQtQtQtQtQtQtQt.u.M.tQtQtQtQtQtQtQtQtQtQtQtQtQtQtQtQt",
"QtQtQtQtQtQtQtQtQtQtQtQtQt.N.z.nQtQtQtQtQtQtQtQtQtQtQtQtQtQtQtQt",
"QtQtQtQtQtQtQtQtQtQtQtQtQt.O.dQtQtQtQtQtQtQtQtQtQtQtQtQtQtQtQtQt",
"QtQtQtQtQtQtQtQtQtQtQtQtQt.d.PQtQtQtQtQtQtQtQtQtQtQtQtQtQtQtQtQt",
"QtQtQtQtQtQtQtQtQtQtQtQt.d.QQtQtQtQtQtQtQtQtQtQtQtQtQtQtQtQtQtQt",
"QtQtQtQtQtQtQtQtQtQtQt.R.SQtQtQtQtQtQtQtQtQtQtQtQtQtQtQtQtQtQtQt",
"QtQtQtQtQtQtQtQtQtQt.T.dQtQtQtQtQtQtQtQtQtQtQtQtQt.UQtQtQtQtQtQt",
"QtQtQtQtQtQtQtQtQt.V.dQtQtQtQtQtQtQtQtQtQtQtQtQt.i.dQtQtQtQtQtQt",
"QtQtQtQtQtQtQtQt.W.d.XQtQtQtQtQtQtQtQtQtQtQt.Y.Z.0.1QtQtQtQtQtQt",
"QtQtQtQtQtQtQt.2.3.4.5.6.6.6.6.6.6.6.6.2.t.7.8.9#.QtQtQtQtQtQtQt",
"QtQtQtQtQtQtQt##.d.d.d.d.d.d.d.d.d.d.d.d.d.d.d#a.1QtQtQtQtQtQtQt",
"QtQtQtQtQtQtQtQtQtQtQtQtQtQtQtQtQtQtQtQtQtQtQtQtQtQtQtQtQtQtQtQt",
"QtQtQtQtQtQtQtQtQtQtQtQtQtQtQtQtQtQtQtQtQtQtQtQtQtQtQtQtQtQtQtQt",
"QtQtQtQtQtQtQtQtQtQtQtQtQtQtQtQtQtQtQtQtQtQtQtQtQtQtQtQtQtQtQtQt",
"QtQtQtQtQtQtQtQtQtQtQtQtQtQtQtQtQtQtQtQtQtQtQtQtQtQtQtQtQtQtQtQt",
"QtQtQtQtQtQtQtQtQtQtQtQtQtQtQtQtQtQtQtQtQtQtQtQtQtQtQtQtQtQtQtQt",
"QtQtQtQt#b.g#b.VQtQt#c#b#b#d#e#b.g#f.4.g.g#gQtQtQtQt.y#b.g.gQtQt",
"QtQt.N.g#hQt.G.gQtQt.W#i.g#bQtQt.Z.g#jQtQt.gQtQtQtQt.g.lQt#kQtQt",
"QtQt#b#lQtQt#l#bQtQt#m.F.g#nQtQt#b#bQt#o#p.gQtQtQtQt.g.g#q#rQtQt",
"QtQt.gQtQtQt#b#sQtQtQt.G.g#o#o#o.g#t#o#o.V#uQtQtQt.YQt.U#v#wQtQt",
"QtQt.g#xQt.l.g#y#zQtQt#b#A#o#oQt.g#B#o#o.g.o.UQt.G#bQtQtQt#CQtQt",
"QtQt#D.g#b#b#b.g.ZQtQt.g#e#o#o#b#b#o#o#o.g.g#EQt#F#G.g.g#b#HQtQt",
"QtQtQtQtQtQtQtQtQtQtQtQtQtQtQtQtQtQtQtQtQtQtQtQtQtQtQtQtQtQtQtQt"};
