/* XPM */
static char *TBAMSrel[]={
"32 32 126 2",
".p c #000000",
"#m c #030303",
".T c #070707",
".q c #090909",
"#j c #0e0e0e",
"#q c #0f0f0f",
".z c #141414",
".C c #161616",
".Q c #1f1f1f",
"#s c #212121",
"#u c #222222",
"#T c #232323",
"#5 c #242424",
"#U c #252525",
".O c #262626",
"#W c #282828",
"#k c #292929",
"#a c #2a2a2a",
".j c #2e2e2e",
".m c #303030",
".t c #343434",
".L c #353535",
".r c #363636",
".d c #393939",
".f c #3a3a3a",
".u c #3c3c3c",
".Y c #3d3d3d",
".F c #3f3f3f",
".c c #404040",
".X c #414141",
".s c #434343",
".N c #454545",
".v c #464646",
".J c #484848",
"#d c #494949",
"#G c #4b4b4b",
".R c #4d4d4d",
"#c c #505050",
".4 c #515151",
".3 c #525252",
".o c #535353",
".y c #545454",
"#P c #555555",
".H c #575757",
".i c #585858",
".V c #595959",
"#R c #5a5a5a",
".1 c #5f5f5f",
"#e c #616161",
"#o c #626262",
".B c #636363",
".P c #646464",
"#6 c #6a6a6a",
"#V c #6d6d6d",
"#4 c #6e6e6e",
"## c #707070",
"#b c #797979",
".W c #7b7b7b",
"#1 c #7c7c7c",
".M c #7e7e7e",
".h c #838383",
"#i c #848484",
"#I c #858585",
".w c #868686",
"#L c #888888",
"#f c #8a8a8a",
".0 c #8b8b8b",
"#2 c #8d8d8d",
"#S c #909090",
"#Z c #919191",
"#l c #939393",
"#3 c #949494",
"#g c #959595",
"#p c #969696",
"#X c #989898",
"#n c #999999",
"#O c #9b9b9b",
".7 c #9d9d9d",
"#t c #a0a0a0",
"#H c #a1a1a1",
".K c #a2a2a2",
".2 c #a6a6a6",
"#v c #a8a8a8",
"#F c #a9a9a9",
".l c #aaaaaa",
"#7 c #ababab",
".n c #acacac",
"#E c #adadad",
"#J c #aeaeae",
".D c #afafaf",
"#B c #b0b0b0",
"#y c #b1b1b1",
"#Y c #b2b2b2",
".E c #b3b3b3",
".e c #b4b4b4",
"#z c #b6b6b6",
".Z c #b8b8b8",
".x c #b9b9b9",
"#C c #bababa",
".S c #bbbbbb",
".g c #bcbcbc",
"#. c #bdbdbd",
"#K c #bfbfbf",
".b c #c0c0c0",
".5 c #c1c1c1",
"#h c #c2c2c2",
".k c #c3c3c3",
".a c #c4c4c4",
".# c #c5c5c5",
"#w c #c6c6c6",
".8 c #c7c7c7",
".6 c #c8c8c8",
"#D c #cacaca",
".G c #cbcbcb",
"Qt c #cccccc",
".A c #cdcdcd",
".9 c #cecece",
"#A c #cfcfcf",
"#0 c #d1d1d1",
".U c #d3d3d3",
"#r c #d6d6d6",
"#N c #d7d7d7",
"#M c #d9d9d9",
"#x c #dcdcdc",
".I c #dfdfdf",
"#Q c #e5e5e5",
"QtQtQtQtQtQtQtQtQtQtQtQtQtQtQtQtQtQtQtQtQtQtQtQtQtQtQtQtQtQtQtQt",
"Qt.#.#.#.#.#.#.#.#.#.#.#.#.#.#.#.#.#.#.#.#.a.b.c.d.c.e.#.#.#QtQt",
"Qt.#.#.#.#.#.#.#.#.#.#.#.#.#.#.#.#.#.#.#.#.a.f.g.e.h.i.#.#.#QtQt",
"Qt.#.#.#.#.#.#.#.#.#.#.#.#.#.#.#.#.#.#.#.#.#.j.kQt.l.m.#.#.#QtQt",
"Qt.#.#.#.#.#.e.e.e.e.e.e.e.e.e.e.e.e.#.#.#.#.e.e.e.c.i.#.#.#QtQt",
"Qt.#.#.#.#.e.n.o.p.q.r.s.s.t.u.v.w.e.e.#.#.#Qt.e.i.m.e.#.#.#QtQt",
"Qt.#.#.a.x.p.o.l.y.z.A.#.#.a.a.B.C.y.a.#.#.#Qt.e.i.c.D.#.#.#QtQt",
"Qt.#.#.E.F.G.a.a.H.z.a.#.#.#.#.I.J.q.a.#.#.#.e.eQt.K.L.#.#.#QtQt",
"Qt.#.a.o.M.a.#.a.N.O.a.#.#.#.#.a.P.Q.a.#.#.#.R.e.e.S.T.#.#.#QtQt",
"Qt.#.a.a.#.#.#.U.p.V.#.#.#.#.#.a.p.W.a.#.#.#.X.AQt.i.Y.#.#.#QtQt",
"Qt.#.#.#.#.#.#.Z.p.0.#.#.#.#.a.o.1.e.a.#.#.#.2.3.f.4.5.6.#.#QtQt",
"Qt.#.#.#.#.#.#.7.p.8.#.#.#.a.o.p.9.a.#.#.#.#.5.g.g.g#..a.#.#QtQt",
"Qt.#.#.#.#.#.a###a.a.9#b#c.p.o.a.a.a.#.#.#.#.#.#.#.#.#.#.#.#QtQt",
"Qt.#.#.#.#.#.a#d#e.o#f.Q.p#g.#.#.#.#.#.#.#.#.#.#.#QtQtQtQtQtQtQt",
"Qt.#.#.#.#.##h.p.7.a.a#i#j#k.a.#.#.#.#.#.#.#.#.#.#QtQtQtQtQtQtQt",
"Qt.#.#.#.#.a#l.pQt.#.#.a.d#m#n.a.#.#.a.a.a.#.#.#.#QtQtQtQtQtQtQt",
"Qt.#.#.#.#.a.N#o.a.#.#.##p#q.j.a.#.#.a.Z#r.#.#.#.#QtQtQtQtQtQtQt",
"Qt.#.#.#.#.8#s#t.#.#.#.#.a.f#q.W.a.a.e.e.a.#.#.#.#QtQtQtQtQtQtQt",
"Qt.#.#.#.#.o.4.a.#.#.#.#.#.x#u.z.o#v#w.a.a.#.#.#.#QtQtQtQtQtQtQt",
"Qt.#.#.#.##x.a.a.#.#.#.#.#.a.a.a.a.a.a.#.#.#.#.#.#QtQtQtQtQtQtQt",
"Qt.#.#.#.#.#.#.#.#.#.#.#.#.#.#.#.#.#.#.#.#.#.#.#.#QtQtQtQtQtQtQt",
"Qt.#.#.#.#.#.#.#.#.#.#.#.#.#.#.#.#.#.#.#.#.#.#.#.#QtQtQtQtQtQtQt",
"Qt.#.#.#.#.#.#.#.#.#.#.#.#.#.#.#.#.#.#.#.#.#.#.#.#QtQtQtQtQtQtQt",
"Qt.#.#.#.#.#.#.#.#.#.#.#.#.#.#.#.#.#.#.#.#.#.#.#.#.#.#.#.#.#QtQt",
"Qt.#.a.A#y#z#A.a.#.a.6.D.a.a.a#B#C.a#D#B.D#D.a.#.#.#.a#.#E.EQtQt",
"Qt.a#F.o.p.p#G#v.#.a.o.o.p.n.5.o.p.o#H.o.o.p.a.#.#.##I.o.o.pQtQt",
"Qt#J.p.e.a.a.m#z.##K#A#L.p#M.a#N.p.o.a.a.e.p.a.#.#.#.p#O.a.aQtQt",
"Qt#P#E.a.#.n.c.a.#.a#Q#R#S.a.a#..p.U.a.#.K.o.a.#.#.#.o#T#U#VQtQt",
"Qt#W.a.#.###.B.a.a.a.U.p.e.a.a#X.o.e.#.e.i#y.e.k.I#Y.aQt.o.tQtQt",
"Qt.p.U.##D.t#Z#v.#.a.Z.p#0.a.a.o#1.a.#.D#o.e#2.k#3.p.e.a.e.oQtQt",
"Qt#z.p.p.o#4#5#6.I.a.o.o.a.a.a.o#7.a.##w.p.p.E.a.a.o.p.p.o.8QtQt",
"QtQtQtQtQtQtQtQtQtQtQtQtQtQtQtQtQtQtQtQtQtQtQtQtQtQtQtQtQtQtQtQt"};
