/* XPM */
static char *TBAMSmisc[]={
"32 32 94 2",
".h c #000000",
".r c #010101",
".A c #020202",
".F c #050505",
".B c #060606",
".k c #070707",
".L c #080808",
".v c #0a0a0a",
".d c #101010",
".I c #111111",
".W c #131313",
".T c #151515",
".z c #181818",
".G c #191919",
".Q c #1a1a1a",
".w c #202020",
".g c #232323",
".b c #303030",
".l c #313131",
"#. c #323232",
".Z c #353535",
".M c #373737",
".q c #393939",
"#w c #3a3a3a",
".Y c #3b3b3b",
".O c #434343",
".c c #494949",
".C c #4a4a4a",
".N c #4b4b4b",
".E c #4c4c4c",
"#g c #4f4f4f",
".J c #535353",
".0 c #5a5a5a",
".# c #5f5f5f",
"#m c #646464",
".i c #676767",
"#n c #696969",
"#t c #6a6a6a",
".3 c #6c6c6c",
".U c #6f6f6f",
".s c #757575",
"#d c #767676",
"#b c #777777",
".V c #7a7a7a",
"#l c #7c7c7c",
".5 c #7e7e7e",
".4 c #7f7f7f",
"#z c #808080",
".S c #858585",
".p c #868686",
".K c #8b8b8b",
".o c #8c8c8c",
".y c #8d8d8d",
".n c #909090",
".j c #929292",
"#j c #939393",
".x c #969696",
".a c #999999",
"#B c #9a9a9a",
".1 c #9c9c9c",
".t c #9f9f9f",
"#f c #a2a2a2",
"#A c #a3a3a3",
".e c #a4a4a4",
"#x c #a5a5a5",
".9 c #a9a9a9",
"#v c #aaaaaa",
"#k c #ababab",
"#h c #acacac",
"#s c #aeaeae",
".6 c #afafaf",
".P c #b2b2b2",
".X c #b5b5b5",
".8 c #b6b6b6",
".m c #b7b7b7",
".R c #bababa",
".7 c #bbbbbb",
".D c #bdbdbd",
".H c #bebebe",
"#p c #c2c2c2",
"## c #c3c3c3",
".f c #c5c5c5",
"#y c #c6c6c6",
"Qt c #cccccc",
".u c #cfcfcf",
"#o c #d0d0d0",
"#q c #d1d1d1",
"#c c #d5d5d5",
".2 c #d7d7d7",
"#e c #dadada",
"#r c #e0e0e0",
"#a c #e3e3e3",
"#i c #e4e4e4",
"#u c #e7e7e7",
"QtQtQtQtQtQtQtQtQtQtQtQtQtQtQtQtQtQtQtQtQtQtQtQtQtQtQtQtQtQtQtQt",
"QtQtQtQtQtQtQtQtQtQtQtQtQtQtQtQtQtQtQtQtQtQtQtQtQtQtQtQtQtQtQtQt",
"QtQtQtQtQtQtQtQtQtQtQtQtQtQtQtQt.#QtQtQtQtQtQtQtQtQtQtQtQtQtQtQt",
"QtQtQtQtQtQtQtQtQtQtQtQtQtQtQt.a.bQtQtQtQtQtQtQtQtQtQtQtQtQtQtQt",
"QtQtQtQtQtQtQtQtQtQtQtQtQtQtQt.c.d.eQtQtQtQtQtQtQtQtQtQtQtQtQtQt",
"QtQtQtQtQtQtQtQtQtQtQtQtQtQt.f.g.h.iQtQtQtQtQtQtQtQtQtQtQtQtQtQt",
"QtQtQtQtQtQtQtQtQtQtQtQtQtQt.j.k.h.lQtQtQtQtQtQtQtQtQtQtQtQtQtQt",
"QtQtQtQtQtQtQtQt.m.n.o.o.o.p.q.h.h.r.s.o.o.o.o.tQtQtQtQtQtQtQtQt",
"QtQtQtQtQtQtQtQt.u.#.v.h.h.h.h.h.h.h.h.h.h.h.w.xQtQtQtQtQtQtQtQt",
"QtQtQtQtQtQtQtQtQtQt.y.z.A.h.h.h.h.h.h.h.B.CQtQtQtQtQtQtQtQtQtQt",
"QtQtQtQtQtQtQtQtQtQtQt.D.E.F.h.h.h.h.r.G.sQtQtQtQtQtQtQtQtQtQtQt",
"QtQtQtQtQtQtQtQtQtQtQtQt.H.I.h.h.h.h.r.JQtQtQtQtQtQtQtQtQtQtQtQt",
"QtQtQtQtQtQtQtQtQtQtQtQt.K.L.h.h.h.h.h.MQtQtQtQtQtQtQtQtQtQtQtQt",
"QtQtQtQtQtQtQtQtQtQtQtQt.N.h.h.G.O.L.h.d.PQtQtQtQtQtQtQtQtQtQtQt",
"QtQtQtQtQtQtQtQtQtQtQt.H.Q.F.M.RQt.S.T.r.UQtQtQtQtQtQtQtQtQtQtQt",
"QtQtQtQtQtQtQtQtQtQtQt.V.W.sQtQtQtQt.X.Y.ZQtQtQtQtQtQtQtQtQtQtQt",
"QtQtQtQtQtQtQtQtQtQtQt.0.1QtQtQtQtQtQt.2.3QtQtQtQtQtQtQtQtQtQtQt",
"QtQtQtQtQtQtQtQtQtQtQtQtQtQtQtQtQtQtQtQtQtQtQtQtQtQtQtQtQtQtQtQt",
"QtQtQtQtQtQtQtQtQtQtQtQtQtQtQtQtQtQtQtQtQtQtQtQtQtQtQtQtQtQtQtQt",
"QtQtQtQtQtQtQtQtQtQtQtQtQtQtQtQtQtQtQtQtQtQtQtQtQtQtQtQtQtQtQtQt",
"QtQtQtQtQtQtQtQtQtQtQtQtQtQtQtQtQtQtQtQtQtQtQtQtQtQtQtQtQtQtQtQt",
"QtQtQtQtQtQtQtQtQtQtQtQtQtQtQtQtQtQtQtQtQtQtQtQtQtQtQtQtQtQtQtQt",
"QtQtQtQtQtQtQtQtQtQtQtQtQtQtQtQtQtQtQtQtQtQtQtQtQtQtQtQtQtQtQtQt",
"QtQtQtQtQtQtQtQtQtQtQtQtQtQtQtQtQtQtQtQtQtQtQtQtQtQtQtQtQtQtQtQt",
"QtQtQtQtQt.s.h.4.1QtQt.5.h.6.7.U.h.8.a.h.h.9QtQtQtQt#..h.hQtQtQt",
"QtQtQt###.#aQt#.#bQt#c.m#d.hQtQt#..h#eQtQt.hQtQtQt.h#fQt#gQtQtQt",
"QtQtQt#.#hQtQt.h#hQt#iQt.h#hQtQt#.#jQtQt#k#lQtQtQt.h.h#m#nQtQtQt",
"QtQtQt.hQtQtQt.hQtQtQt#o.hQtQtQt.h#pQtQt.h#qQtQt#rQt#s#t.QQtQtQt",
"QtQtQt.h#uQt.y.h.u#kQt#s.hQtQt#o.hQtQt#v.h.2#sQt#..PQtQt#wQtQtQt",
"QtQtQt#x.h.h.y.h.h#yQt#.#zQtQt#A#nQtQt.D.h.h#cQt#..h.h#B#.QtQtQt",
"QtQtQtQtQtQtQtQtQtQtQtQtQtQtQtQtQtQtQtQtQtQtQtQtQtQtQtQtQtQtQtQt",
"QtQtQtQtQtQtQtQtQtQtQtQtQtQtQtQtQtQtQtQtQtQtQtQtQtQtQtQtQtQtQtQt"};
