/* XPM */
static char *TBAMSrel[]={
"32 32 137 2",
".w c #000000",
"#. c #010101",
"#u c #030303",
"## c #040404",
".s c #080808",
".x c #090909",
"#r c #0e0e0e",
"#x c #0f0f0f",
".o c #101010",
".J c #141414",
".M c #161616",
".0 c #1f1f1f",
"#A c #212121",
"#F c #222222",
"#1 c #232323",
"af c #242424",
"#2 c #252525",
".Y c #262626",
"#4 c #282828",
"#s c #292929",
"#i c #2a2a2a",
".l c #2b2b2b",
"#y c #2e2e2e",
"#Q c #303030",
".A c #343434",
".y c #363636",
".d c #373737",
"#a c #393939",
".9 c #3a3a3a",
".B c #3c3c3c",
".Q c #3f3f3f",
"#X c #404040",
".z c #434343",
".X c #454545",
".C c #464646",
".U c #484848",
"#l c #494949",
".N c #4b4b4b",
".5 c #4f4f4f",
"#k c #505050",
"#E c #515151",
".v c #535353",
".G c #545454",
"#W c #555555",
".S c #575757",
".V c #585858",
".2 c #595959",
"#Y c #5a5a5a",
".q c #5f5f5f",
".k c #606060",
"#m c #616161",
".j c #626262",
".L c #636363",
".Z c #646464",
".c c #696969",
".e c #6a6a6a",
"#3 c #6d6d6d",
"ae c #6e6e6e",
"#h c #707070",
".F c #737373",
".6 c #757575",
"#j c #797979",
".3 c #7b7b7b",
"a# c #7c7c7c",
".W c #7e7e7e",
".g c #838383",
"#q c #848484",
"#D c #858585",
".D c #868686",
"#S c #888888",
"#n c #8a8a8a",
".8 c #8b8b8b",
"ab c #8d8d8d",
"#Z c #909090",
"#9 c #919191",
"#t c #939393",
"ac c #949494",
"#o c #959595",
"#w c #969696",
"#6 c #989898",
"#v c #999999",
"#C c #9a9a9a",
"#V c #9b9b9b",
"#b c #9d9d9d",
"#B c #a0a0a0",
"#O c #a1a1a1",
"#0 c #a2a2a2",
"#G c #a8a8a8",
"#N c #a9a9a9",
".I c #aaaaaa",
"ag c #ababab",
".u c #acacac",
"#M c #adadad",
".n c #aeaeae",
"#J c #afafaf",
"#K c #b0b0b0",
"#I c #b1b1b1",
"#8 c #b2b2b2",
".P c #b3b3b3",
"#5 c #b4b4b4",
".r c #b6b6b6",
".7 c #b8b8b8",
".H c #b9b9b9",
".4 c #bababa",
"#f c #bcbcbc",
"#g c #bdbdbd",
".1 c #bebebe",
"#R c #bfbfbf",
".O c #c0c0c0",
"#e c #c1c1c1",
"#p c #c2c2c2",
".i c #c3c3c3",
".a c #c4c4c4",
".# c #c5c5c5",
"#H c #c6c6c6",
"#c c #c7c7c7",
".h c #c8c8c8",
"#L c #cacaca",
".R c #cbcbcb",
"Qt c #cccccc",
".K c #cdcdcd",
"#d c #cecece",
".b c #cfcfcf",
"a. c #d1d1d1",
".m c #d3d3d3",
"#z c #d6d6d6",
"#T c #d7d7d7",
"#U c #d8d8d8",
".f c #d9d9d9",
".E c #dadada",
".t c #dcdcdc",
"aa c #dddddd",
".p c #dedede",
".T c #dfdfdf",
"#7 c #e0e0e0",
"ad c #e2e2e2",
"#P c #e5e5e5",
"QtQtQtQtQtQtQtQtQtQtQtQtQtQtQtQtQtQtQtQtQtQtQtQtQtQtQtQtQtQtQtQt",
"Qt.#.#.#.#.#.#.#.#.#.#.#.#.#.#.#.#.#.#.#.#.a.b.c.d.e.f.#.#.#QtQt",
"Qt.#.#.#.#.#.#.#.#.#.#.#.#.#.#.#.#.#.#.#.#.a.g.h.i.j.k.#.#.#QtQt",
"Qt.#.#.#.#.#.#.#.#.#.#.#.#.#.#.#.#.#.#.#.#.#.l.m.i.n.o.#.#.#QtQt",
"Qt.#.#.#.#.#.p.p.p.p.p.p.p.p.p.p.p.p.#.#.#.#.q.m.i.r.s.#.#.#QtQt",
"Qt.#.#.#.#.t.u.v.w.x.y.z.z.A.B.C.D.E.p.#.#.#.i.i.i.F.G.#.#.#QtQt",
"Qt.#.#.a.H.w.v.I.G.J.K.#.#.a.a.L.M.G.a.#.#.#.i.i.E.N.O.#.#.#QtQt",
"Qt.#.#.P.Q.R.a.a.S.J.a.#.#.#.#.T.U.x.a.#.#.#.i.i.V.P.i.#.#.#QtQt",
"Qt.#.a.v.W.a.#.a.X.Y.a.#.#.#.#.a.Z.0.a.#.#.#.i.V.1.i.i.#.#.#QtQt",
"Qt.#.a.a.#.#.#.m.w.2.#.#.#.#.#.a.w.3.a.#.#.#.4.5.6.W.w.#.#.#QtQt",
"Qt.#.#.#.#.#.#.7.w.8.#.#.#.#.a.v.q.E.a.#.#.#.9#..w###a.h.#.#QtQt",
"Qt.#.#.#.#.#.##b.w#c.#.#.#.a.v.w#d.a.#.#.#.##e#f#f#f#g.a.#.#QtQt",
"Qt.#.#.#.#.#.a#h#i.a#d#j#k.w.v.a.a.a.#.#.#.#.#.#.#.#.#.#.#.#QtQt",
"Qt.#.#.#.#.#.a#l#m.v#n.0.w#o.#.#.#.#.#.#.#.#.#.#.#.i.i.i.i.iQtQt",
"Qt.#.#.#.#.##p.w#b.a.a#q#r#s.a.#.#.#.#.#.#.#.#.#.#.i.i.i.i.iQtQt",
"Qt.#.#.#.#.a#t.wQt.#.#.a#a#u#v.a.#.#.a.a.a.#.#.#.#.i.i.i.i.iQtQt",
"Qt.#.#.#.#.a.X.j.a.#.#.##w#x#y.a.#.#.a.7#z.#.#.#.#.i.i.i.i.iQtQt",
"Qt.#.#.#.##c#A#B.#.#.#.#.a.9#x.3.a.a#C#D.a.#.#.#.#.i.i.i.i.iQtQt",
"Qt.#.#.#.#.v#E.a.#.#.#.#.#.H#F.J.v#G#H.a.a.#.#.#.#.i.i.i.i.iQtQt",
"Qt.#.#.#.#.t.a.a.#.#.#.#.#.a.a.a.a.a.a.#.#.#.#.#.#.i.i.i.i.iQtQt",
"Qt.#.#.#.#.#.#.#.#.#.#.#.#.#.#.#.#.#.#.#.#.#.#.#.#.i.i.i.i.iQtQt",
"Qt.#.#.#.#.#.#.#.#.#.#.#.#.#.#.#.#.#.#.#.#.#.#.#.#.i.i.i.i.iQtQt",
"Qt.#.#.#.#.#.#.#.#.#.#.#.#.#.#.#.#.#.#.#.#.#.#.#.#.i.i.i.i.iQtQt",
"Qt.#.#.#.#.#.#.#.#.#.#.#.#.#.#.#.#.#.#.#.#.#.#.#.#.#.#.#.#.#QtQt",
"Qt.#.a.K#I.r.b.a.#.a.h#J.a.a.a#K.4.a#L#K#J#L.a.#.#.#.a#g#M.PQtQt",
"Qt.a#N.v.w.w.N#G.#.a.v.v.w.u#e.v.w.v#O.v.v.w.a.#.#.##D.v.v.wQtQt",
"Qt.n.w#P.a.a#Q.r.##R.b#S.w.f.a#T.w.v.a.a#U.w.a.#.#.#.w#V.a.aQtQt",
"Qt#W#M.a.#.u#X.a.#.a#P#Y#Z.a.a#g.w.m.a.##0.v.a.#.#.#.v#1#2#3QtQt",
"Qt#4.a.#.##h.L.a.a.a.m.w#5.a.a#6.v#P.#.p.V#I#7.i.T#8.aQt.v.AQtQt",
"Qt.w.m.##L.A#9#G.#.a.7.wa..a.a.va#.a.##J.jaaab.iac.w#P.aad.vQtQt",
"Qt.r.w.w.vaeaf.e.T.a.v.v.a.a.a.vag.a.##H.w.w.P.a.a.v.w.w.v#cQtQt",
"QtQtQtQtQtQtQtQtQtQtQtQtQtQtQtQtQtQtQtQtQtQtQtQtQtQtQtQtQtQtQtQt"};
