/* XPM */
static char *TBarrow[]={
"32 32 2 1",
"# c #000000",
". c #cccccc",
"................................",
"................................",
"................................",
"................................",
"................................",
"................................",
"................................",
"................................",
"................................",
"................................",
"................................",
".........................#......",
"..........................#.....",
"..........................##....",
"..........................###...",
"..############################..",
"..#############################.",
"..############################..",
"..........................##....",
".........................##.....",
".........................#......",
"................................",
"................................",
"................................",
"................................",
"................................",
"................................",
"................................",
"................................",
"................................",
"................................",
"................................"};
