/* XPM */
static char *TBbop[]={
"32 32 13 1",
"a c #000000",
"b c #111111",
"h c #222222",
"i c #333333",
"k c #444444",
"c c #555555",
"j c #666666",
"# c #777777",
"e c #888888",
"g c #999999",
"f c #aaaaaa",
"d c #bbbbbb",
". c #cccccc",
"................................",
"................................",
"................................",
"...#aaaaaaaaaaaaaaaaaaaaaa......",
"....bac.............decaaae.....",
"....faag................#ah.....",
".....#ab.................db.....",
"......iai.................gj....",
".......ba#.................c....",
".......eaaf.....................",
"........cab.....................",
".........hak....................",
".........daa#...................",
"..........#aa...................",
"...........kah..................",
"............baj.................",
"............fai.................",
"............gb..................",
"............a...................",
"...........bg...................",
"..........ij....................",
".........ji.....................",
"........gb......................",
"........ad.................k....",
".......be.................e#....",
"......ij.................ea.....",
".....ji................dkai.....",
"....eb..............f#haaae.....",
"...daaaaaaaaaaaaaaaaaaaaaa......",
"................................",
"................................",
"................................"};
