/* XPM */
static char *greek[]={
"32 32 16 1",
"c c #000000",
"l c #0c0c0c",
"b c #181818",
"d c #242424",
"g c #303030",
"m c #3c3c3c",
"a c #484848",
"j c #545454",
"e c #606060",
"h c #6c6c6c",
"n c #787878",
"# c #848484",
"f c #909090",
"k c #9c9c9c",
"i c #a8a8a8",
". c #cdcecd",
"................................",
"................................",
"................................",
"................................",
"................................",
"................................",
"................................",
"................................",
"............#abccde.............",
"..........fgbhi.ijcdi....j......",
".........hcdi.....aca...kd......",
"........hclk......fcck..ee......",
".......fccj........cch..bk......",
".......bcck........gcj.#a.......",
"......hccd.........gcj.gk.......",
"......mccj.........gcjhj........",
"......lcc#.........gcadi........",
"......ccck.........gcc#.........",
"......lcc..........gcm..........",
"......mcci.........dca..........",
"......fcch.......fgdcg..kf......",
".......hclh...knaakkcli.m#......",
"........kabcclgek...nbcbn.......",
"................................",
"................................",
"................................",
"................................",
"................................",
"................................",
"................................",
"................................",
"................................"};
