/* XPM */
static char *TBmath[]={
"32 32 6 1",
"b c #000000",
"# c #60c080",
"a c #949494",
"c c #99cccc",
". c #cccccc",
"d c #ffcbfe",
"................................",
"...................###########..",
"...................###########..",
"...................###########a.",
"...................##bbb#bb###a.",
"...................###bbb#bb##a.",
"...................###bb##bb##a.",
"...................###bb##bb##a.",
"..ccccccccccccccc..###bb##bb##a.",
"..ccccccccccccccc..##bb##bb###a.",
"..ccbbbbbbbbbbbcca.##bb##bb###a.",
"..cccbbbccccccbcca.##bb##bbb##a.",
"..ccccbbbcccccccca.###########a.",
"..cccccbbbccccccca.###########a.",
"..ccccccbbbcccccca.###########a.",
"..cccccccbbbccccca...aaaaaaaaaa.",
"..ccccccccbbccccca..............",
"..cccccccbbcccccca.dddddddddd...",
"..ccccccbbccccccca.dddddddddd...",
"..cccccbbcccccccca.dddddddddda..",
"..ccccbbccccccbcca.ddbbbdbbdda..",
"..cccbbbbbbbbbbcca.dddbbdbbdda..",
"..ccbbbbbbbbbbbcca.dddbbbdbdda..",
"..ccccccccccccccca.dddbbddddda..",
"..ccccccccccccccca.dddbbddddda..",
"....aaaaaaaaaaaaaa.ddbbdddddda..",
"...................ddbbdddddda..",
"...................ddbbdddddda..",
"...................dddddddddda..",
"...................dddddddddda..",
"...................dddddddddda..",
".....................aaaaaaaaa.."};
