/* XPM */
static char *TBrel[]={
"32 32 2 1",
"# c #000000",
". c #cccccc",
"................................",
"................................",
"................................",
"................................",
"................................",
"................................",
"................................",
"................................",
"................................",
"................................",
".........####...................",
"........#######........##.......",
"........#########......##.......",
".......##....#####....##........",
".......##......#########........",
".......##........######.........",
"..................####..........",
".........####...................",
".........######........##.......",
"........#...######....###.......",
".......##.....##########........",
".......##........#######........",
".......##.........####..........",
"................................",
"................................",
"................................",
"................................",
"................................",
"................................",
"................................",
"................................",
"................................"};
