/* XPM */
static char *therefore[]={
"20 20 7 1",
"# c #111111",
"e c #222222",
"a c #333333",
"d c #444444",
"b c #666666",
"c c #777777",
". c #ffffff",
"....................",
"....................",
"....................",
"....................",
"....................",
".........#a.........",
".........ab.........",
"....................",
"....................",
"....................",
"....................",
"....................",
"....cd.......bd.....",
"....e#.......##.....",
"....................",
"....................",
"....................",
"....................",
"....................",
"...................."};
