/* XPM */
static char *thicksim[]={
"20 20 15 1",
"b c #000000",
"f c #111111",
"l c #222222",
"g c #333333",
"k c #444444",
"c c #555555",
"a c #666666",
"e c #777777",
"i c #888888",
"j c #999999",
"m c #aaaaaa",
"d c #bbbbbb",
"h c #cccccc",
"# c #eeeeee",
". c #ffffff",
"....................",
"....................",
"....................",
"....................",
"....................",
"....................",
"....................",
"....................",
"....#abbcd.....b....",
"....ae.#efd...eg....",
"....b....hgi.jbd....",
"....k.....#ablm.....",
"....................",
"....................",
"....................",
"....................",
"....................",
"....................",
"....................",
"...................."};
