/* XPM */
static char *tilde[] = {
/* width height num_colors chars_per_pixel */
"    20    20       53            1",
/* colors */
". c #020202",
"# c #0f0f0f",
"a c #191919",
"b c #1b1b1b",
"c c #1e1e1e",
"d c #232323",
"e c #282828",
"f c #393939",
"g c #505050",
"h c #525252",
"i c #575757",
"j c #5d5d5d",
"k c #676767",
"l c #686868",
"m c #6e6e6e",
"n c #767676",
"o c #777777",
"p c #7c7c7c",
"q c #868686",
"r c #909090",
"s c #949494",
"t c #979797",
"u c #9b9b9b",
"v c #9f9f9f",
"w c #aeaeae",
"x c #afafaf",
"y c #bebebe",
"z c #c0c0c0",
"A c #c5c5c5",
"B c #c7c7c7",
"C c #c9c9c9",
"D c #cbcbcb",
"E c #d3d3d3",
"F c #d6d6d6",
"G c #d9d9d9",
"H c #dadada",
"I c #dbdbdb",
"J c #e1e1e1",
"K c #e5e5e5",
"L c #e6e6e6",
"M c #e8e8e8",
"N c #ebebeb",
"O c #f0f0f0",
"P c #f1f1f1",
"Q c #f3f3f3",
"R c #f4f4f4",
"S c #f5f5f5",
"T c #f8f8f8",
"U c #f9f9f9",
"V c #fafafa",
"W c #fdfdfd",
"X c #fefefe",
"Y c #ffffff",
/* pixels */
"XXYXXXXXXXXXXXXXYYYY",
"XYYYXXXXXXXXXXXXYYYY",
"YXYYYXXXXXXXXXXXYYYY",
"YYYYYXXXXXXXXXXXYYYY",
"YYYYYXXWQNXUWXXXYYYY",
"XXYXXXXOgdmiFXXXYYYY",
"XXYYYXXKMSxBXXXXYYYY",
"XXXXXXXXXWWXXXXXYYYY",
"XXXXXXXXDlntzXXXYYYY",
"XXYXXXXCeLP#sXXXYYYY",
"XXXXXXXfrXR#EXXXYYYY",
"XXXXXXH.IXAaTXXXYYYY",
"YXYYXXycXXqhGHXXYYYY",
"XXYXYXJbVMcpoOXXYYYY",
"XXXXXXXvkowjuWXXYYYY",
"XYYXXXXXWWXWWXXXYYYY",
"XXYYXXXXXXXXXXXXYYYY",
"XXXXXXXXXXXXXXXXYYYY",
"XYXYXXXXXXXXXXXXYYYY",
"XXYYXXXXXXXXXXXXYYYY"
};
