/* XPM */
static char *times[] = {
/* width height num_colors chars_per_pixel */
"    20    20       32            1",
/* colors */
". c #222222",
"# c #292929",
"a c #2a2a2a",
"b c #3b3b3b",
"c c #3d3d3d",
"d c #3f3f3f",
"e c #414141",
"f c #454545",
"g c #474747",
"h c #4b4b4b",
"i c #4c4c4c",
"j c #797979",
"k c #919191",
"l c #969696",
"m c #989898",
"n c #9a9a9a",
"o c #ababab",
"p c #bbbbbb",
"q c #c3c3c3",
"r c #c6c6c6",
"s c #cacaca",
"t c #d1d1d1",
"u c #d5d5d5",
"v c #dadada",
"w c #e6e6e6",
"x c #e7e7e7",
"y c #e9e9e9",
"z c #eeeeee",
"A c #f1f1f1",
"B c #f3f3f3",
"C c #fefefe",
"D c #ffffff",
/* pixels */
"DCDCDCCCCCCCCCCCDDDD",
"CCDCCCCCCCCCCCCCDDDD",
"DDDCDCCCCCCCCCCCDDDD",
"DDDDDCCDCCCCCDCCDDDD",
"DDDDDCCCCCCCCCCCDDDD",
"DCDCDCCCCCCCCCCCDDDD",
"CDDDCCjqCCCCkoCCDDDD",
"CCDDCCv#rCCldBCCDDDD",
"DDDDDCCuasncACCCDDDD",
"DDDDDCCCt.bzCCCCDDDD",
"CDDCDCCCtehzCCCCDDDD",
"CDDCCCCugysiACCCDDDD",
"DDDDDCvfxCCriBCCDDDD",
"DDDCDCmwCCCCqpCCDDDD",
"DDDDDCCCCCCCCCCCDDDD",
"DDDDDCCCCCCCCCCCDDDD",
"CCDCDCCCCCCCCCCCDDDD",
"DDDDCCCCCCCCCCCCDDDD",
"DDDDDCCCCCCCCCCCDDDD",
"DDDDDCCCCCCCCCCCDDDD"
};
