/* XPM */
static char *trianglerighteq[]={
"20 20 14 1",
"c c #000000",
"# c #111111",
"f c #333333",
"i c #444444",
"a c #555555",
"l c #666666",
"e c #777777",
"h c #888888",
"g c #999999",
"b c #aaaaaa",
"j c #bbbbbb",
"k c #dddddd",
"d c #eeeeee",
". c #ffffff",
"....................",
"....................",
"....................",
"....#ab.............",
"....cdefg...........",
"....c..dhigd........",
"....c.....gfed......",
"....c.......jae.....",
"....c.......gfe.....",
"....c....dhig.......",
"....c..defg.........",
"....cklaj...........",
"....#ij.............",
"....................",
"....................",
"....................",
"....iccccccccc#.....",
"....................",
"....................",
"...................."};
