/* XPM */
static char *triangleup[] = {
/* width height num_colors chars_per_pixel */
"    20    20       38            1",
/* colors */
". c #232323",
"# c #242424",
"a c #363636",
"b c #383838",
"c c #3b3b3b",
"d c #3c3c3c",
"e c #444444",
"f c #464646",
"g c #696969",
"h c #6c6c6c",
"i c #6d6d6d",
"j c #828282",
"k c #858585",
"l c #888888",
"m c #949494",
"n c #959595",
"o c #9e9e9e",
"p c #9f9f9f",
"q c #a0a0a0",
"r c #a1a1a1",
"s c #a2a2a2",
"t c #ababab",
"u c #adadad",
"v c #aeaeae",
"w c #b6b6b6",
"x c #b9b9b9",
"y c #e3e3e3",
"z c #ebebeb",
"A c #f0f0f0",
"B c #f1f1f1",
"C c #f3f3f3",
"D c #f7f7f7",
"E c #f9f9f9",
"F c #fbfbfb",
"G c #fcfcfc",
"H c #fdfdfd",
"I c #fefefe",
"J c #ffffff",
/* pixels */
"IIJIIIIIIIIIIIIIJJJJ",
"IJJJIIIIIIIIIIIIJJJJ",
"JIJJJIIIICGIIIIIJJJJ",
"JJJJJIIID#wIIIIIJJJJ",
"JJJJJIIIohfGIIIIJJJJ",
"IIJIIIIBdAhxIIIIJJJJ",
"IIJJJIIjmIzcEIIIJJJJ",
"IIIIIIAbFIIloIIIJJJJ",
"IIIIIIkqIIIAbHIIJJJJ",
"IIJIIBaHIIIIksIIJJJJ",
"IIIIIguIIIIIAaAIJJJJ",
"IIIIyeHIIIIIIrkIJJJJ",
"JIJJhivvvvvvvt.AJJJJ",
"IIJIpnnnnnnnnnnzJJJJ",
"IIIIIIIIIIIIIIIIJJJJ",
"IJJIIIIIIIIIIIIIJJJJ",
"IIJJIIIIIIIIIIIIJJJJ",
"IIIIIIIIIIIIIIIIJJJJ",
"IJIJIIIIIIIIIIIIJJJJ",
"IIJJIIIIIIIIIIIIJJJJ"
};
