/* XPM */
static char *underline[] = {
/* width height num_colors chars_per_pixel */
"    35    20       79            2",
/* colors */
".. c #000000",
".# c #030303",
".a c #070707",
".b c #090909",
".c c #101010",
".d c #171717",
".e c #181818",
".f c #202020",
".g c #212121",
".h c #232323",
".i c #2b2b2b",
".j c #2d2d2d",
".k c #2e2e2e",
".l c #343434",
".m c #404040",
".n c #444444",
".o c #494949",
".p c #535353",
".q c #565656",
".r c #595959",
".s c #5d5d5d",
".t c #5e5e5e",
".u c #5f5f5f",
".v c #606060",
".w c #616161",
".x c #646464",
".y c #6a6a6a",
".z c #6b6b6b",
".A c #6e6e6e",
".B c #707070",
".C c #717171",
".D c #737373",
".E c #767676",
".F c #7a7a7a",
".G c #7c7c7c",
".H c #7f7f7f",
".I c #808080",
".J c #818181",
".K c #838383",
".L c #8a8a8a",
".M c #8b8b8b",
".N c #8f8f8f",
".O c #999999",
".P c #9e9e9e",
".Q c #a0a0a0",
".R c #a2a2a2",
".S c #a5a5a5",
".T c #a9a9a9",
".U c #acacac",
".V c #aeaeae",
".W c #b0b0b0",
".X c #b1b1b1",
".Y c #b2b2b2",
".Z c #b4b4b4",
".0 c #bdbdbd",
".1 c #c1c1c1",
".2 c #c3c3c3",
".3 c #d9d9d9",
".4 c #dbdbdb",
".5 c #dcdcdc",
".6 c #dddddd",
".7 c #e0e0e0",
".8 c #e2e2e2",
".9 c #e3e3e3",
"#. c #e5e5e5",
"## c #e6e6e6",
"#a c #e8e8e8",
"#b c #e9e9e9",
"#c c #ebebeb",
"#d c #ececec",
"#e c #f0f0f0",
"#f c #f1f1f1",
"#g c #f4f4f4",
"#h c #f5f5f5",
"#i c #f9f9f9",
"#j c #fbfbfb",
"#k c #fdfdfd",
"#l c #fefefe",
"#m c #ffffff",
/* pixels */
"#l#m#l#l#m#m#m#m#l#m#m#m#m#m#m#m#l#l#l#l#l#l#l#l#l#l#l#l#l#l#l#l#m#l#l",
"#m#l#m#l#m#m#m#m#l#m#m#m#m#m#m#m#l#l#l#l#l#l#l#l#l#l#l#l#l#l#l#l#m#l#l",
"#m#l#m#l#m#m#m#m#l#m#m#m#m#m#m#m#l#l#l#l#l#l#l#l#l#l#l#l#l#l#l#l#m#l#l",
"#m#l#m#l#m#m#l#m#l#m#m#m#m#m#m#m#l#l#l#j##.V.7#l#l#l#l#l#l#l#l#l#m#l#l",
"#m#l#m#l#m#m#m#m#l#m#m#m#m#m#m#m#k#k#k#e.K...5#k#k#l#l#l#l#l#l#l#m#l#l",
"#m#l#m#l#m#m#m#l#l#m#m#m#m#l#m#m#l#l#l#k.R.g#j#l#l#l#l#l#l#l#l#l#m#l#l",
"#m#m#m#l#m#m#m#m#l#m#m#m#m#m#m#m#l#l#l#k.v.t#l#l#l#l#l#l#l#l#l#l#m#l#l",
"#l#l#m#l#l#m#m#m#l#m#m#m#l.4.N.S.3#d#l#l.f.E.N.X#l#l#l#l#l#l#l#l#m#l#l",
"#l#l#m#l#m#m#m#m#l#m#m#m.2.k.3.T.#.U#l.6...D#d.n.W#l#l#l#l#l#l#l#m#l#l",
"#l#l#m#l#m#m#m#m#l#m#m#g.d.Z#m.8.a#.#l.P.h#k#k.q.z#l#l#l#l#l#l#l#m#l#l",
"#l#m#l#l#m#m#m#m#l#m#m.O.e#m#m.R.j#l#l.s.x#k#k.l.G#l#l#l#l#l#l#l#m#l#l",
"#m#l#l#l#m#l#l#l#l#m#m.z.r#m#m.w.A.9#h.i.R#l#b.b.0#l#l#l#l#l#l#l#m#l#l",
"#m#l#m#l#m#m#m#m#l#m#m.H.C#m#c.c.Q.F#f.m.Y#l.L.o#i#l#l#l#l#l#l#l#m#l#l",
"#l#l#l#l#m#m#m#m#l#m#m##.n.M.y.r.B.J#k.1.p.I.u#b#l#l#l#l#l#l#l#l#m#l#l",
"#m#l#l#l#m#m#l#l#l#m#m#m#j.6#m#m.9#k#k#k#e#a#k#k#l#l#l#l#l#l#l#l#m#l#l",
"#m#l#l#l#l#m#m#m#l#m#m.x.n.n.n.n.n.n.n.n.n.n.n.n.n#e#l#l#l#l#l#l#m#l#l",
"#m#m#m#l#m#m#m#m#l#m#m#m#m#m#m#m#k#l#l#l#k#k#l#l#l#l#l#l#l#l#l#l#m#l#l",
"#l#l#m#l#l#m#m#m#l#m#m#m#l#l#m#m#l#l#l#l#l#l#l#l#l#l#l#l#l#l#l#l#m#l#l",
"#l#l#m#l#m#m#m#m#l#m#m#m#m#m#m#m#l#l#l#l#l#l#l#l#l#l#l#l#l#l#l#l#m#l#l",
"#l#l#m#l#m#m#m#m#l#m#m#m#m#m#m#m#l#l#l#l#l#l#l#l#l#l#l#l#l#l#l#l#m#l#l"
};
