/* XPM */
static char *uplus[] = {
/* width height num_colors chars_per_pixel */
"    20    20       37            1",
/* colors */
". c #1b1b1b",
"# c #3a3a3a",
"a c #3c3c3c",
"b c #424242",
"c c #444444",
"d c #464646",
"e c #4f4f4f",
"f c #525252",
"g c #5d5d5d",
"h c #5e5e5e",
"i c #656565",
"j c #7c7c7c",
"k c #7d7d7d",
"l c #7f7f7f",
"m c #808080",
"n c #898989",
"o c #8d8d8d",
"p c #9b9b9b",
"q c #9c9c9c",
"r c #9e9e9e",
"s c #b4b4b4",
"t c #c6c6c6",
"u c #c7c7c7",
"v c #cecece",
"w c #d4d4d4",
"x c #d7d7d7",
"y c #d9d9d9",
"z c #e0e0e0",
"A c #e1e1e1",
"B c #e9e9e9",
"C c #f2f2f2",
"D c #f9f9f9",
"E c #fbfbfb",
"F c #fcfcfc",
"G c #fdfdfd",
"H c #fefefe",
"I c #ffffff",
/* pixels */
"HHIHHHHHHHHHHHHHIIII",
"HIIIHHHHHHHHHHHHIIII",
"IHIIIHHHHHHHHHHHIIII",
"IIIIIHHHHHHHHHHHIIII",
"IIIIIHHHHHHHHHHHIIII",
"HHIHHvoHHHHHHgHHIIII",
"HHIIIukHHvCHHdHHIIII",
"HHHHHukHHizHHdHHIIII",
"HHHHHukHHizHHdHHIIII",
"HHIHHujfc.acqdHHIIII",
"HHHHHukHHizHHdHHIIII",
"HHHHHxhHHizHFdHHIIII",
"IHIIHH#tHADEnoHHIIII",
"HHIHIHyegrmblHHHIIII",
"HHHHHHHGwpsBHHHHIIII",
"HIIHHHHHHHHHHHHHIIII",
"HHIIHHHHHHHHHHHHIIII",
"HHHHHHHHHHHHHHHHIIII",
"HIHIHHHHHHHHHHHHIIII",
"HHIIHHHHHHHHHHHHIIII"
};
