/* XPM */
static char *varcurlywedge[] = {
/* width height num_colors chars_per_pixel */
"    10    13       10            1",
/* colors */
". c #ffffff s background",
"# c #000000",
"a c #dddddd",
"b c #cccccc",
"c c #aaaaaa",
"d c #888888",
"e c #777777",
"f c #555555",
"g c #333333",
"h c #222222",
/* pixels */
"....c.....",
"....f.....",
"....f.....",
"....ga....",
"....#c....",
"...agd....",
"...ccf....",
"...f.f....",
"...f.cc...",
"..db..f...",
".ae...bd..",
".f.....ea.",
"ea......ea",
};
