/* XPM */
static char *varotimes[] = {
/* width height ncolors chars_per_pixel */
"10 10 9 1",
/* colors */
"` c #777777",
"a c #555555",
"b c #333333",
"c c #CCCCCC",
"d c #AAAAAA",
"e c #888888",
". c #ffffff s background",
"g c #DDDDDD",
"h c #222222",
/* pixels */
"..g`aaae..",
".gbg...ca.",
".ag`...`de",
"ce.g`.`g.a",
"dd..ghg..a",
"dd..`c`..a",
".a.`g.g`g`",
".dag...gbg",
"..daddeag.",
"....ddc...",
};
