/* XPM */
static char *varpropto[]={
"20 20 14 1",
"b c #000000",
"k c #111111",
"i c #222222",
"g c #333333",
"a c #444444",
"c c #555555",
"j c #666666",
"f c #777777",
"l c #888888",
"h c #999999",
"# c #bbbbbb",
"d c #dddddd",
"e c #eeeeee",
". c #ffffff",
"....................",
"....................",
"....................",
"....................",
"....................",
"....................",
".....#abbcd.eff#....",
"....#g#.ehidje......",
"....g#....hk#.......",
"....b......b........",
"....ke....dbd.......",
"....jl....fhf.......",
"....egh.efj.ffd.....",
".....ecbkf...lil....",
"....................",
"....................",
"....................",
"....................",
"....................",
"...................."};
