/* XPM */
static char *varrho[] = {
/* width height num_colors chars_per_pixel */
"    20    20       41            1",
/* colors */
". c #040404",
"# c #060606",
"a c #121212",
"b c #262626",
"c c #2d2d2d",
"d c #444444",
"e c #464646",
"f c #484848",
"g c #545454",
"h c #565656",
"i c #585858",
"j c #636363",
"k c #646464",
"l c #696969",
"m c #6c6c6c",
"n c #727272",
"o c #7c7c7c",
"p c #808080",
"q c #828282",
"r c #909090",
"s c #959595",
"t c #969696",
"u c #9b9b9b",
"v c #a8a8a8",
"w c #adadad",
"x c #aeaeae",
"y c #b9b9b9",
"z c #bbbbbb",
"A c #bcbcbc",
"B c #d4d4d4",
"C c #dcdcdc",
"D c #e6e6e6",
"E c #e8e8e8",
"F c #f5f5f5",
"G c #f7f7f7",
"H c #f8f8f8",
"I c #fbfbfb",
"J c #fcfcfc",
"K c #fdfdfd",
"L c #fefefe",
"M c #ffffff",
/* pixels */
"MMMMMMMMMMMMMMMMLLLL",
"MMMMMMMMMMMMMMMMLLLL",
"MMMMMMMMMMMMMMMMLLLL",
"MMMMMMMMMMMMMMMMLLLL",
"MMMMMMMMMMMMMMMMLLLL",
"MMLMMMMMMFoptMMMLLLL",
"MMMMMMMMFdyKfxMMLLLL",
"LMLMMMMMrgMMjsMMLLLL",
"MMMMMMMMcvMJbsMMLLLL",
"MMLLMMMD#EMB.CMMLLLL",
"MMMMMMMwaDIhqMMMLLLL",
"MMLLLMMozikrMMMMLLLL",
"MMMMMMMlHMMMMMMMLLLL",
"MMLMMMMmellpMMMMLLLL",
"LMLLMMMGAuynMMMMLLLL",
"MMLMMMMMMMMMMMMMLLLL",
"MMMMMMMMMMMMMMMMLLLL",
"LMLMMMMMMMMMMMMMLLLL",
"MMLMMMMMMMMMMMMMLLLL",
"MMMMMMMMMMMMMMMMLLLL"
};
