/* XPM */
static char *noname[] = {
/* width height ncolors chars_per_pixel */
"9 10 9 1",
/* colors */
"` c #777777",
"a c #555555",
"b c #333333",
"c c #CCCCCC",
"d c #AAAAAA",
"e c #888888",
". c #ffffff s background",
"g c #DDDDDD",
"h c #222222",
/* pixels */
".cg....d.",
"..a...ec.",
"..ce.g`..",
"...`g`g..",
"...gbe...",
"....hc...",
"...eca...",
"..g`.ce..",
"..`g..`g.",
".cd...ge.",
};
