/* XPM */
static char *vartriangleright[]={
"20 20 14 1",
"e c #000000",
"b c #111111",
"k c #222222",
"l c #333333",
"c c #444444",
"i c #555555",
"d c #666666",
"h c #777777",
"j c #999999",
"g c #bbbbbb",
"f c #cccccc",
"a c #dddddd",
"# c #eeeeee",
". c #ffffff",
"....................",
"....................",
"....................",
"....................",
"....................",
".....#a.............",
".....bcda...........",
".....e.fddg.........",
".....e...adcg.......",
".....e.....#hij.....",
".....e.......#hk....",
".....e......gida....",
".....e....gida......",
".....e..jlh#........",
".....ejch#..........",
".....cj.............",
"....................",
"....................",
"....................",
"...................."};
