/* XPM */
static char *vec[] = {
/* width height num_colors chars_per_pixel */
"    20    20       56            1",
/* colors */
". c #070707",
"# c #090909",
"a c #0b0b0b",
"b c #141414",
"c c #1a1a1a",
"d c #2a2a2a",
"e c #2d2d2d",
"f c #323232",
"g c #353535",
"h c #373737",
"i c #3c3c3c",
"j c #414141",
"k c #515151",
"l c #545454",
"m c #575757",
"n c #656565",
"o c #696969",
"p c #6d6d6d",
"q c #707070",
"r c #757575",
"s c #7a7a7a",
"t c #7b7b7b",
"u c #7f7f7f",
"v c #808080",
"w c #999999",
"x c #9f9f9f",
"y c #a4a4a4",
"z c #adadad",
"A c #b3b3b3",
"B c #b5b5b5",
"C c #b6b6b6",
"D c #bebebe",
"E c #c0c0c0",
"F c #c4c4c4",
"G c #cecece",
"H c #cfcfcf",
"I c #d3d3d3",
"J c #d8d8d8",
"K c #dedede",
"L c #dfdfdf",
"M c #e1e1e1",
"N c #e8e8e8",
"O c #e9e9e9",
"P c #ebebeb",
"Q c #ececec",
"R c #f3f3f3",
"S c #f5f5f5",
"T c #f6f6f6",
"U c #f8f8f8",
"V c #f9f9f9",
"W c #fafafa",
"X c #fbfbfb",
"Y c #fcfcfc",
"Z c #fdfdfd",
"0 c #fefefe",
"1 c #ffffff",
/* pixels */
"00100000000000001111",
"01110000000000001111",
"10111000000000001111",
"11111000000000001111",
"111110000000OL001111",
"0010000YJJJJBjT01111",
"0011100NooooefQ01111",
"00000000ZZZZsV001111",
"0000000ZZGHZZ0001111",
"0010000Xmvwct0001111",
"000000Zrl10bC0001111",
"000000UaE0K.RZ001111",
"101100D#S0ygVV001111",
"001010FdZZkpxI001111",
"000000ZhAuiqnZ001111",
"0110000TzMWBP0001111",
"00110000000000001111",
"00000000000000001111",
"01010000000000001111",
"00110000000000001111"
};
