/* XPM */
static char *wp[] = {
/* width height num_colors chars_per_pixel */
"    20    20       52            1",
/* colors */
". c #010101",
"# c #090909",
"a c #0d0d0d",
"b c #0e0e0e",
"c c #181818",
"d c #3a3a3a",
"e c #3d3d3d",
"f c #3f3f3f",
"g c #545454",
"h c #5a5a5a",
"i c #636363",
"j c #676767",
"k c #696969",
"l c #6b6b6b",
"m c #6c6c6c",
"n c #707070",
"o c #717171",
"p c #747474",
"q c #767676",
"r c #777777",
"s c #797979",
"t c #7d7d7d",
"u c #878787",
"v c #969696",
"w c #9a9a9a",
"x c #9c9c9c",
"y c #a4a4a4",
"z c #a6a6a6",
"A c #aaaaaa",
"B c #adadad",
"C c #afafaf",
"D c #b2b2b2",
"E c #b3b3b3",
"F c #b5b5b5",
"G c #bababa",
"H c #cacaca",
"I c #cdcdcd",
"J c #d5d5d5",
"K c #d7d7d7",
"L c #dddddd",
"M c #dedede",
"N c #e3e3e3",
"O c #e7e7e7",
"P c #ececec",
"Q c #f1f1f1",
"R c #f2f2f2",
"S c #f7f7f7",
"T c #f8f8f8",
"U c #f9f9f9",
"V c #fbfbfb",
"W c #fefefe",
"X c #ffffff",
/* pixels */
"XWXWXWWWWWWWWWWWXXXX",
"WWXWWWWWWWWWWWWWXXXX",
"XXXWXWWWWWWWWWWWXXXX",
"XXXXXWWXWWWWWXWWXXXX",
"XXXXXWWWSWWWWWWWXXXX",
"XWXWXWWGrWRDBUWWXXXX",
"WXXXWWOfWAqIziWWXXXX",
"WWXXWWwxCvWWW#WWXXXX",
"XXXXXWlytWWWIaWWXXXX",
"XXXXXWkcPPVWuhWWXXXX",
"WXXWXWJ.ymONeMWWXXXX",
"WXXWWWFjbFtoLWWWXXXX",
"XXXXXWsTgKWWWWWWXXXX",
"XXXWXWpUdQWWWWWWXXXX",
"XXXXXWEnHWWWWWWWXXXX",
"XXXXXWWWWWWWWWWWXXXX",
"WWXWXWWWWWWWWWWWXXXX",
"XXXXWWWWWWWWWWWWXXXX",
"XXXXXWWWWWWWWWWWXXXX",
"XXXXXWWWWWWWWWWWXXXX"
};
