/* XPM */
static char *wr[] = {
/* width height num_colors chars_per_pixel */
"    20    20       30            1",
/* colors */
". c #1a1a1a",
"# c #1e1e1e",
"a c #202020",
"b c #343434",
"c c #3f3f3f",
"d c #454545",
"e c #474747",
"f c #4c4c4c",
"g c #4f4f4f",
"h c #5c5c5c",
"i c #747474",
"j c #9c9c9c",
"k c #a4a4a4",
"l c #acacac",
"m c #b9b9b9",
"n c #c1c1c1",
"o c #d6d6d6",
"p c #d9d9d9",
"q c #dfdfdf",
"r c #e7e7e7",
"s c #e9e9e9",
"t c #eeeeee",
"u c #f0f0f0",
"v c #f7f7f7",
"w c #f8f8f8",
"x c #f9f9f9",
"y c #fbfbfb",
"z c #fcfcfc",
"A c #fefefe",
"B c #ffffff",
/* pixels */
"AABAAAAAAAAAAAAABBBB",
"ABBBAAAAAAAAAAAABBBB",
"BABBBAAAAAAAAAAABBBB",
"BBBBBAAAAAAAAAAABBBB",
"BBBBBAAAAAAAAAAABBBB",
"AABAAAAAogjAAAAABBBB",
"AABBBAAAAr.uAAAABBBB",
"AAAAAAAAAA#sAAAABBBB",
"AAAAAAAAAwatAAAABBBB",
"AABAAAAAAkdAAAAABBBB",
"AAAAAAAAxbpAAAAABBBB",
"AAAAAAAAmcAAAAAABBBB",
"BABBAAAAlhAAAAAABBBB",
"AABABAAAneAAAAAABBBB",
"AAAAAAAAyfivAAAABBBB",
"ABBAAAAAAyqzAAAABBBB",
"AABBAAAAAAAAAAAABBBB",
"AAAAAAAAAAAAAAAABBBB",
"ABABAAAAAAAAAAAABBBB",
"AABBAAAAAAAAAAAABBBB"
};
