/* XPM */
static char *noname[] = {
/* width height ncolors chars_per_pixel */
"9 10 6 1",
/* colors */
"` c #777777",
"a c #555555",
"b c #CCCCCC",
"c c #AAAAAA",
". c #ffffff s background",
"e c #DDDDDD",
/* pixels */
".........",
".........",
".........",
"..a......",
"..a......",
"..a......",
"..ae.....",
".cc`e....",
"cc..`e...",
"c....b...",
};
