/* XPM */
static char *zeta[] = {
/* width height num_colors chars_per_pixel */
"    20    20       38            1",
/* colors */
". c #070707",
"# c #171717",
"a c #202020",
"b c #343434",
"c c #424242",
"d c #444444",
"e c #484848",
"f c #646464",
"g c #676767",
"h c #6a6a6a",
"i c #707070",
"j c #717171",
"k c #7c7c7c",
"l c #828282",
"m c #858585",
"n c #898989",
"o c #8d8d8d",
"p c #919191",
"q c #959595",
"r c #969696",
"s c #aeaeae",
"t c #b5b5b5",
"u c #bbbbbb",
"v c #c7c7c7",
"w c #c9c9c9",
"x c #d1d1d1",
"y c #d5d5d5",
"z c #dadada",
"A c #dfdfdf",
"B c #e1e1e1",
"C c #e4e4e4",
"D c #eeeeee",
"E c #f5f5f5",
"F c #f7f7f7",
"G c #f8f8f8",
"H c #fdfdfd",
"I c #fefefe",
"J c #ffffff",
/* pixels */
"JIJIJIIIIIIIIIIIJJJJ",
"IIJIIIIIIIIIIIIIJJJJ",
"JJJIJIIIIIIIIIIIJJJJ",
"JJJJJIIJIIsDIJIIJJJJ",
"JJJJJIIIIIlgjHIIJJJJ",
"JIJIJIIIHkprsIIIJJJJ",
"IJJJIIIIonIIIIIIJJJJ",
"IIJJIIIAdGIIIIIIJJJJ",
"JJJJJIIhtIIIIIIIJJJJ",
"JJJJJIHaGIIIIIIIJJJJ",
"IJJIJICcIIIIIIIIJJJJ",
"IJJIIIvaFIIIIIIIJJJJ",
"JJJJJIH#iCIIIIIIJJJJ",
"JJJIJIIwb.exIIIIJJJJ",
"JJJJJIIIHyfdIIIIJJJJ",
"JJJJJIIIzBugIIIIJJJJ",
"IIJIJIIIEqmEIIIIJJJJ",
"JJJJIIIIIIIIIIIIJJJJ",
"JJJJJIIIIIIIIIIIJJJJ",
"JJJJJIIIIIIIIIIIJJJJ"
};
